<?xml version="1.0" encoding="utf-8"?>
<svg version="1.1" xmlns="http://www.w3.org/2000/svg" xmlns:xlink="http://www.w3.org/1999/xlink" x="0px" y="0px"
	 viewBox="0 0 1388 792" style="enable-background:new 0 0 1388 792;" xml:space="preserve">
<style type="text/css">
	circle{fill:#a4c29b;}
</style>
<circle cx="124.5" cy="155.5" r="55.5"/>
<circle cx="205.5" cy="410.5" r="55.5"/>
<circle cx="99.5" cy="601.5" r="55.5"/>
<circle cx="205.5" cy="752.5" r="55.5"/>
<circle cx="380.5" cy="733.5" r="55.5"/>
<circle cx="350.5" cy="571.5" r="55.5"/>
<circle cx="440.5" cy="387.5" r="55.5"/>
<circle cx="651.5" cy="427.5" r="55.5"/>
<circle cx="750.5" cy="539.5" r="55.5"/>
<circle cx="675.5" cy="784.5" r="55.5"/>
<circle cx="350.5" cy="183.5" r="55.5"/>
<circle cx="483.5" cy="58.5" r="55.5"/>
<circle cx="577.5" cy="206.5" r="55.5"/>
<circle cx="807.5" cy="222.5" r="55.5"/>
<circle cx="946.5" cy="94.5" r="55.5"/>
<circle cx="1074.5" cy="246.5" r="55.5"/>
<circle cx="1018.5" cy="459.5" r="55.5"/>
<circle cx="1297.5" cy="426.5" r="55.5"/>
<circle cx="1332.5" cy="615.5" r="55.5"/>
<circle cx="1150.5" cy="562.5" r="55.5"/>
<circle cx="1016.5" cy="752.5" r="55.5"/>
<circle cx="1355.5" cy="824.5" r="55.5"/>
<circle cx="1299.5" cy="166.5" r="55.5"/>
</svg>
