<?xml version="1.0" encoding="utf-8"?>
<!-- Generator: Adobe Illustrator 27.1.1, SVG Export Plug-In . SVG Version: 6.00 Build 0)  -->
<svg version="1.1" id="Layer_1" xmlns="http://www.w3.org/2000/svg" xmlns:xlink="http://www.w3.org/1999/xlink" x="0px" y="0px"
	 viewBox="0 0 24 24" style="enable-background:new 0 0 24 24;" xml:space="preserve" height="48" width="48">
<style type="text/css">
	.st0{fill:none;}
</style>
<rect x="-0.3" class="st0" width="24.3" height="7.1"/>
<path d="M4.5,0.4c0.4,0.4,0.6,0.8,0.7,1.3H4.4C4.3,1.4,4.1,1.1,3.9,0.9S3.2,0.5,2.8,0.5c-0.6,0-1,0.2-1.4,0.6C1.1,1.6,0.9,2.2,0.9,3
	c0,0.7,0.2,1.2,0.5,1.7c0.3,0.4,0.8,0.6,1.4,0.6c0.6,0,1-0.2,1.3-0.7c0.2-0.2,0.3-0.6,0.4-0.9h0.8C5.1,4.4,4.9,4.9,4.5,5.3
	C4.1,5.8,3.5,6.1,2.7,6.1C2,6.1,1.4,5.8,1,5.4C0.4,4.9,0.1,4,0.1,2.9c0-0.9,0.2-1.6,0.7-2.1c0.5-0.6,1.2-0.9,2-0.9
	C3.5-0.1,4.1,0.1,4.5,0.4z"/>
<path d="M6.2,0H7v5.2h3v0.7H6.2V0z"/>
<path d="M11,0h0.8v5.9H11V0z"/>
<path d="M17.2,0.4c0.4,0.4,0.6,0.8,0.7,1.3h-0.8c-0.1-0.4-0.3-0.7-0.5-0.9c-0.3-0.2-0.6-0.3-1.1-0.3c-0.6,0-1,0.2-1.4,0.6
	s-0.5,1-0.5,1.9c0,0.7,0.2,1.2,0.5,1.7s0.8,0.6,1.4,0.6c0.6,0,1-0.2,1.3-0.7c0.2-0.2,0.3-0.6,0.4-0.9H18c-0.1,0.6-0.3,1.1-0.7,1.6
	c-0.5,0.5-1.1,0.8-1.9,0.8c-0.7,0-1.2-0.2-1.7-0.6c-0.6-0.5-0.9-1.4-0.9-2.5c0-0.9,0.2-1.6,0.7-2.1c0.5-0.6,1.2-0.9,2-0.9
	C16.3-0.1,16.8,0.1,17.2,0.4z"/>
<path d="M19,0h0.8v2.9L22.7,0h1.1l-2.5,2.4l2.6,3.5h-1l-2.1-3l-1,0.9v2H19V0z"/>
</svg>
