<svg xmlns="http://www.w3.org/2000/svg" version="1.1" color-interpolation="sRGB" width="128" height="128" viewBox="0 0 128 123.31" fill="none">
  <polygon fill="#ac2219" points="64 0 70.82 22.59 84.85 3.36 83.71 26.87 103.44 13.09 94.47 34.96 117.76 28.13 101.93 46 126.25 46.84 105.27 58.77 128 67.21 104.15 71.91 122.81 87.02 98.67 83.98 111.25 104.12 89.44 93.67 94.57 116.68 77.45 99.94 74.57 123.31 64 102.11 53.43 123.31 50.55 99.94 33.43 116.68 38.56 93.67 16.75 104.12 29.33 83.98 5.19 87.02 23.85 71.91 0 67.21 22.73 58.77 1.75 46.84 26.07 46 10.24 28.13 33.53 34.96 24.56 13.09 44.29 26.87 43.15 3.36 57.18 22.59 64 0"/>
  <path fill="#fff" d="M76.87 69.36v-17.82h2.67v9.8h.89v-.89h.89v-.89h.89v-.89h.89v-.89h.89v-.89h.89v-.89h3.56v.89h-.89v.89h-.89v.89h-.89v.89h-.89v.89h-.89v.89h-.89v.89h-.89v.89h.89v.89h.89v.89h.89v.89h.89v.89h.89v.89h.89v.89h.89v.89h-.89v.89h-3.56v-.89h-.89v-.89h-.89v-.89h-.89v-.89h-.89v-.89h-.89v-.89h-.89v5.35h-2.67Z"/>
  <path fill="#fff" d="M67.74 69.36v-.89h-1.78v-.89h-.89v-1.78h-.89v-6.24h.89v-1.78h.89v-.89h1.78v-.89h3.56v.89h1.78v.89h.89v2.67h-1.78v-.89h-.89v-.89h-3.56v.89h-.89v6.24h.89v.89h3.56v-.89h.89v-.89h1.78v2.67h-.89v.89h-1.78v.89h-3.56Z"/>
  <path fill="#fff" d="M58.69 69.36v-13.36h2.67v13.36h-2.67ZM58.69 54.21v-2.67h2.67v2.67h-2.67Z"/>
  <path fill="#fff" d="M52.79 69.36v-17.82h2.67v17.82h-2.67Z"/>
  <path fill="#fff" d="M43.66 69.36v-.89h-1.78v-.89h-.89v-1.78h-.89v-6.24h.89v-1.78h.89v-.89h1.78v-.89h3.56v.89h1.78v.89h.89v2.67h-1.78v-.89h-.89v-.89h-3.56v.89h-.89v6.24h.89v.89h3.56v-.89h.89v-.89h1.78v2.67h-.89v.89h-1.78v.89h-3.56Z"/>
</svg>
