<?xml version="1.0" encoding="utf-8"?>
<svg version="1.1" id="Layer_1" xmlns="http://www.w3.org/2000/svg" xmlns:xlink="http://www.w3.org/1999/xlink" x="0px" y="0px"
	 viewBox="0 0 219.7 219.7" style="enable-background:new 0 0 219.7 219.7;" xml:space="preserve">
<g>
	<path d="M123.84,134.12c-2.86,0-5.35-0.44-7.58-1.34c-3.43-1.39-6.09-3.88-7.79-5.63c-1.49-1.53-2.89-3.18-4.17-4.91
		c-4.52,4.2-11.28,6.17-20.11,5.86c-9.45-0.33-21.16-3.5-29.07-10.96c-5.93,5.9-14.06,7.51-19.85,7.82
		c-5.89,0.32-10.6-0.64-14.4-2.92c-0.98-0.59-1.88-1.25-2.7-1.96c-5.41,4.28-11.78,7.29-18.6,8.7c-1.89,0.4-3.75-0.82-4.14-2.71
		c-0.39-1.89,0.82-3.75,2.72-4.14c5.64-1.17,11.06-3.75,15.64-7.34c-2.57-4.59-3.45-9.69-3.73-13.09c-0.15-1.8-0.62-7.29,2.96-10.83
		c2.27-2.25,5.5-3.01,8.85-2.09c3.95,1.08,7.26,4.32,8.25,8.07c1.34,5.12-0.36,10.82-4.94,16.49c-0.59,0.73-1.2,1.45-1.84,2.14
		c0.35,0.28,0.73,0.53,1.12,0.77c2.57,1.54,5.98,2.17,10.43,1.93c4.59-0.25,10.98-1.46,15.35-5.84c0.13-0.13,0.25-0.26,0.38-0.4
		c-0.91-1.43-1.71-2.97-2.36-4.62c-1.29-3.27-1.51-6.07-0.65-8.56c0.69-2,2.25-3.74,4.17-4.65c1.71-0.81,3.57-0.92,5.25-0.31
		c0.76,0.28,1.39,0.81,1.8,1.5c2.85,4.79,2.86,10.93,0.37,16.27c6.42,6.66,16.86,9.47,25.23,9.76c7.11,0.25,12.27-1.18,15.36-4.25
		c0.22-0.22,0.44-0.45,0.64-0.69c-2.28-4.21-3.97-8.74-4.95-13.38c-0.49-2.31-0.88-5.05-0.05-7.81c1.09-3.62,4.11-6.15,7.51-6.3
		c3.44-0.15,6.78,2.26,8.15,5.85c1,2.62,0.88,5.29,0.68,7.8c-0.37,4.58-1.07,9.55-3.14,13.9c1.44,2.16,3.06,4.18,4.86,6.03
		c2.03,2.09,3.7,3.33,5.4,4.02c1.52,0.61,3.33,0.89,5.55,0.82c8.59-0.23,17.01-4.9,26.17-14.58c-1.04-2.59-1.89-5.48-2.52-8.65
		c-1.98-9.87,2.22-14.83,6.41-16.08c2.62-0.78,5.47-0.2,7.81,1.59c2.82,2.16,4.59,5.81,4.51,9.3c-0.13,5.35-3.32,9.62-6.31,13.21
		c-0.5,0.6-1.01,1.21-1.54,1.82c1.53,2.56,3.38,4.52,5.55,5.86c5.62,3.5,13.94,2.68,20.22-1.97c2.19-1.63,4.17-3.66,5.93-6.08
		c-1.61-2.6-2.73-5.22-3.41-7.67c-1.41-5.13-0.84-9.74,1.62-12.97c1.83-2.41,5.06-3.85,8.19-3.68c2.74,0.15,5.06,1.5,6.36,3.69
		c2.05,3.45,0.84,7.45,0.33,9.16c-1.26,4.16-2.81,7.91-4.66,11.22c5.62,6.42,14.39,10.31,22.36,11.51c1.91,0.29,3.23,2.07,2.94,3.98
		c-0.29,1.91-2.06,3.23-3.98,2.94c-11.5-1.73-19.81-6.68-25.32-12.48c-1.87,2.3-3.93,4.3-6.2,5.98c-8.54,6.33-20.08,7.27-28.09,2.3
		c-2.59-1.61-4.84-3.78-6.74-6.49c-7.47,7.53-17.37,14.75-29.45,15.08C124.36,134.11,124.1,134.12,123.84,134.12z M19.15,95.19
		c-0.43,0-0.87,0.11-1.2,0.44c-0.83,0.82-1.14,2.6-0.91,5.27c0.16,1.9,0.64,5.33,2.07,8.6c0.22-0.25,0.43-0.51,0.64-0.77
		c1.78-2.21,4.62-6.49,3.62-10.32c-0.35-1.34-1.78-2.68-3.32-3.1C19.77,95.25,19.46,95.19,19.15,95.19z M103.26,95.68
		c0,0-0.01,0-0.01,0c-0.29,0.01-0.88,0.55-1.11,1.32c-0.38,1.25-0.11,2.9,0.19,4.34c0.43,2.05,1.03,4.07,1.77,6.05
		c0.34-1.83,0.54-3.73,0.69-5.62c0.14-1.78,0.23-3.49-0.25-4.75C104.25,96.24,103.58,95.68,103.26,95.68z M156.84,94.45
		c-0.12,0-0.24,0.02-0.35,0.05c-1.86,0.55-2.25,4.5-1.55,7.99c0.28,1.4,0.6,2.72,0.96,3.96c1.97-2.45,3.84-5.2,3.91-7.95
		c0.03-1.26-0.71-2.76-1.76-3.56C157.62,94.62,157.22,94.45,156.84,94.45z M196.54,94.2c-0.8,0-1.68,0.38-2.09,0.93
		c-1.54,2.03-0.82,5.49-0.44,6.88c0.21,0.78,0.47,1.54,0.76,2.28c0.85-1.93,1.61-4.01,2.29-6.24c0.55-1.83,0.67-3.03,0.36-3.56
		c-0.14-0.23-0.6-0.27-0.74-0.28C196.63,94.2,196.58,94.2,196.54,94.2z"/>
	<path d="M27.25,73.05c-0.22,0-0.45-0.02-0.67-0.07l-3.86-0.75c-1.9-0.37-3.13-2.21-2.76-4.11c0.37-1.9,2.21-3.14,4.11-2.76
		l3.86,0.75c1.9,0.37,3.14,2.21,2.76,4.11C30.35,71.89,28.89,73.05,27.25,73.05z"/>
	<path d="M46.22,73.91c-0.11,0-0.22,0-0.33-0.02l-6.1-0.57c-1.92-0.18-3.34-1.88-3.16-3.81c0.18-1.92,1.88-3.34,3.81-3.16l6.1,0.57
		c1.92,0.18,3.34,1.88,3.16,3.81C49.54,72.55,48.01,73.91,46.22,73.91z"/>
	<path d="M66.53,72.44c-0.04,0-0.07,0-0.11,0l-5.69-0.17c-1.93-0.06-3.45-1.67-3.39-3.61c0.06-1.93,1.66-3.43,3.61-3.39l5.69,0.17
		c1.93,0.06,3.45,1.67,3.39,3.61C69.97,70.94,68.42,72.44,66.53,72.44z"/>
	<path d="M86.32,72.98c-1.95,0-3.9-0.11-5.83-0.34c-1.92-0.23-3.29-1.97-3.06-3.89c0.23-1.92,1.97-3.29,3.89-3.06
		c2.79,0.33,5.62,0.38,8.42,0.16c1.93-0.15,3.61,1.28,3.77,3.21c0.16,1.93-1.28,3.61-3.21,3.77C88.98,72.93,87.65,72.98,86.32,72.98
		z"/>
	<path d="M104.39,72.85c-1.73,0-3.23-1.28-3.47-3.04c-0.25-1.92,1.1-3.67,3.01-3.93c1.91-0.25,3.85-0.27,5.76-0.04
		c1.92,0.22,3.29,1.96,3.07,3.88c-0.22,1.92-1.97,3.29-3.88,3.07c-1.34-0.16-2.7-0.15-4.04,0.03
		C104.7,72.84,104.55,72.85,104.39,72.85z"/>
	<path d="M127.3,72.46c-0.82,0-1.63-0.08-2.43-0.23c-1.9-0.36-3.15-2.19-2.79-4.09c0.36-1.9,2.2-3.15,4.09-2.79
		c1.2,0.23,2.48,0.09,3.6-0.4c1.77-0.76,3.83,0.06,4.6,1.83s-0.06,3.83-1.83,4.6C130.89,72.1,129.09,72.46,127.3,72.46z"/>
	<path d="M145.19,72.03c-1.89,0-3.45-1.51-3.5-3.41c-0.05-1.93,1.47-3.54,3.41-3.59l6.03-0.16c1.98-0.06,3.54,1.47,3.59,3.41
		c0.05,1.93-1.47,3.54-3.41,3.59l-6.03,0.16C145.25,72.03,145.22,72.03,145.19,72.03z"/>
	<path d="M164.52,72.45c-1.77,0-3.3-1.34-3.48-3.15c-0.19-1.92,1.21-3.64,3.13-3.83l4.87-0.49c1.93-0.19,3.64,1.21,3.84,3.13
		s-1.21,3.64-3.13,3.83l-4.87,0.49C164.76,72.44,164.64,72.45,164.52,72.45z"/>
	<path d="M184.86,71.52c-1.77,0-3.3-1.34-3.48-3.15c-0.19-1.92,1.21-3.64,3.13-3.83l3-0.3c1.94-0.19,3.64,1.21,3.83,3.13
		c0.19,1.92-1.21,3.64-3.13,3.83l-3,0.3C185.1,71.52,184.98,71.52,184.86,71.52z"/>
	<path d="M203.15,72.31c-0.84,0-1.67-0.07-2.51-0.2c-1.91-0.3-3.21-2.09-2.91-4c0.3-1.91,2.08-3.22,4-2.91
		c1.07,0.17,2.2,0.14,3.27-0.08c1.89-0.4,3.75,0.82,4.14,2.71c0.4,1.89-0.82,3.75-2.71,4.14C205.36,72.2,204.26,72.31,203.15,72.31z
		"/>
	<path d="M224.92,70.82c-0.22,0-0.45-0.02-0.68-0.07c-1.6-0.31-3.22-0.34-4.82-0.07c-1.91,0.32-3.71-0.97-4.03-2.88
		c-0.32-1.91,0.97-3.71,2.88-4.03c2.44-0.41,4.91-0.37,7.33,0.11c1.9,0.37,3.13,2.21,2.76,4.11
		C228.02,69.66,226.56,70.82,224.92,70.82z"/>
	<path d="M7.61,71.37c-0.79,0-1.58-0.11-2.35-0.32c-1.86-0.51-2.96-2.44-2.45-4.3c0.51-1.86,2.44-2.96,4.3-2.45
		c0.34,0.09,0.72,0.09,1.06-0.02c1.84-0.59,3.81,0.43,4.4,2.27c0.59,1.84-0.43,3.81-2.27,4.4C9.43,71.23,8.52,71.37,7.61,71.37z"/>
	<path d="M15.01,150.39c-1.89,0-3.44-1.5-3.5-3.4c-0.05-1.93,1.47-3.54,3.4-3.59l6.41-0.17c1.94-0.06,3.54,1.47,3.59,3.4
		c0.05,1.93-1.47,3.54-3.4,3.59l-6.41,0.17C15.07,150.39,15.04,150.39,15.01,150.39z"/>
	<path d="M31.83,152.14c-1.92,0-3.48-1.55-3.5-3.47c-0.02-1.93,1.54-3.51,3.47-3.53l7.19-0.06c1.9,0,3.51,1.54,3.53,3.47
		c0.02,1.93-1.54,3.51-3.47,3.53l-7.19,0.06C31.85,152.14,31.84,152.14,31.83,152.14z"/>
	<path d="M62.47,152.14c-0.06,0-0.12,0-0.18,0l-10.26-0.51c-1.93-0.1-3.42-1.74-3.32-3.67c0.1-1.93,1.72-3.41,3.67-3.32l10.26,0.51
		c1.93,0.1,3.42,1.74,3.32,3.67C65.87,150.69,64.32,152.14,62.47,152.14z"/>
	<path d="M79.94,152.43c-0.08,0-0.16,0-0.24-0.01l-4.57-0.31c-1.93-0.13-3.38-1.8-3.25-3.73c0.13-1.93,1.81-3.36,3.73-3.25
		l4.57,0.31c1.93,0.13,3.38,1.8,3.25,3.73C83.3,151.01,81.76,152.43,79.94,152.43z"/>
	<path d="M94.88,154.43c-1.89,0-3.44-1.5-3.5-3.4c-0.05-1.93,1.47-3.54,3.4-3.6l6.41-0.18c1.93-0.04,3.54,1.47,3.6,3.4
		c0.05,1.93-1.47,3.54-3.4,3.6l-6.41,0.18C94.94,154.43,94.91,154.43,94.88,154.43z"/>
	<path d="M116.47,153.36c-0.83,0-1.66-0.05-2.49-0.16c-1.92-0.25-3.27-2.01-3.02-3.92s2-3.26,3.92-3.02
		c1.37,0.18,2.75,0.12,4.11-0.16c1.9-0.4,3.75,0.82,4.14,2.71c0.4,1.89-0.81,3.75-2.71,4.14
		C119.12,153.22,117.8,153.36,116.47,153.36z"/>
	<path d="M137.46,154.23c-1.34,0-2.68-0.14-4.01-0.41c-1.89-0.39-3.11-2.25-2.72-4.14c0.39-1.89,2.24-3.1,4.14-2.72
		c1.55,0.32,3.2,0.35,4.77,0.08c1.91-0.32,3.72,0.95,4.04,2.85c0.33,1.91-0.95,3.72-2.85,4.04
		C139.72,154.13,138.59,154.23,137.46,154.23z"/>
	<path d="M156.54,154.39c-1.92,0-3.48-1.55-3.5-3.47c-0.02-1.93,1.54-3.51,3.47-3.53l7.19-0.06c0.01,0,0.02,0,0.03,0
		c1.92,0,3.48,1.55,3.5,3.47c0.02,1.93-1.54,3.51-3.47,3.53l-7.19,0.06C156.56,154.39,156.55,154.39,156.54,154.39z"/>
	<path d="M183.06,154.6c-0.04,0-0.09,0-0.13,0l-5.69-0.22c-1.93-0.07-3.44-1.7-3.36-3.63c0.07-1.93,1.7-3.45,3.63-3.36l5.69,0.22
		c1.93,0.07,3.44,1.7,3.36,3.63C186.48,153.12,184.93,154.6,183.06,154.6z"/>
	<path d="M208.79,154.61C208.79,154.61,208.79,154.61,208.79,154.61l-7.95-0.01c-1.93,0-3.5-1.57-3.49-3.51
		c0-1.93,1.57-3.49,3.5-3.49c0,0,0,0,0.01,0l7.94,0.01c1.93,0,3.5,1.57,3.49,3.51C212.29,153.05,210.72,154.61,208.79,154.61z"/>
	<path d="M223.2,154.21c-0.91,0-1.82-0.05-2.72-0.15c-1.92-0.21-3.31-1.94-3.09-3.86c0.21-1.92,1.94-3.31,3.86-3.09
		c1.46,0.16,2.94,0.14,4.4-0.06c1.9-0.27,3.68,1.07,3.95,2.98c0.27,1.91-1.07,3.68-2.98,3.95
		C225.49,154.13,224.35,154.21,223.2,154.21z"/>
	<path d="M4.26,148.79c-0.09,0-0.17,0-0.26-0.01l-4.57-0.33c-1.93-0.14-3.38-1.82-3.24-3.75s1.83-3.39,3.75-3.24l4.57,0.33
		c1.93,0.14,3.38,1.82,3.24,3.75C7.61,147.38,6.08,148.79,4.26,148.79z"/>
</g>
</svg>
