<?xml version="1.0" encoding="utf-8"?>
<svg version="1.1" id="Layer_1" xmlns="http://www.w3.org/2000/svg" xmlns:xlink="http://www.w3.org/1999/xlink" x="0px" y="0px"
	 viewBox="0 0 300 300" style="enable-background:new 0 0 300 300;" xml:space="preserve">
<style type="text/css">
	.st0{fill:#1D1D1B;}
</style>
<g>
	<g>
		<path class="st0" d="M-2.1,112.7c2.6,0,5.1-2.3,5-5c-0.1-2.7-2.2-5-5-5c-2.6,0-5.1,2.3-5,5C-7,110.4-4.9,112.7-2.1,112.7
			L-2.1,112.7z"/>
	</g>
</g>
<g>
	<g>
		<path class="st0" d="M11.9,105.8c2.6,0,5.1-2.3,5-5c-0.1-2.7-2.2-5-5-5c-2.6,0-5.1,2.3-5,5C7.1,103.5,9.1,105.8,11.9,105.8
			L11.9,105.8z"/>
	</g>
</g>
<g>
	<g>
		<path class="st0" d="M10.4,114.9c2.6,0,5.1-2.3,5-5c-0.1-2.7-2.2-5-5-5c-2.6,0-5.1,2.3-5,5C5.6,112.6,7.6,114.9,10.4,114.9
			L10.4,114.9z"/>
	</g>
</g>
<g>
	<g>
		<path class="st0" d="M31.2,113.1c2.6,0,5.1-2.3,5-5c-0.1-2.7-2.2-5-5-5c-2.6,0-5.1,2.3-5,5C26.3,110.9,28.4,113.1,31.2,113.1
			L31.2,113.1z"/>
	</g>
</g>
<g>
	<g>
		<path class="st0" d="M44.8,106.3c2.6,0,5.1-2.3,5-5c-0.1-2.7-2.2-5-5-5c-2.6,0-5.1,2.3-5,5C39.9,104,42,106.3,44.8,106.3
			L44.8,106.3z"/>
	</g>
</g>
<g>
	<g>
		<path class="st0" d="M43.3,115.4c2.6,0,5.1-2.3,5-5c-0.1-2.7-2.2-5-5-5c-2.6,0-5.1,2.3-5,5C38.4,113.1,40.5,115.4,43.3,115.4
			L43.3,115.4z"/>
	</g>
</g>
<g>
	<g>
		<path class="st0" d="M63.2,112c2.6,0,5.1-2.3,5-5c-0.1-2.7-2.2-5-5-5c-2.6,0-5.1,2.3-5,5C58.3,109.7,60.4,112,63.2,112L63.2,112z"
			/>
	</g>
</g>
<g>
	<g>
		<path class="st0" d="M76.7,105.1c2.6,0,5.1-2.3,5-5c-0.1-2.7-2.2-5-5-5c-2.6,0-5.1,2.3-5,5C71.9,102.8,73.9,105.1,76.7,105.1
			L76.7,105.1z"/>
	</g>
</g>
<g>
	<g>
		<path class="st0" d="M75.2,114.2c2.6,0,5.1-2.3,5-5c-0.1-2.7-2.2-5-5-5c-2.6,0-5.1,2.3-5,5C70.4,111.9,72.4,114.2,75.2,114.2
			L75.2,114.2z"/>
	</g>
</g>
<g>
	<g>
		<path class="st0" d="M95.3,112.7c2.6,0,5.1-2.3,5-5c-0.1-2.7-2.2-5-5-5c-2.6,0-5.1,2.3-5,5C90.5,110.4,92.5,112.7,95.3,112.7
			L95.3,112.7z"/>
	</g>
</g>
<g>
	<g>
		<path class="st0" d="M108.9,105.8c2.6,0,5.1-2.3,5-5c-0.1-2.7-2.2-5-5-5c-2.6,0-5.1,2.3-5,5C104,103.5,106.1,105.8,108.9,105.8
			L108.9,105.8z"/>
	</g>
</g>
<g>
	<g>
		<path class="st0" d="M107.4,114.9c2.6,0,5.1-2.3,5-5c-0.1-2.7-2.2-5-5-5c-2.6,0-5.1,2.3-5,5C102.5,112.6,104.6,114.9,107.4,114.9
			L107.4,114.9z"/>
	</g>
</g>
<g>
	<g>
		<path class="st0" d="M128.5,112.7c2.6,0,5.1-2.3,5-5c-0.1-2.7-2.2-5-5-5c-2.6,0-5.1,2.3-5,5C123.6,110.4,125.7,112.7,128.5,112.7
			L128.5,112.7z"/>
	</g>
</g>
<g>
	<g>
		<path class="st0" d="M142.1,105.8c2.6,0,5.1-2.3,5-5c-0.1-2.7-2.2-5-5-5c-2.6,0-5.1,2.3-5,5C137.2,103.5,139.3,105.8,142.1,105.8
			L142.1,105.8z"/>
	</g>
</g>
<g>
	<g>
		<path class="st0" d="M140.6,114.9c2.6,0,5.1-2.3,5-5c-0.1-2.7-2.2-5-5-5c-2.6,0-5.1,2.3-5,5C135.7,112.6,137.8,114.9,140.6,114.9
			L140.6,114.9z"/>
	</g>
</g>
<g>
	<g>
		<path class="st0" d="M161.3,113.1c2.6,0,5.1-2.3,5-5c-0.1-2.7-2.2-5-5-5c-2.6,0-5.1,2.3-5,5C156.4,110.9,158.5,113.1,161.3,113.1
			L161.3,113.1z"/>
	</g>
</g>
<g>
	<g>
		<path class="st0" d="M174.9,106.3c2.6,0,5.1-2.3,5-5c-0.1-2.7-2.2-5-5-5c-2.6,0-5.1,2.3-5,5C170,104,172.1,106.3,174.9,106.3
			L174.9,106.3z"/>
	</g>
</g>
<g>
	<g>
		<path class="st0" d="M173.4,115.4c2.6,0,5.1-2.3,5-5c-0.1-2.7-2.2-5-5-5c-2.6,0-5.1,2.3-5,5C168.5,113.1,170.6,115.4,173.4,115.4
			L173.4,115.4z"/>
	</g>
</g>
<g>
	<g>
		<path class="st0" d="M193.3,112c2.6,0,5.1-2.3,5-5c-0.1-2.7-2.2-5-5-5c-2.6,0-5.1,2.3-5,5C188.4,109.7,190.5,112,193.3,112
			L193.3,112z"/>
	</g>
</g>
<g>
	<g>
		<path class="st0" d="M206.9,105.1c2.6,0,5.1-2.3,5-5c-0.1-2.7-2.2-5-5-5c-2.6,0-5.1,2.3-5,5C202,102.8,204.1,105.1,206.9,105.1
			L206.9,105.1z"/>
	</g>
</g>
<g>
	<g>
		<path class="st0" d="M205.4,114.2c2.6,0,5.1-2.3,5-5c-0.1-2.7-2.2-5-5-5c-2.6,0-5.1,2.3-5,5C200.5,111.9,202.6,114.2,205.4,114.2
			L205.4,114.2z"/>
	</g>
</g>
<g>
	<g>
		<path class="st0" d="M225.5,112.7c2.6,0,5.1-2.3,5-5c-0.1-2.7-2.2-5-5-5c-2.6,0-5.1,2.3-5,5C220.6,110.4,222.7,112.7,225.5,112.7
			L225.5,112.7z"/>
	</g>
</g>
<g>
	<g>
		<path class="st0" d="M239.1,105.8c2.6,0,5.1-2.3,5-5c-0.1-2.7-2.2-5-5-5c-2.6,0-5.1,2.3-5,5C234.2,103.5,236.2,105.8,239.1,105.8
			L239.1,105.8z"/>
	</g>
</g>
<g>
	<g>
		<path class="st0" d="M237.5,114.9c2.6,0,5.1-2.3,5-5c-0.1-2.7-2.2-5-5-5c-2.6,0-5.1,2.3-5,5C232.7,112.6,234.7,114.9,237.5,114.9
			L237.5,114.9z"/>
	</g>
</g>
<g>
	<g>
		<path class="st0" d="M254.3,112.7c2.6,0,5.1-2.3,5-5c-0.1-2.7-2.2-5-5-5c-2.6,0-5.1,2.3-5,5C249.4,110.4,251.5,112.7,254.3,112.7
			L254.3,112.7z"/>
	</g>
</g>
<g>
	<g>
		<path class="st0" d="M267.8,105.8c2.6,0,5.1-2.3,5-5c-0.1-2.7-2.2-5-5-5c-2.6,0-5.1,2.3-5,5C263,103.5,265,105.8,267.8,105.8
			L267.8,105.8z"/>
	</g>
</g>
<g>
	<g>
		<path class="st0" d="M266.3,114.9c2.6,0,5.1-2.3,5-5c-0.1-2.7-2.2-5-5-5c-2.6,0-5.1,2.3-5,5C261.5,112.6,263.5,114.9,266.3,114.9
			L266.3,114.9z"/>
	</g>
</g>
<g>
	<g>
		<path class="st0" d="M287.1,113.1c2.6,0,5.1-2.3,5-5c-0.1-2.7-2.2-5-5-5c-2.6,0-5.1,2.3-5,5C282.2,110.9,284.3,113.1,287.1,113.1
			L287.1,113.1z"/>
	</g>
</g>
<g>
	<g>
		<path class="st0" d="M300.2,106.3c2.6,0,5.1-2.3,5-5c-0.1-2.7-2.2-5-5-5c-2.6,0-5.1,2.3-5,5C295.3,104,297.4,106.3,300.2,106.3
			L300.2,106.3z"/>
	</g>
</g>
<g>
	<g>
		<path class="st0" d="M299.2,115.4c2.6,0,5.1-2.3,5-5c-0.1-2.7-2.2-5-5-5c-2.6,0-5.1,2.3-5,5C294.3,113.1,296.4,115.4,299.2,115.4
			L299.2,115.4z"/>
	</g>
</g>
<g>
	<g>
		<path class="st0" d="M-2.1,136.4c2.6,0,5.1-2.3,5-5c-0.1-2.7-2.2-5-5-5c-2.6,0-5.1,2.3-5,5C-7,134.1-4.9,136.4-2.1,136.4
			L-2.1,136.4z"/>
	</g>
</g>
<g>
	<g>
		<path class="st0" d="M11.9,129.5c2.6,0,5.1-2.3,5-5c-0.1-2.7-2.2-5-5-5c-2.6,0-5.1,2.3-5,5C7.1,127.2,9.1,129.5,11.9,129.5
			L11.9,129.5z"/>
	</g>
</g>
<g>
	<g>
		<path class="st0" d="M10.4,138.6c2.6,0,5.1-2.3,5-5c-0.1-2.7-2.2-5-5-5c-2.6,0-5.1,2.3-5,5C5.6,136.3,7.6,138.6,10.4,138.6
			L10.4,138.6z"/>
	</g>
</g>
<g>
	<g>
		<path class="st0" d="M31.2,136.8c2.6,0,5.1-2.3,5-5c-0.1-2.7-2.2-5-5-5c-2.6,0-5.1,2.3-5,5C26.3,134.5,28.4,136.8,31.2,136.8
			L31.2,136.8z"/>
	</g>
</g>
<g>
	<g>
		<path class="st0" d="M44.8,129.9c2.6,0,5.1-2.3,5-5c-0.1-2.7-2.2-5-5-5c-2.6,0-5.1,2.3-5,5C39.9,127.6,42,129.9,44.8,129.9
			L44.8,129.9z"/>
	</g>
</g>
<g>
	<g>
		<path class="st0" d="M43.3,139.1c2.6,0,5.1-2.3,5-5c-0.1-2.7-2.2-5-5-5c-2.6,0-5.1,2.3-5,5C38.4,136.8,40.5,139.1,43.3,139.1
			L43.3,139.1z"/>
	</g>
</g>
<g>
	<g>
		<path class="st0" d="M63.2,135.7c2.6,0,5.1-2.3,5-5c-0.1-2.7-2.2-5-5-5c-2.6,0-5.1,2.3-5,5C58.3,133.4,60.4,135.7,63.2,135.7
			L63.2,135.7z"/>
	</g>
</g>
<g>
	<g>
		<path class="st0" d="M76.7,128.8c2.6,0,5.1-2.3,5-5c-0.1-2.7-2.2-5-5-5c-2.6,0-5.1,2.3-5,5C71.9,126.5,73.9,128.8,76.7,128.8
			L76.7,128.8z"/>
	</g>
</g>
<g>
	<g>
		<path class="st0" d="M75.2,137.9c2.6,0,5.1-2.3,5-5c-0.1-2.7-2.2-5-5-5c-2.6,0-5.1,2.3-5,5C70.4,135.6,72.4,137.9,75.2,137.9
			L75.2,137.9z"/>
	</g>
</g>
<g>
	<g>
		<path class="st0" d="M95.3,136.4c2.6,0,5.1-2.3,5-5c-0.1-2.7-2.2-5-5-5c-2.6,0-5.1,2.3-5,5C90.5,134.1,92.5,136.4,95.3,136.4
			L95.3,136.4z"/>
	</g>
</g>
<g>
	<g>
		<path class="st0" d="M108.9,129.5c2.6,0,5.1-2.3,5-5c-0.1-2.7-2.2-5-5-5c-2.6,0-5.1,2.3-5,5C104,127.2,106.1,129.5,108.9,129.5
			L108.9,129.5z"/>
	</g>
</g>
<g>
	<g>
		<path class="st0" d="M107.4,138.6c2.6,0,5.1-2.3,5-5c-0.1-2.7-2.2-5-5-5c-2.6,0-5.1,2.3-5,5C102.5,136.3,104.6,138.6,107.4,138.6
			L107.4,138.6z"/>
	</g>
</g>
<g>
	<g>
		<path class="st0" d="M128.5,136.4c2.6,0,5.1-2.3,5-5c-0.1-2.7-2.2-5-5-5c-2.6,0-5.1,2.3-5,5C123.6,134.1,125.7,136.4,128.5,136.4
			L128.5,136.4z"/>
	</g>
</g>
<g>
	<g>
		<path class="st0" d="M142.1,129.5c2.6,0,5.1-2.3,5-5c-0.1-2.7-2.2-5-5-5c-2.6,0-5.1,2.3-5,5C137.2,127.2,139.3,129.5,142.1,129.5
			L142.1,129.5z"/>
	</g>
</g>
<g>
	<g>
		<path class="st0" d="M140.6,138.6c2.6,0,5.1-2.3,5-5c-0.1-2.7-2.2-5-5-5c-2.6,0-5.1,2.3-5,5C135.7,136.3,137.8,138.6,140.6,138.6
			L140.6,138.6z"/>
	</g>
</g>
<g>
	<g>
		<path class="st0" d="M161.3,136.8c2.6,0,5.1-2.3,5-5c-0.1-2.7-2.2-5-5-5c-2.6,0-5.1,2.3-5,5C156.4,134.5,158.5,136.8,161.3,136.8
			L161.3,136.8z"/>
	</g>
</g>
<g>
	<g>
		<path class="st0" d="M174.9,129.9c2.6,0,5.1-2.3,5-5c-0.1-2.7-2.2-5-5-5c-2.6,0-5.1,2.3-5,5C170,127.6,172.1,129.9,174.9,129.9
			L174.9,129.9z"/>
	</g>
</g>
<g>
	<g>
		<path class="st0" d="M173.4,139.1c2.6,0,5.1-2.3,5-5c-0.1-2.7-2.2-5-5-5c-2.6,0-5.1,2.3-5,5C168.5,136.8,170.6,139.1,173.4,139.1
			L173.4,139.1z"/>
	</g>
</g>
<g>
	<g>
		<path class="st0" d="M193.3,135.7c2.6,0,5.1-2.3,5-5c-0.1-2.7-2.2-5-5-5c-2.6,0-5.1,2.3-5,5C188.4,133.4,190.5,135.7,193.3,135.7
			L193.3,135.7z"/>
	</g>
</g>
<g>
	<g>
		<path class="st0" d="M206.9,128.8c2.6,0,5.1-2.3,5-5c-0.1-2.7-2.2-5-5-5c-2.6,0-5.1,2.3-5,5C202,126.5,204.1,128.8,206.9,128.8
			L206.9,128.8z"/>
	</g>
</g>
<g>
	<g>
		<path class="st0" d="M205.4,137.9c2.6,0,5.1-2.3,5-5c-0.1-2.7-2.2-5-5-5c-2.6,0-5.1,2.3-5,5C200.5,135.6,202.6,137.9,205.4,137.9
			L205.4,137.9z"/>
	</g>
</g>
<g>
	<g>
		<path class="st0" d="M225.5,136.4c2.6,0,5.1-2.3,5-5c-0.1-2.7-2.2-5-5-5c-2.6,0-5.1,2.3-5,5C220.6,134.1,222.7,136.4,225.5,136.4
			L225.5,136.4z"/>
	</g>
</g>
<g>
	<g>
		<path class="st0" d="M239.1,129.5c2.6,0,5.1-2.3,5-5c-0.1-2.7-2.2-5-5-5c-2.6,0-5.1,2.3-5,5C234.2,127.2,236.2,129.5,239.1,129.5
			L239.1,129.5z"/>
	</g>
</g>
<g>
	<g>
		<path class="st0" d="M237.5,138.6c2.6,0,5.1-2.3,5-5c-0.1-2.7-2.2-5-5-5c-2.6,0-5.1,2.3-5,5C232.7,136.3,234.7,138.6,237.5,138.6
			L237.5,138.6z"/>
	</g>
</g>
<g>
	<g>
		<path class="st0" d="M254.3,136.4c2.6,0,5.1-2.3,5-5c-0.1-2.7-2.2-5-5-5c-2.6,0-5.1,2.3-5,5C249.4,134.1,251.5,136.4,254.3,136.4
			L254.3,136.4z"/>
	</g>
</g>
<g>
	<g>
		<path class="st0" d="M267.8,129.5c2.6,0,5.1-2.3,5-5c-0.1-2.7-2.2-5-5-5c-2.6,0-5.1,2.3-5,5C263,127.2,265,129.5,267.8,129.5
			L267.8,129.5z"/>
	</g>
</g>
<g>
	<g>
		<path class="st0" d="M266.3,138.6c2.6,0,5.1-2.3,5-5c-0.1-2.7-2.2-5-5-5c-2.6,0-5.1,2.3-5,5C261.5,136.3,263.5,138.6,266.3,138.6
			L266.3,138.6z"/>
	</g>
</g>
<g>
	<g>
		<path class="st0" d="M287.1,136.8c2.6,0,5.1-2.3,5-5c-0.1-2.7-2.2-5-5-5c-2.6,0-5.1,2.3-5,5C282.2,134.5,284.3,136.8,287.1,136.8
			L287.1,136.8z"/>
	</g>
</g>
<g>
	<g>
		<path class="st0" d="M300.2,129.9c2.6,0,5.1-2.3,5-5c-0.1-2.7-2.2-5-5-5c-2.6,0-5.1,2.3-5,5C295.3,127.6,297.4,129.9,300.2,129.9
			L300.2,129.9z"/>
	</g>
</g>
<g>
	<g>
		<path class="st0" d="M299.2,139.1c2.6,0,5.1-2.3,5-5c-0.1-2.7-2.2-5-5-5c-2.6,0-5.1,2.3-5,5C294.3,136.8,296.4,139.1,299.2,139.1
			L299.2,139.1z"/>
	</g>
</g>
<g>
	<g>
		<path class="st0" d="M-2.1,161.2c2.6,0,5.1-2.3,5-5c-0.1-2.7-2.2-5-5-5c-2.6,0-5.1,2.3-5,5C-7,158.9-4.9,161.2-2.1,161.2
			L-2.1,161.2z"/>
	</g>
</g>
<g>
	<g>
		<path class="st0" d="M11.9,154.3c2.6,0,5.1-2.3,5-5c-0.1-2.7-2.2-5-5-5c-2.6,0-5.1,2.3-5,5C7.1,152,9.1,154.3,11.9,154.3
			L11.9,154.3z"/>
	</g>
</g>
<g>
	<g>
		<path class="st0" d="M10.4,163.4c2.6,0,5.1-2.3,5-5c-0.1-2.7-2.2-5-5-5c-2.6,0-5.1,2.3-5,5C5.6,161.2,7.6,163.4,10.4,163.4
			L10.4,163.4z"/>
	</g>
</g>
<g>
	<g>
		<path class="st0" d="M31.2,161.7c2.6,0,5.1-2.3,5-5c-0.1-2.7-2.2-5-5-5c-2.6,0-5.1,2.3-5,5C26.3,159.4,28.4,161.7,31.2,161.7
			L31.2,161.7z"/>
	</g>
</g>
<g>
	<g>
		<path class="st0" d="M44.8,154.8c2.6,0,5.1-2.3,5-5c-0.1-2.7-2.2-5-5-5c-2.6,0-5.1,2.3-5,5C39.9,152.5,42,154.8,44.8,154.8
			L44.8,154.8z"/>
	</g>
</g>
<g>
	<g>
		<path class="st0" d="M43.3,163.9c2.6,0,5.1-2.3,5-5c-0.1-2.7-2.2-5-5-5c-2.6,0-5.1,2.3-5,5C38.4,161.6,40.5,163.9,43.3,163.9
			L43.3,163.9z"/>
	</g>
</g>
<g>
	<g>
		<path class="st0" d="M63.2,160.5c2.6,0,5.1-2.3,5-5c-0.1-2.7-2.2-5-5-5c-2.6,0-5.1,2.3-5,5C58.3,158.2,60.4,160.5,63.2,160.5
			L63.2,160.5z"/>
	</g>
</g>
<g>
	<g>
		<path class="st0" d="M76.7,153.6c2.6,0,5.1-2.3,5-5c-0.1-2.7-2.2-5-5-5c-2.6,0-5.1,2.3-5,5C71.9,151.3,73.9,153.6,76.7,153.6
			L76.7,153.6z"/>
	</g>
</g>
<g>
	<g>
		<path class="st0" d="M75.2,162.8c2.6,0,5.1-2.3,5-5c-0.1-2.7-2.2-5-5-5c-2.6,0-5.1,2.3-5,5C70.4,160.5,72.4,162.8,75.2,162.8
			L75.2,162.8z"/>
	</g>
</g>
<g>
	<g>
		<path class="st0" d="M95.3,161.2c2.6,0,5.1-2.3,5-5c-0.1-2.7-2.2-5-5-5c-2.6,0-5.1,2.3-5,5C90.5,158.9,92.5,161.2,95.3,161.2
			L95.3,161.2z"/>
	</g>
</g>
<g>
	<g>
		<path class="st0" d="M108.9,154.3c2.6,0,5.1-2.3,5-5c-0.1-2.7-2.2-5-5-5c-2.6,0-5.1,2.3-5,5C104,152,106.1,154.3,108.9,154.3
			L108.9,154.3z"/>
	</g>
</g>
<g>
	<g>
		<path class="st0" d="M107.4,163.4c2.6,0,5.1-2.3,5-5c-0.1-2.7-2.2-5-5-5c-2.6,0-5.1,2.3-5,5C102.5,161.2,104.6,163.4,107.4,163.4
			L107.4,163.4z"/>
	</g>
</g>
<g>
	<g>
		<path class="st0" d="M128.5,161.2c2.6,0,5.1-2.3,5-5c-0.1-2.7-2.2-5-5-5c-2.6,0-5.1,2.3-5,5C123.6,158.9,125.7,161.2,128.5,161.2
			L128.5,161.2z"/>
	</g>
</g>
<g>
	<g>
		<path class="st0" d="M142.1,154.3c2.6,0,5.1-2.3,5-5c-0.1-2.7-2.2-5-5-5c-2.6,0-5.1,2.3-5,5C137.2,152,139.3,154.3,142.1,154.3
			L142.1,154.3z"/>
	</g>
</g>
<g>
	<g>
		<path class="st0" d="M140.6,163.4c2.6,0,5.1-2.3,5-5c-0.1-2.7-2.2-5-5-5c-2.6,0-5.1,2.3-5,5C135.7,161.2,137.8,163.4,140.6,163.4
			L140.6,163.4z"/>
	</g>
</g>
<g>
	<g>
		<path class="st0" d="M161.3,161.7c2.6,0,5.1-2.3,5-5c-0.1-2.7-2.2-5-5-5c-2.6,0-5.1,2.3-5,5C156.4,159.4,158.5,161.7,161.3,161.7
			L161.3,161.7z"/>
	</g>
</g>
<g>
	<g>
		<path class="st0" d="M174.9,154.8c2.6,0,5.1-2.3,5-5c-0.1-2.7-2.2-5-5-5c-2.6,0-5.1,2.3-5,5C170,152.5,172.1,154.8,174.9,154.8
			L174.9,154.8z"/>
	</g>
</g>
<g>
	<g>
		<path class="st0" d="M173.4,163.9c2.6,0,5.1-2.3,5-5c-0.1-2.7-2.2-5-5-5c-2.6,0-5.1,2.3-5,5C168.5,161.6,170.6,163.9,173.4,163.9
			L173.4,163.9z"/>
	</g>
</g>
<g>
	<g>
		<path class="st0" d="M193.3,160.5c2.6,0,5.1-2.3,5-5c-0.1-2.7-2.2-5-5-5c-2.6,0-5.1,2.3-5,5C188.4,158.2,190.5,160.5,193.3,160.5
			L193.3,160.5z"/>
	</g>
</g>
<g>
	<g>
		<path class="st0" d="M206.9,153.6c2.6,0,5.1-2.3,5-5c-0.1-2.7-2.2-5-5-5c-2.6,0-5.1,2.3-5,5C202,151.3,204.1,153.6,206.9,153.6
			L206.9,153.6z"/>
	</g>
</g>
<g>
	<g>
		<path class="st0" d="M205.4,162.8c2.6,0,5.1-2.3,5-5c-0.1-2.7-2.2-5-5-5c-2.6,0-5.1,2.3-5,5C200.5,160.5,202.6,162.8,205.4,162.8
			L205.4,162.8z"/>
	</g>
</g>
<g>
	<g>
		<path class="st0" d="M225.5,161.2c2.6,0,5.1-2.3,5-5c-0.1-2.7-2.2-5-5-5c-2.6,0-5.1,2.3-5,5C220.6,158.9,222.7,161.2,225.5,161.2
			L225.5,161.2z"/>
	</g>
</g>
<g>
	<g>
		<path class="st0" d="M239.1,154.3c2.6,0,5.1-2.3,5-5c-0.1-2.7-2.2-5-5-5c-2.6,0-5.1,2.3-5,5C234.2,152,236.2,154.3,239.1,154.3
			L239.1,154.3z"/>
	</g>
</g>
<g>
	<g>
		<path class="st0" d="M237.5,163.4c2.6,0,5.1-2.3,5-5c-0.1-2.7-2.2-5-5-5c-2.6,0-5.1,2.3-5,5C232.7,161.2,234.7,163.4,237.5,163.4
			L237.5,163.4z"/>
	</g>
</g>
<g>
	<g>
		<path class="st0" d="M254.3,161.2c2.6,0,5.1-2.3,5-5c-0.1-2.7-2.2-5-5-5c-2.6,0-5.1,2.3-5,5C249.4,158.9,251.5,161.2,254.3,161.2
			L254.3,161.2z"/>
	</g>
</g>
<g>
	<g>
		<path class="st0" d="M267.8,154.3c2.6,0,5.1-2.3,5-5c-0.1-2.7-2.2-5-5-5c-2.6,0-5.1,2.3-5,5C263,152,265,154.3,267.8,154.3
			L267.8,154.3z"/>
	</g>
</g>
<g>
	<g>
		<path class="st0" d="M266.3,163.4c2.6,0,5.1-2.3,5-5c-0.1-2.7-2.2-5-5-5c-2.6,0-5.1,2.3-5,5C261.5,161.2,263.5,163.4,266.3,163.4
			L266.3,163.4z"/>
	</g>
</g>
<g>
	<g>
		<path class="st0" d="M287.1,161.7c2.6,0,5.1-2.3,5-5c-0.1-2.7-2.2-5-5-5c-2.6,0-5.1,2.3-5,5C282.2,159.4,284.3,161.7,287.1,161.7
			L287.1,161.7z"/>
	</g>
</g>
<g>
	<g>
		<path class="st0" d="M300.2,154.8c2.6,0,5.1-2.3,5-5c-0.1-2.7-2.2-5-5-5c-2.6,0-5.1,2.3-5,5C295.3,152.5,297.4,154.8,300.2,154.8
			L300.2,154.8z"/>
	</g>
</g>
<g>
	<g>
		<path class="st0" d="M299.2,163.9c2.6,0,5.1-2.3,5-5c-0.1-2.7-2.2-5-5-5c-2.6,0-5.1,2.3-5,5C294.3,161.6,296.4,163.9,299.2,163.9
			L299.2,163.9z"/>
	</g>
</g>
<g>
	<g>
		<path class="st0" d="M-3.7,185c2.6,0,5.1-2.3,5-5c-0.1-2.7-2.2-5-5-5c-2.6,0-5.1,2.3-5,5C-8.5,182.7-6.5,185-3.7,185L-3.7,185z"/>
	</g>
</g>
<g>
	<g>
		<path class="st0" d="M10.4,178.1c2.6,0,5.1-2.3,5-5c-0.1-2.7-2.2-5-5-5c-2.6,0-5.1,2.3-5,5C5.6,175.8,7.6,178.1,10.4,178.1
			L10.4,178.1z"/>
	</g>
</g>
<g>
	<g>
		<path class="st0" d="M8.9,187.2c2.6,0,5.1-2.3,5-5c-0.1-2.7-2.2-5-5-5c-2.6,0-5.1,2.3-5,5C4,184.9,6.1,187.2,8.9,187.2L8.9,187.2z
			"/>
	</g>
</g>
<g>
	<g>
		<path class="st0" d="M29.7,185.5c2.6,0,5.1-2.3,5-5c-0.1-2.7-2.2-5-5-5c-2.6,0-5.1,2.3-5,5C24.8,183.2,26.9,185.5,29.7,185.5
			L29.7,185.5z"/>
	</g>
</g>
<g>
	<g>
		<path class="st0" d="M43.3,178.6c2.6,0,5.1-2.3,5-5c-0.1-2.7-2.2-5-5-5c-2.6,0-5.1,2.3-5,5C38.4,176.3,40.5,178.6,43.3,178.6
			L43.3,178.6z"/>
	</g>
</g>
<g>
	<g>
		<path class="st0" d="M41.8,187.7c2.6,0,5.1-2.3,5-5c-0.1-2.7-2.2-5-5-5c-2.6,0-5.1,2.3-5,5C36.9,185.4,38.9,187.7,41.8,187.7
			L41.8,187.7z"/>
	</g>
</g>
<g>
	<g>
		<path class="st0" d="M61.7,184.3c2.6,0,5.1-2.3,5-5c-0.1-2.7-2.2-5-5-5c-2.6,0-5.1,2.3-5,5C56.8,182,58.9,184.3,61.7,184.3
			L61.7,184.3z"/>
	</g>
</g>
<g>
	<g>
		<path class="st0" d="M75.2,177.4c2.6,0,5.1-2.3,5-5c-0.1-2.7-2.2-5-5-5c-2.6,0-5.1,2.3-5,5C70.4,175.1,72.4,177.4,75.2,177.4
			L75.2,177.4z"/>
	</g>
</g>
<g>
	<g>
		<path class="st0" d="M73.7,186.6c2.6,0,5.1-2.3,5-5c-0.1-2.7-2.2-5-5-5c-2.6,0-5.1,2.3-5,5C68.8,184.3,70.9,186.6,73.7,186.6
			L73.7,186.6z"/>
	</g>
</g>
<g>
	<g>
		<path class="st0" d="M93.8,185c2.6,0,5.1-2.3,5-5c-0.1-2.7-2.2-5-5-5c-2.6,0-5.1,2.3-5,5C88.9,182.7,91,185,93.8,185L93.8,185z"/>
	</g>
</g>
<g>
	<g>
		<path class="st0" d="M107.4,178.1c2.6,0,5.1-2.3,5-5c-0.1-2.7-2.2-5-5-5c-2.6,0-5.1,2.3-5,5C102.5,175.8,104.6,178.1,107.4,178.1
			L107.4,178.1z"/>
	</g>
</g>
<g>
	<g>
		<path class="st0" d="M105.9,187.2c2.6,0,5.1-2.3,5-5c-0.1-2.7-2.2-5-5-5c-2.6,0-5.1,2.3-5,5C101,184.9,103.1,187.2,105.9,187.2
			L105.9,187.2z"/>
	</g>
</g>
<g>
	<g>
		<path class="st0" d="M127,185c2.6,0,5.1-2.3,5-5c-0.1-2.7-2.2-5-5-5c-2.6,0-5.1,2.3-5,5C122.1,182.7,124.2,185,127,185L127,185z"
			/>
	</g>
</g>
<g>
	<g>
		<path class="st0" d="M140.6,178.1c2.6,0,5.1-2.3,5-5c-0.1-2.7-2.2-5-5-5c-2.6,0-5.1,2.3-5,5C135.7,175.8,137.8,178.1,140.6,178.1
			L140.6,178.1z"/>
	</g>
</g>
<g>
	<g>
		<path class="st0" d="M139.1,187.2c2.6,0,5.1-2.3,5-5c-0.1-2.7-2.2-5-5-5c-2.6,0-5.1,2.3-5,5C134.2,184.9,136.3,187.2,139.1,187.2
			L139.1,187.2z"/>
	</g>
</g>
<g>
	<g>
		<path class="st0" d="M159.8,185.5c2.6,0,5.1-2.3,5-5c-0.1-2.7-2.2-5-5-5c-2.6,0-5.1,2.3-5,5C154.9,183.2,157,185.5,159.8,185.5
			L159.8,185.5z"/>
	</g>
</g>
<g>
	<g>
		<path class="st0" d="M173.4,178.6c2.6,0,5.1-2.3,5-5c-0.1-2.7-2.2-5-5-5c-2.6,0-5.1,2.3-5,5C168.5,176.3,170.6,178.6,173.4,178.6
			L173.4,178.6z"/>
	</g>
</g>
<g>
	<g>
		<path class="st0" d="M171.9,187.7c2.6,0,5.1-2.3,5-5c-0.1-2.7-2.2-5-5-5c-2.6,0-5.1,2.3-5,5C167,185.4,169.1,187.7,171.9,187.7
			L171.9,187.7z"/>
	</g>
</g>
<g>
	<g>
		<path class="st0" d="M191.8,184.3c2.6,0,5.1-2.3,5-5c-0.1-2.7-2.2-5-5-5c-2.6,0-5.1,2.3-5,5C186.9,182,189,184.3,191.8,184.3
			L191.8,184.3z"/>
	</g>
</g>
<g>
	<g>
		<path class="st0" d="M205.4,177.4c2.6,0,5.1-2.3,5-5c-0.1-2.7-2.2-5-5-5c-2.6,0-5.1,2.3-5,5C200.5,175.1,202.6,177.4,205.4,177.4
			L205.4,177.4z"/>
	</g>
</g>
<g>
	<g>
		<path class="st0" d="M203.9,186.6c2.6,0,5.1-2.3,5-5c-0.1-2.7-2.2-5-5-5c-2.6,0-5.1,2.3-5,5C199,184.3,201.1,186.6,203.9,186.6
			L203.9,186.6z"/>
	</g>
</g>
<g>
	<g>
		<path class="st0" d="M224,185c2.6,0,5.1-2.3,5-5c-0.1-2.7-2.2-5-5-5c-2.6,0-5.1,2.3-5,5C219.1,182.7,221.2,185,224,185L224,185z"
			/>
	</g>
</g>
<g>
	<g>
		<path class="st0" d="M237.5,178.1c2.6,0,5.1-2.3,5-5c-0.1-2.7-2.2-5-5-5c-2.6,0-5.1,2.3-5,5C232.7,175.8,234.7,178.1,237.5,178.1
			L237.5,178.1z"/>
	</g>
</g>
<g>
	<g>
		<path class="st0" d="M236,187.2c2.6,0,5.1-2.3,5-5c-0.1-2.7-2.2-5-5-5c-2.6,0-5.1,2.3-5,5C231.2,184.9,233.2,187.2,236,187.2
			L236,187.2z"/>
	</g>
</g>
<g>
	<g>
		<path class="st0" d="M252.8,185c2.6,0,5.1-2.3,5-5c-0.1-2.7-2.2-5-5-5c-2.6,0-5.1,2.3-5,5C247.9,182.7,250,185,252.8,185
			L252.8,185z"/>
	</g>
</g>
<g>
	<g>
		<path class="st0" d="M266.3,178.1c2.6,0,5.1-2.3,5-5c-0.1-2.7-2.2-5-5-5c-2.6,0-5.1,2.3-5,5C261.5,175.8,263.5,178.1,266.3,178.1
			L266.3,178.1z"/>
	</g>
</g>
<g>
	<g>
		<path class="st0" d="M264.8,187.2c2.6,0,5.1-2.3,5-5c-0.1-2.7-2.2-5-5-5c-2.6,0-5.1,2.3-5,5C259.9,184.9,262,187.2,264.8,187.2
			L264.8,187.2z"/>
	</g>
</g>
<g>
	<g>
		<path class="st0" d="M285.6,185.5c2.6,0,5.1-2.3,5-5c-0.1-2.7-2.2-5-5-5c-2.6,0-5.1,2.3-5,5C280.7,183.2,282.8,185.5,285.6,185.5
			L285.6,185.5z"/>
	</g>
</g>
<g>
	<g>
		<path class="st0" d="M299.2,178.6c2.6,0,5.1-2.3,5-5c-0.1-2.7-2.2-5-5-5c-2.6,0-5.1,2.3-5,5C294.3,176.3,296.4,178.6,299.2,178.6
			L299.2,178.6z"/>
	</g>
</g>
<g>
	<g>
		<path class="st0" d="M297.7,187.7c2.6,0,5.1-2.3,5-5c-0.1-2.7-2.2-5-5-5c-2.6,0-5.1,2.3-5,5C292.8,185.4,294.9,187.7,297.7,187.7
			L297.7,187.7z"/>
	</g>
</g>
<g>
	<g>
		<path class="st0" d="M-3.7,207c2.6,0,5.1-2.3,5-5c-0.1-2.7-2.2-5-5-5c-2.6,0-5.1,2.3-5,5C-8.5,204.7-6.5,207-3.7,207L-3.7,207z"/>
	</g>
</g>
<g>
	<g>
		<path class="st0" d="M10.4,200.1c2.6,0,5.1-2.3,5-5c-0.1-2.7-2.2-5-5-5c-2.6,0-5.1,2.3-5,5C5.6,197.8,7.6,200.1,10.4,200.1
			L10.4,200.1z"/>
	</g>
</g>
<g>
	<g>
		<path class="st0" d="M8.9,209.2c2.6,0,5.1-2.3,5-5c-0.1-2.7-2.2-5-5-5c-2.6,0-5.1,2.3-5,5C4,206.9,6.1,209.2,8.9,209.2L8.9,209.2z
			"/>
	</g>
</g>
<g>
	<g>
		<path class="st0" d="M29.7,207.5c2.6,0,5.1-2.3,5-5c-0.1-2.7-2.2-5-5-5c-2.6,0-5.1,2.3-5,5C24.8,205.2,26.9,207.5,29.7,207.5
			L29.7,207.5z"/>
	</g>
</g>
<g>
	<g>
		<path class="st0" d="M43.3,200.6c2.6,0,5.1-2.3,5-5c-0.1-2.7-2.2-5-5-5c-2.6,0-5.1,2.3-5,5C38.4,198.3,40.5,200.6,43.3,200.6
			L43.3,200.6z"/>
	</g>
</g>
<g>
	<g>
		<path class="st0" d="M41.8,209.7c2.6,0,5.1-2.3,5-5c-0.1-2.7-2.2-5-5-5c-2.6,0-5.1,2.3-5,5C36.9,207.4,38.9,209.7,41.8,209.7
			L41.8,209.7z"/>
	</g>
</g>
<g>
	<g>
		<path class="st0" d="M61.7,206.3c2.6,0,5.1-2.3,5-5c-0.1-2.7-2.2-5-5-5c-2.6,0-5.1,2.3-5,5C56.8,204,58.9,206.3,61.7,206.3
			L61.7,206.3z"/>
	</g>
</g>
<g>
	<g>
		<path class="st0" d="M75.2,199.4c2.6,0,5.1-2.3,5-5c-0.1-2.7-2.2-5-5-5c-2.6,0-5.1,2.3-5,5C70.4,197.1,72.4,199.4,75.2,199.4
			L75.2,199.4z"/>
	</g>
</g>
<g>
	<g>
		<path class="st0" d="M73.7,208.6c2.6,0,5.1-2.3,5-5c-0.1-2.7-2.2-5-5-5c-2.6,0-5.1,2.3-5,5C68.8,206.3,70.9,208.6,73.7,208.6
			L73.7,208.6z"/>
	</g>
</g>
<g>
	<g>
		<path class="st0" d="M93.8,207c2.6,0,5.1-2.3,5-5c-0.1-2.7-2.2-5-5-5c-2.6,0-5.1,2.3-5,5C88.9,204.7,91,207,93.8,207L93.8,207z"/>
	</g>
</g>
<g>
	<g>
		<path class="st0" d="M107.4,200.1c2.6,0,5.1-2.3,5-5c-0.1-2.7-2.2-5-5-5c-2.6,0-5.1,2.3-5,5C102.5,197.8,104.6,200.1,107.4,200.1
			L107.4,200.1z"/>
	</g>
</g>
<g>
	<g>
		<path class="st0" d="M105.9,209.2c2.6,0,5.1-2.3,5-5c-0.1-2.7-2.2-5-5-5c-2.6,0-5.1,2.3-5,5C101,206.9,103.1,209.2,105.9,209.2
			L105.9,209.2z"/>
	</g>
</g>
<g>
	<g>
		<path class="st0" d="M127,207c2.6,0,5.1-2.3,5-5c-0.1-2.7-2.2-5-5-5c-2.6,0-5.1,2.3-5,5C122.1,204.7,124.2,207,127,207L127,207z"
			/>
	</g>
</g>
<g>
	<g>
		<path class="st0" d="M140.6,200.1c2.6,0,5.1-2.3,5-5c-0.1-2.7-2.2-5-5-5c-2.6,0-5.1,2.3-5,5C135.7,197.8,137.8,200.1,140.6,200.1
			L140.6,200.1z"/>
	</g>
</g>
<g>
	<g>
		<path class="st0" d="M139.1,209.2c2.6,0,5.1-2.3,5-5c-0.1-2.7-2.2-5-5-5c-2.6,0-5.1,2.3-5,5C134.2,206.9,136.3,209.2,139.1,209.2
			L139.1,209.2z"/>
	</g>
</g>
<g>
	<g>
		<path class="st0" d="M159.8,207.5c2.6,0,5.1-2.3,5-5c-0.1-2.7-2.2-5-5-5c-2.6,0-5.1,2.3-5,5C154.9,205.2,157,207.5,159.8,207.5
			L159.8,207.5z"/>
	</g>
</g>
<g>
	<g>
		<path class="st0" d="M173.4,200.6c2.6,0,5.1-2.3,5-5c-0.1-2.7-2.2-5-5-5c-2.6,0-5.1,2.3-5,5C168.5,198.3,170.6,200.6,173.4,200.6
			L173.4,200.6z"/>
	</g>
</g>
<g>
	<g>
		<path class="st0" d="M171.9,209.7c2.6,0,5.1-2.3,5-5c-0.1-2.7-2.2-5-5-5c-2.6,0-5.1,2.3-5,5C167,207.4,169.1,209.7,171.9,209.7
			L171.9,209.7z"/>
	</g>
</g>
<g>
	<g>
		<path class="st0" d="M191.8,206.3c2.6,0,5.1-2.3,5-5c-0.1-2.7-2.2-5-5-5c-2.6,0-5.1,2.3-5,5C186.9,204,189,206.3,191.8,206.3
			L191.8,206.3z"/>
	</g>
</g>
<g>
	<g>
		<path class="st0" d="M205.4,199.4c2.6,0,5.1-2.3,5-5c-0.1-2.7-2.2-5-5-5c-2.6,0-5.1,2.3-5,5C200.5,197.1,202.6,199.4,205.4,199.4
			L205.4,199.4z"/>
	</g>
</g>
<g>
	<g>
		<path class="st0" d="M203.9,208.6c2.6,0,5.1-2.3,5-5c-0.1-2.7-2.2-5-5-5c-2.6,0-5.1,2.3-5,5C199,206.3,201.1,208.6,203.9,208.6
			L203.9,208.6z"/>
	</g>
</g>
<g>
	<g>
		<path class="st0" d="M224,207c2.6,0,5.1-2.3,5-5c-0.1-2.7-2.2-5-5-5c-2.6,0-5.1,2.3-5,5C219.1,204.7,221.2,207,224,207L224,207z"
			/>
	</g>
</g>
<g>
	<g>
		<path class="st0" d="M237.5,200.1c2.6,0,5.1-2.3,5-5c-0.1-2.7-2.2-5-5-5c-2.6,0-5.1,2.3-5,5C232.7,197.8,234.7,200.1,237.5,200.1
			L237.5,200.1z"/>
	</g>
</g>
<g>
	<g>
		<path class="st0" d="M236,209.2c2.6,0,5.1-2.3,5-5c-0.1-2.7-2.2-5-5-5c-2.6,0-5.1,2.3-5,5C231.2,206.9,233.2,209.2,236,209.2
			L236,209.2z"/>
	</g>
</g>
<g>
	<g>
		<path class="st0" d="M252.8,207c2.6,0,5.1-2.3,5-5c-0.1-2.7-2.2-5-5-5c-2.6,0-5.1,2.3-5,5C247.9,204.7,250,207,252.8,207
			L252.8,207z"/>
	</g>
</g>
<g>
	<g>
		<path class="st0" d="M266.3,200.1c2.6,0,5.1-2.3,5-5c-0.1-2.7-2.2-5-5-5c-2.6,0-5.1,2.3-5,5C261.5,197.8,263.5,200.1,266.3,200.1
			L266.3,200.1z"/>
	</g>
</g>
<g>
	<g>
		<path class="st0" d="M264.8,209.2c2.6,0,5.1-2.3,5-5c-0.1-2.7-2.2-5-5-5c-2.6,0-5.1,2.3-5,5C259.9,206.9,262,209.2,264.8,209.2
			L264.8,209.2z"/>
	</g>
</g>
<g>
	<g>
		<path class="st0" d="M285.6,207.5c2.6,0,5.1-2.3,5-5c-0.1-2.7-2.2-5-5-5c-2.6,0-5.1,2.3-5,5C280.7,205.2,282.8,207.5,285.6,207.5
			L285.6,207.5z"/>
	</g>
</g>
<g>
	<g>
		<path class="st0" d="M299.2,200.6c2.6,0,5.1-2.3,5-5c-0.1-2.7-2.2-5-5-5c-2.6,0-5.1,2.3-5,5C294.3,198.3,296.4,200.6,299.2,200.6
			L299.2,200.6z"/>
	</g>
</g>
<g>
	<g>
		<path class="st0" d="M297.7,209.7c2.6,0,5.1-2.3,5-5c-0.1-2.7-2.2-5-5-5c-2.6,0-5.1,2.3-5,5C292.8,207.4,294.9,209.7,297.7,209.7
			L297.7,209.7z"/>
	</g>
</g>
<g>
	<g>
		<path class="st0" d="M-3.7,230.1c2.6,0,5.1-2.3,5-5c-0.1-2.7-2.2-5-5-5c-2.6,0-5.1,2.3-5,5C-8.5,227.8-6.5,230.1-3.7,230.1
			L-3.7,230.1z"/>
	</g>
</g>
<g>
	<g>
		<path class="st0" d="M10.4,223.2c2.6,0,5.1-2.3,5-5c-0.1-2.7-2.2-5-5-5c-2.6,0-5.1,2.3-5,5C5.6,221,7.6,223.2,10.4,223.2
			L10.4,223.2z"/>
	</g>
</g>
<g>
	<g>
		<path class="st0" d="M8.9,232.4c2.6,0,5.1-2.3,5-5c-0.1-2.7-2.2-5-5-5c-2.6,0-5.1,2.3-5,5C4,230.1,6.1,232.4,8.9,232.4L8.9,232.4z
			"/>
	</g>
</g>
<g>
	<g>
		<path class="st0" d="M29.7,230.6c2.6,0,5.1-2.3,5-5c-0.1-2.7-2.2-5-5-5c-2.6,0-5.1,2.3-5,5C24.8,228.3,26.9,230.6,29.7,230.6
			L29.7,230.6z"/>
	</g>
</g>
<g>
	<g>
		<path class="st0" d="M43.3,223.7c2.6,0,5.1-2.3,5-5c-0.1-2.7-2.2-5-5-5c-2.6,0-5.1,2.3-5,5C38.4,221.4,40.5,223.7,43.3,223.7
			L43.3,223.7z"/>
	</g>
</g>
<g>
	<g>
		<path class="st0" d="M41.8,232.9c2.6,0,5.1-2.3,5-5c-0.1-2.7-2.2-5-5-5c-2.6,0-5.1,2.3-5,5C36.9,230.6,38.9,232.9,41.8,232.9
			L41.8,232.9z"/>
	</g>
</g>
<g>
	<g>
		<path class="st0" d="M61.7,229.5c2.6,0,5.1-2.3,5-5c-0.1-2.7-2.2-5-5-5c-2.6,0-5.1,2.3-5,5C56.8,227.2,58.9,229.5,61.7,229.5
			L61.7,229.5z"/>
	</g>
</g>
<g>
	<g>
		<path class="st0" d="M75.2,222.6c2.6,0,5.1-2.3,5-5c-0.1-2.7-2.2-5-5-5c-2.6,0-5.1,2.3-5,5C70.4,220.3,72.4,222.6,75.2,222.6
			L75.2,222.6z"/>
	</g>
</g>
<g>
	<g>
		<path class="st0" d="M73.7,231.7c2.6,0,5.1-2.3,5-5c-0.1-2.7-2.2-5-5-5c-2.6,0-5.1,2.3-5,5C68.8,229.4,70.9,231.7,73.7,231.7
			L73.7,231.7z"/>
	</g>
</g>
<g>
	<g>
		<path class="st0" d="M93.8,230.1c2.6,0,5.1-2.3,5-5c-0.1-2.7-2.2-5-5-5c-2.6,0-5.1,2.3-5,5C88.9,227.8,91,230.1,93.8,230.1
			L93.8,230.1z"/>
	</g>
</g>
<g>
	<g>
		<path class="st0" d="M107.4,223.2c2.6,0,5.1-2.3,5-5c-0.1-2.7-2.2-5-5-5c-2.6,0-5.1,2.3-5,5C102.5,221,104.6,223.2,107.4,223.2
			L107.4,223.2z"/>
	</g>
</g>
<g>
	<g>
		<path class="st0" d="M105.9,232.4c2.6,0,5.1-2.3,5-5c-0.1-2.7-2.2-5-5-5c-2.6,0-5.1,2.3-5,5C101,230.1,103.1,232.4,105.9,232.4
			L105.9,232.4z"/>
	</g>
</g>
<g>
	<g>
		<path class="st0" d="M127,230.1c2.6,0,5.1-2.3,5-5c-0.1-2.7-2.2-5-5-5c-2.6,0-5.1,2.3-5,5C122.1,227.8,124.2,230.1,127,230.1
			L127,230.1z"/>
	</g>
</g>
<g>
	<g>
		<path class="st0" d="M140.6,223.2c2.6,0,5.1-2.3,5-5c-0.1-2.7-2.2-5-5-5c-2.6,0-5.1,2.3-5,5C135.7,221,137.8,223.2,140.6,223.2
			L140.6,223.2z"/>
	</g>
</g>
<g>
	<g>
		<path class="st0" d="M139.1,232.4c2.6,0,5.1-2.3,5-5c-0.1-2.7-2.2-5-5-5c-2.6,0-5.1,2.3-5,5C134.2,230.1,136.3,232.4,139.1,232.4
			L139.1,232.4z"/>
	</g>
</g>
<g>
	<g>
		<path class="st0" d="M159.8,230.6c2.6,0,5.1-2.3,5-5c-0.1-2.7-2.2-5-5-5c-2.6,0-5.1,2.3-5,5C154.9,228.3,157,230.6,159.8,230.6
			L159.8,230.6z"/>
	</g>
</g>
<g>
	<g>
		<path class="st0" d="M173.4,223.7c2.6,0,5.1-2.3,5-5c-0.1-2.7-2.2-5-5-5c-2.6,0-5.1,2.3-5,5C168.5,221.4,170.6,223.7,173.4,223.7
			L173.4,223.7z"/>
	</g>
</g>
<g>
	<g>
		<path class="st0" d="M171.9,232.9c2.6,0,5.1-2.3,5-5c-0.1-2.7-2.2-5-5-5c-2.6,0-5.1,2.3-5,5C167,230.6,169.1,232.9,171.9,232.9
			L171.9,232.9z"/>
	</g>
</g>
<g>
	<g>
		<path class="st0" d="M191.8,229.5c2.6,0,5.1-2.3,5-5c-0.1-2.7-2.2-5-5-5c-2.6,0-5.1,2.3-5,5C186.9,227.2,189,229.5,191.8,229.5
			L191.8,229.5z"/>
	</g>
</g>
<g>
	<g>
		<path class="st0" d="M205.4,222.6c2.6,0,5.1-2.3,5-5c-0.1-2.7-2.2-5-5-5c-2.6,0-5.1,2.3-5,5C200.5,220.3,202.6,222.6,205.4,222.6
			L205.4,222.6z"/>
	</g>
</g>
<g>
	<g>
		<path class="st0" d="M203.9,231.7c2.6,0,5.1-2.3,5-5c-0.1-2.7-2.2-5-5-5c-2.6,0-5.1,2.3-5,5C199,229.4,201.1,231.7,203.9,231.7
			L203.9,231.7z"/>
	</g>
</g>
<g>
	<g>
		<path class="st0" d="M224,230.1c2.6,0,5.1-2.3,5-5c-0.1-2.7-2.2-5-5-5c-2.6,0-5.1,2.3-5,5C219.1,227.8,221.2,230.1,224,230.1
			L224,230.1z"/>
	</g>
</g>
<g>
	<g>
		<path class="st0" d="M237.5,223.2c2.6,0,5.1-2.3,5-5c-0.1-2.7-2.2-5-5-5c-2.6,0-5.1,2.3-5,5C232.7,221,234.7,223.2,237.5,223.2
			L237.5,223.2z"/>
	</g>
</g>
<g>
	<g>
		<path class="st0" d="M236,232.4c2.6,0,5.1-2.3,5-5c-0.1-2.7-2.2-5-5-5c-2.6,0-5.1,2.3-5,5C231.2,230.1,233.2,232.4,236,232.4
			L236,232.4z"/>
	</g>
</g>
<g>
	<g>
		<path class="st0" d="M252.8,230.1c2.6,0,5.1-2.3,5-5c-0.1-2.7-2.2-5-5-5c-2.6,0-5.1,2.3-5,5C247.9,227.8,250,230.1,252.8,230.1
			L252.8,230.1z"/>
	</g>
</g>
<g>
	<g>
		<path class="st0" d="M266.3,223.2c2.6,0,5.1-2.3,5-5c-0.1-2.7-2.2-5-5-5c-2.6,0-5.1,2.3-5,5C261.5,221,263.5,223.2,266.3,223.2
			L266.3,223.2z"/>
	</g>
</g>
<g>
	<g>
		<path class="st0" d="M264.8,232.4c2.6,0,5.1-2.3,5-5c-0.1-2.7-2.2-5-5-5c-2.6,0-5.1,2.3-5,5C259.9,230.1,262,232.4,264.8,232.4
			L264.8,232.4z"/>
	</g>
</g>
<g>
	<g>
		<path class="st0" d="M285.6,230.6c2.6,0,5.1-2.3,5-5c-0.1-2.7-2.2-5-5-5c-2.6,0-5.1,2.3-5,5C280.7,228.3,282.8,230.6,285.6,230.6
			L285.6,230.6z"/>
	</g>
</g>
<g>
	<g>
		<path class="st0" d="M299.2,223.7c2.6,0,5.1-2.3,5-5c-0.1-2.7-2.2-5-5-5c-2.6,0-5.1,2.3-5,5C294.3,221.4,296.4,223.7,299.2,223.7
			L299.2,223.7z"/>
	</g>
</g>
<g>
	<g>
		<path class="st0" d="M297.7,232.9c2.6,0,5.1-2.3,5-5c-0.1-2.7-2.2-5-5-5c-2.6,0-5.1,2.3-5,5C292.8,230.6,294.9,232.9,297.7,232.9
			L297.7,232.9z"/>
	</g>
</g>
<g>
	<g>
		<path class="st0" d="M-3.7,252.9c2.6,0,5.1-2.3,5-5c-0.1-2.7-2.2-5-5-5c-2.6,0-5.1,2.3-5,5C-8.5,250.6-6.5,252.9-3.7,252.9
			L-3.7,252.9z"/>
	</g>
</g>
<g>
	<g>
		<path class="st0" d="M10.4,246c2.6,0,5.1-2.3,5-5c-0.1-2.7-2.2-5-5-5c-2.6,0-5.1,2.3-5,5C5.6,243.7,7.6,246,10.4,246L10.4,246z"/>
	</g>
</g>
<g>
	<g>
		<path class="st0" d="M8.9,255.2c2.6,0,5.1-2.3,5-5c-0.1-2.7-2.2-5-5-5c-2.6,0-5.1,2.3-5,5C4,252.9,6.1,255.2,8.9,255.2L8.9,255.2z
			"/>
	</g>
</g>
<g>
	<g>
		<path class="st0" d="M29.7,253.4c2.6,0,5.1-2.3,5-5c-0.1-2.7-2.2-5-5-5c-2.6,0-5.1,2.3-5,5C24.8,251.1,26.9,253.4,29.7,253.4
			L29.7,253.4z"/>
	</g>
</g>
<g>
	<g>
		<path class="st0" d="M43.3,246.5c2.6,0,5.1-2.3,5-5c-0.1-2.7-2.2-5-5-5c-2.6,0-5.1,2.3-5,5C38.4,244.2,40.5,246.5,43.3,246.5
			L43.3,246.5z"/>
	</g>
</g>
<g>
	<g>
		<path class="st0" d="M41.8,255.6c2.6,0,5.1-2.3,5-5c-0.1-2.7-2.2-5-5-5c-2.6,0-5.1,2.3-5,5C36.9,253.3,38.9,255.6,41.8,255.6
			L41.8,255.6z"/>
	</g>
</g>
<g>
	<g>
		<path class="st0" d="M61.7,252.2c2.6,0,5.1-2.3,5-5c-0.1-2.7-2.2-5-5-5c-2.6,0-5.1,2.3-5,5C56.8,249.9,58.9,252.2,61.7,252.2
			L61.7,252.2z"/>
	</g>
</g>
<g>
	<g>
		<path class="st0" d="M75.2,245.3c2.6,0,5.1-2.3,5-5c-0.1-2.7-2.2-5-5-5c-2.6,0-5.1,2.3-5,5C70.4,243,72.4,245.3,75.2,245.3
			L75.2,245.3z"/>
	</g>
</g>
<g>
	<g>
		<path class="st0" d="M73.7,254.5c2.6,0,5.1-2.3,5-5c-0.1-2.7-2.2-5-5-5c-2.6,0-5.1,2.3-5,5C68.8,252.2,70.9,254.5,73.7,254.5
			L73.7,254.5z"/>
	</g>
</g>
<g>
	<g>
		<path class="st0" d="M93.8,252.9c2.6,0,5.1-2.3,5-5c-0.1-2.7-2.2-5-5-5c-2.6,0-5.1,2.3-5,5C88.9,250.6,91,252.9,93.8,252.9
			L93.8,252.9z"/>
	</g>
</g>
<g>
	<g>
		<path class="st0" d="M107.4,246c2.6,0,5.1-2.3,5-5c-0.1-2.7-2.2-5-5-5c-2.6,0-5.1,2.3-5,5C102.5,243.7,104.6,246,107.4,246
			L107.4,246z"/>
	</g>
</g>
<g>
	<g>
		<path class="st0" d="M105.9,255.2c2.6,0,5.1-2.3,5-5c-0.1-2.7-2.2-5-5-5c-2.6,0-5.1,2.3-5,5C101,252.9,103.1,255.2,105.9,255.2
			L105.9,255.2z"/>
	</g>
</g>
<g>
	<g>
		<path class="st0" d="M127,252.9c2.6,0,5.1-2.3,5-5c-0.1-2.7-2.2-5-5-5c-2.6,0-5.1,2.3-5,5C122.1,250.6,124.2,252.9,127,252.9
			L127,252.9z"/>
	</g>
</g>
<g>
	<g>
		<path class="st0" d="M140.6,246c2.6,0,5.1-2.3,5-5c-0.1-2.7-2.2-5-5-5c-2.6,0-5.1,2.3-5,5C135.7,243.7,137.8,246,140.6,246
			L140.6,246z"/>
	</g>
</g>
<g>
	<g>
		<path class="st0" d="M139.1,255.2c2.6,0,5.1-2.3,5-5c-0.1-2.7-2.2-5-5-5c-2.6,0-5.1,2.3-5,5C134.2,252.9,136.3,255.2,139.1,255.2
			L139.1,255.2z"/>
	</g>
</g>
<g>
	<g>
		<path class="st0" d="M159.8,253.4c2.6,0,5.1-2.3,5-5c-0.1-2.7-2.2-5-5-5c-2.6,0-5.1,2.3-5,5C154.9,251.1,157,253.4,159.8,253.4
			L159.8,253.4z"/>
	</g>
</g>
<g>
	<g>
		<path class="st0" d="M173.4,246.5c2.6,0,5.1-2.3,5-5c-0.1-2.7-2.2-5-5-5c-2.6,0-5.1,2.3-5,5C168.5,244.2,170.6,246.5,173.4,246.5
			L173.4,246.5z"/>
	</g>
</g>
<g>
	<g>
		<path class="st0" d="M171.9,255.6c2.6,0,5.1-2.3,5-5c-0.1-2.7-2.2-5-5-5c-2.6,0-5.1,2.3-5,5C167,253.3,169.1,255.6,171.9,255.6
			L171.9,255.6z"/>
	</g>
</g>
<g>
	<g>
		<path class="st0" d="M191.8,252.2c2.6,0,5.1-2.3,5-5c-0.1-2.7-2.2-5-5-5c-2.6,0-5.1,2.3-5,5C186.9,249.9,189,252.2,191.8,252.2
			L191.8,252.2z"/>
	</g>
</g>
<g>
	<g>
		<path class="st0" d="M205.4,245.3c2.6,0,5.1-2.3,5-5c-0.1-2.7-2.2-5-5-5c-2.6,0-5.1,2.3-5,5C200.5,243,202.6,245.3,205.4,245.3
			L205.4,245.3z"/>
	</g>
</g>
<g>
	<g>
		<path class="st0" d="M203.9,254.5c2.6,0,5.1-2.3,5-5c-0.1-2.7-2.2-5-5-5c-2.6,0-5.1,2.3-5,5C199,252.2,201.1,254.5,203.9,254.5
			L203.9,254.5z"/>
	</g>
</g>
<g>
	<g>
		<path class="st0" d="M224,252.9c2.6,0,5.1-2.3,5-5c-0.1-2.7-2.2-5-5-5c-2.6,0-5.1,2.3-5,5C219.1,250.6,221.2,252.9,224,252.9
			L224,252.9z"/>
	</g>
</g>
<g>
	<g>
		<path class="st0" d="M237.5,246c2.6,0,5.1-2.3,5-5c-0.1-2.7-2.2-5-5-5c-2.6,0-5.1,2.3-5,5C232.7,243.7,234.7,246,237.5,246
			L237.5,246z"/>
	</g>
</g>
<g>
	<g>
		<path class="st0" d="M236,255.2c2.6,0,5.1-2.3,5-5c-0.1-2.7-2.2-5-5-5c-2.6,0-5.1,2.3-5,5C231.2,252.9,233.2,255.2,236,255.2
			L236,255.2z"/>
	</g>
</g>
<g>
	<g>
		<path class="st0" d="M252.8,252.9c2.6,0,5.1-2.3,5-5c-0.1-2.7-2.2-5-5-5c-2.6,0-5.1,2.3-5,5C247.9,250.6,250,252.9,252.8,252.9
			L252.8,252.9z"/>
	</g>
</g>
<g>
	<g>
		<path class="st0" d="M266.3,246c2.6,0,5.1-2.3,5-5c-0.1-2.7-2.2-5-5-5c-2.6,0-5.1,2.3-5,5C261.5,243.7,263.5,246,266.3,246
			L266.3,246z"/>
	</g>
</g>
<g>
	<g>
		<path class="st0" d="M264.8,255.2c2.6,0,5.1-2.3,5-5c-0.1-2.7-2.2-5-5-5c-2.6,0-5.1,2.3-5,5C259.9,252.9,262,255.2,264.8,255.2
			L264.8,255.2z"/>
	</g>
</g>
<g>
	<g>
		<path class="st0" d="M285.6,253.4c2.6,0,5.1-2.3,5-5c-0.1-2.7-2.2-5-5-5c-2.6,0-5.1,2.3-5,5C280.7,251.1,282.8,253.4,285.6,253.4
			L285.6,253.4z"/>
	</g>
</g>
<g>
	<g>
		<path class="st0" d="M299.2,246.5c2.6,0,5.1-2.3,5-5c-0.1-2.7-2.2-5-5-5c-2.6,0-5.1,2.3-5,5C294.3,244.2,296.4,246.5,299.2,246.5
			L299.2,246.5z"/>
	</g>
</g>
<g>
	<g>
		<path class="st0" d="M297.7,255.6c2.6,0,5.1-2.3,5-5c-0.1-2.7-2.2-5-5-5c-2.6,0-5.1,2.3-5,5C292.8,253.3,294.9,255.6,297.7,255.6
			L297.7,255.6z"/>
	</g>
</g>
<g>
	<g>
		<path class="st0" d="M-3.7,273.1c2.6,0,5.1-2.3,5-5c-0.1-2.7-2.2-5-5-5c-2.6,0-5.1,2.3-5,5C-8.5,270.8-6.5,273.1-3.7,273.1
			L-3.7,273.1z"/>
	</g>
</g>
<g>
	<g>
		<path class="st0" d="M10.4,266.2c2.6,0,5.1-2.3,5-5c-0.1-2.7-2.2-5-5-5c-2.6,0-5.1,2.3-5,5C5.6,263.9,7.6,266.2,10.4,266.2
			L10.4,266.2z"/>
	</g>
</g>
<g>
	<g>
		<path class="st0" d="M8.9,275.4c2.6,0,5.1-2.3,5-5c-0.1-2.7-2.2-5-5-5c-2.6,0-5.1,2.3-5,5C4,273.1,6.1,275.4,8.9,275.4L8.9,275.4z
			"/>
	</g>
</g>
<g>
	<g>
		<path class="st0" d="M29.7,273.6c2.6,0,5.1-2.3,5-5c-0.1-2.7-2.2-5-5-5c-2.6,0-5.1,2.3-5,5C24.8,271.3,26.9,273.6,29.7,273.6
			L29.7,273.6z"/>
	</g>
</g>
<g>
	<g>
		<path class="st0" d="M43.3,266.7c2.6,0,5.1-2.3,5-5c-0.1-2.7-2.2-5-5-5c-2.6,0-5.1,2.3-5,5C38.4,264.4,40.5,266.7,43.3,266.7
			L43.3,266.7z"/>
	</g>
</g>
<g>
	<g>
		<path class="st0" d="M41.8,275.9c2.6,0,5.1-2.3,5-5c-0.1-2.7-2.2-5-5-5c-2.6,0-5.1,2.3-5,5C36.9,273.6,38.9,275.9,41.8,275.9
			L41.8,275.9z"/>
	</g>
</g>
<g>
	<g>
		<path class="st0" d="M61.7,272.5c2.6,0,5.1-2.3,5-5c-0.1-2.7-2.2-5-5-5c-2.6,0-5.1,2.3-5,5C56.8,270.2,58.9,272.5,61.7,272.5
			L61.7,272.5z"/>
	</g>
</g>
<g>
	<g>
		<path class="st0" d="M75.2,265.6c2.6,0,5.1-2.3,5-5c-0.1-2.7-2.2-5-5-5c-2.6,0-5.1,2.3-5,5C70.4,263.3,72.4,265.6,75.2,265.6
			L75.2,265.6z"/>
	</g>
</g>
<g>
	<g>
		<path class="st0" d="M73.7,274.7c2.6,0,5.1-2.3,5-5c-0.1-2.7-2.2-5-5-5c-2.6,0-5.1,2.3-5,5C68.8,272.4,70.9,274.7,73.7,274.7
			L73.7,274.7z"/>
	</g>
</g>
<g>
	<g>
		<path class="st0" d="M93.8,273.1c2.6,0,5.1-2.3,5-5c-0.1-2.7-2.2-5-5-5c-2.6,0-5.1,2.3-5,5C88.9,270.8,91,273.1,93.8,273.1
			L93.8,273.1z"/>
	</g>
</g>
<g>
	<g>
		<path class="st0" d="M107.4,266.2c2.6,0,5.1-2.3,5-5c-0.1-2.7-2.2-5-5-5c-2.6,0-5.1,2.3-5,5C102.5,263.9,104.6,266.2,107.4,266.2
			L107.4,266.2z"/>
	</g>
</g>
<g>
	<g>
		<path class="st0" d="M105.9,275.4c2.6,0,5.1-2.3,5-5c-0.1-2.7-2.2-5-5-5c-2.6,0-5.1,2.3-5,5C101,273.1,103.1,275.4,105.9,275.4
			L105.9,275.4z"/>
	</g>
</g>
<g>
	<g>
		<path class="st0" d="M127,273.1c2.6,0,5.1-2.3,5-5c-0.1-2.7-2.2-5-5-5c-2.6,0-5.1,2.3-5,5C122.1,270.8,124.2,273.1,127,273.1
			L127,273.1z"/>
	</g>
</g>
<g>
	<g>
		<path class="st0" d="M140.6,266.2c2.6,0,5.1-2.3,5-5c-0.1-2.7-2.2-5-5-5c-2.6,0-5.1,2.3-5,5C135.7,263.9,137.8,266.2,140.6,266.2
			L140.6,266.2z"/>
	</g>
</g>
<g>
	<g>
		<path class="st0" d="M139.1,275.4c2.6,0,5.1-2.3,5-5c-0.1-2.7-2.2-5-5-5c-2.6,0-5.1,2.3-5,5C134.2,273.1,136.3,275.4,139.1,275.4
			L139.1,275.4z"/>
	</g>
</g>
<g>
	<g>
		<path class="st0" d="M159.8,273.6c2.6,0,5.1-2.3,5-5c-0.1-2.7-2.2-5-5-5c-2.6,0-5.1,2.3-5,5C154.9,271.3,157,273.6,159.8,273.6
			L159.8,273.6z"/>
	</g>
</g>
<g>
	<g>
		<path class="st0" d="M173.4,266.7c2.6,0,5.1-2.3,5-5c-0.1-2.7-2.2-5-5-5c-2.6,0-5.1,2.3-5,5C168.5,264.4,170.6,266.7,173.4,266.7
			L173.4,266.7z"/>
	</g>
</g>
<g>
	<g>
		<path class="st0" d="M171.9,275.9c2.6,0,5.1-2.3,5-5c-0.1-2.7-2.2-5-5-5c-2.6,0-5.1,2.3-5,5C167,273.6,169.1,275.9,171.9,275.9
			L171.9,275.9z"/>
	</g>
</g>
<g>
	<g>
		<path class="st0" d="M191.8,272.5c2.6,0,5.1-2.3,5-5c-0.1-2.7-2.2-5-5-5c-2.6,0-5.1,2.3-5,5C186.9,270.2,189,272.5,191.8,272.5
			L191.8,272.5z"/>
	</g>
</g>
<g>
	<g>
		<path class="st0" d="M205.4,265.6c2.6,0,5.1-2.3,5-5c-0.1-2.7-2.2-5-5-5c-2.6,0-5.1,2.3-5,5C200.5,263.3,202.6,265.6,205.4,265.6
			L205.4,265.6z"/>
	</g>
</g>
<g>
	<g>
		<path class="st0" d="M203.9,274.7c2.6,0,5.1-2.3,5-5c-0.1-2.7-2.2-5-5-5c-2.6,0-5.1,2.3-5,5C199,272.4,201.1,274.7,203.9,274.7
			L203.9,274.7z"/>
	</g>
</g>
<g>
	<g>
		<path class="st0" d="M224,273.1c2.6,0,5.1-2.3,5-5c-0.1-2.7-2.2-5-5-5c-2.6,0-5.1,2.3-5,5C219.1,270.8,221.2,273.1,224,273.1
			L224,273.1z"/>
	</g>
</g>
<g>
	<g>
		<path class="st0" d="M237.5,266.2c2.6,0,5.1-2.3,5-5c-0.1-2.7-2.2-5-5-5c-2.6,0-5.1,2.3-5,5C232.7,263.9,234.7,266.2,237.5,266.2
			L237.5,266.2z"/>
	</g>
</g>
<g>
	<g>
		<path class="st0" d="M236,275.4c2.6,0,5.1-2.3,5-5c-0.1-2.7-2.2-5-5-5c-2.6,0-5.1,2.3-5,5C231.2,273.1,233.2,275.4,236,275.4
			L236,275.4z"/>
	</g>
</g>
<g>
	<g>
		<path class="st0" d="M252.8,273.1c2.6,0,5.1-2.3,5-5c-0.1-2.7-2.2-5-5-5c-2.6,0-5.1,2.3-5,5C247.9,270.8,250,273.1,252.8,273.1
			L252.8,273.1z"/>
	</g>
</g>
<g>
	<g>
		<path class="st0" d="M266.3,266.2c2.6,0,5.1-2.3,5-5c-0.1-2.7-2.2-5-5-5c-2.6,0-5.1,2.3-5,5C261.5,263.9,263.5,266.2,266.3,266.2
			L266.3,266.2z"/>
	</g>
</g>
<g>
	<g>
		<path class="st0" d="M264.8,275.4c2.6,0,5.1-2.3,5-5c-0.1-2.7-2.2-5-5-5c-2.6,0-5.1,2.3-5,5C259.9,273.1,262,275.4,264.8,275.4
			L264.8,275.4z"/>
	</g>
</g>
<g>
	<g>
		<path class="st0" d="M285.6,273.6c2.6,0,5.1-2.3,5-5c-0.1-2.7-2.2-5-5-5c-2.6,0-5.1,2.3-5,5C280.7,271.3,282.8,273.6,285.6,273.6
			L285.6,273.6z"/>
	</g>
</g>
<g>
	<g>
		<path class="st0" d="M299.2,266.7c2.6,0,5.1-2.3,5-5c-0.1-2.7-2.2-5-5-5c-2.6,0-5.1,2.3-5,5C294.3,264.4,296.4,266.7,299.2,266.7
			L299.2,266.7z"/>
	</g>
</g>
<g>
	<g>
		<path class="st0" d="M297.7,275.9c2.6,0,5.1-2.3,5-5c-0.1-2.7-2.2-5-5-5c-2.6,0-5.1,2.3-5,5C292.8,273.6,294.9,275.9,297.7,275.9
			L297.7,275.9z"/>
	</g>
</g>
<g>
	<g>
		<path class="st0" d="M-3.7,294.2c2.6,0,5.1-2.3,5-5c-0.1-2.7-2.2-5-5-5c-2.6,0-5.1,2.3-5,5C-8.5,291.9-6.5,294.2-3.7,294.2
			L-3.7,294.2z"/>
	</g>
</g>
<g>
	<g>
		<path class="st0" d="M10.4,287.3c2.6,0,5.1-2.3,5-5c-0.1-2.7-2.2-5-5-5c-2.6,0-5.1,2.3-5,5C5.6,285,7.6,287.3,10.4,287.3
			L10.4,287.3z"/>
	</g>
</g>
<g>
	<g>
		<path class="st0" d="M8.9,296.4c2.6,0,5.1-2.3,5-5c-0.1-2.7-2.2-5-5-5c-2.6,0-5.1,2.3-5,5C4,294.1,6.1,296.4,8.9,296.4L8.9,296.4z
			"/>
	</g>
</g>
<g>
	<g>
		<path class="st0" d="M29.7,294.7c2.6,0,5.1-2.3,5-5c-0.1-2.7-2.2-5-5-5c-2.6,0-5.1,2.3-5,5C24.8,292.4,26.9,294.7,29.7,294.7
			L29.7,294.7z"/>
	</g>
</g>
<g>
	<g>
		<path class="st0" d="M43.3,287.8c2.6,0,5.1-2.3,5-5c-0.1-2.7-2.2-5-5-5c-2.6,0-5.1,2.3-5,5C38.4,285.5,40.5,287.8,43.3,287.8
			L43.3,287.8z"/>
	</g>
</g>
<g>
	<g>
		<path class="st0" d="M41.8,296.9c2.6,0,5.1-2.3,5-5c-0.1-2.7-2.2-5-5-5c-2.6,0-5.1,2.3-5,5C36.9,294.6,38.9,296.9,41.8,296.9
			L41.8,296.9z"/>
	</g>
</g>
<g>
	<g>
		<path class="st0" d="M61.7,293.5c2.6,0,5.1-2.3,5-5c-0.1-2.7-2.2-5-5-5c-2.6,0-5.1,2.3-5,5C56.8,291.2,58.9,293.5,61.7,293.5
			L61.7,293.5z"/>
	</g>
</g>
<g>
	<g>
		<path class="st0" d="M75.2,286.6c2.6,0,5.1-2.3,5-5c-0.1-2.7-2.2-5-5-5c-2.6,0-5.1,2.3-5,5C70.4,284.3,72.4,286.6,75.2,286.6
			L75.2,286.6z"/>
	</g>
</g>
<g>
	<g>
		<path class="st0" d="M73.7,295.8c2.6,0,5.1-2.3,5-5c-0.1-2.7-2.2-5-5-5c-2.6,0-5.1,2.3-5,5C68.8,293.5,70.9,295.8,73.7,295.8
			L73.7,295.8z"/>
	</g>
</g>
<g>
	<g>
		<path class="st0" d="M93.8,294.2c2.6,0,5.1-2.3,5-5c-0.1-2.7-2.2-5-5-5c-2.6,0-5.1,2.3-5,5C88.9,291.9,91,294.2,93.8,294.2
			L93.8,294.2z"/>
	</g>
</g>
<g>
	<g>
		<path class="st0" d="M107.4,287.3c2.6,0,5.1-2.3,5-5c-0.1-2.7-2.2-5-5-5c-2.6,0-5.1,2.3-5,5C102.5,285,104.6,287.3,107.4,287.3
			L107.4,287.3z"/>
	</g>
</g>
<g>
	<g>
		<path class="st0" d="M105.9,296.4c2.6,0,5.1-2.3,5-5c-0.1-2.7-2.2-5-5-5c-2.6,0-5.1,2.3-5,5C101,294.1,103.1,296.4,105.9,296.4
			L105.9,296.4z"/>
	</g>
</g>
<g>
	<g>
		<path class="st0" d="M127,294.2c2.6,0,5.1-2.3,5-5c-0.1-2.7-2.2-5-5-5c-2.6,0-5.1,2.3-5,5C122.1,291.9,124.2,294.2,127,294.2
			L127,294.2z"/>
	</g>
</g>
<g>
	<g>
		<path class="st0" d="M140.6,287.3c2.6,0,5.1-2.3,5-5c-0.1-2.7-2.2-5-5-5c-2.6,0-5.1,2.3-5,5C135.7,285,137.8,287.3,140.6,287.3
			L140.6,287.3z"/>
	</g>
</g>
<g>
	<g>
		<path class="st0" d="M139.1,296.4c2.6,0,5.1-2.3,5-5c-0.1-2.7-2.2-5-5-5c-2.6,0-5.1,2.3-5,5C134.2,294.1,136.3,296.4,139.1,296.4
			L139.1,296.4z"/>
	</g>
</g>
<g>
	<g>
		<path class="st0" d="M159.8,294.7c2.6,0,5.1-2.3,5-5c-0.1-2.7-2.2-5-5-5c-2.6,0-5.1,2.3-5,5C154.9,292.4,157,294.7,159.8,294.7
			L159.8,294.7z"/>
	</g>
</g>
<g>
	<g>
		<path class="st0" d="M173.4,287.8c2.6,0,5.1-2.3,5-5c-0.1-2.7-2.2-5-5-5c-2.6,0-5.1,2.3-5,5C168.5,285.5,170.6,287.8,173.4,287.8
			L173.4,287.8z"/>
	</g>
</g>
<g>
	<g>
		<path class="st0" d="M171.9,296.9c2.6,0,5.1-2.3,5-5c-0.1-2.7-2.2-5-5-5c-2.6,0-5.1,2.3-5,5C167,294.6,169.1,296.9,171.9,296.9
			L171.9,296.9z"/>
	</g>
</g>
<g>
	<g>
		<path class="st0" d="M191.8,293.5c2.6,0,5.1-2.3,5-5c-0.1-2.7-2.2-5-5-5c-2.6,0-5.1,2.3-5,5C186.9,291.2,189,293.5,191.8,293.5
			L191.8,293.5z"/>
	</g>
</g>
<g>
	<g>
		<path class="st0" d="M205.4,286.6c2.6,0,5.1-2.3,5-5c-0.1-2.7-2.2-5-5-5c-2.6,0-5.1,2.3-5,5C200.5,284.3,202.6,286.6,205.4,286.6
			L205.4,286.6z"/>
	</g>
</g>
<g>
	<g>
		<path class="st0" d="M203.9,295.8c2.6,0,5.1-2.3,5-5c-0.1-2.7-2.2-5-5-5c-2.6,0-5.1,2.3-5,5C199,293.5,201.1,295.8,203.9,295.8
			L203.9,295.8z"/>
	</g>
</g>
<g>
	<g>
		<path class="st0" d="M224,294.2c2.6,0,5.1-2.3,5-5c-0.1-2.7-2.2-5-5-5c-2.6,0-5.1,2.3-5,5C219.1,291.9,221.2,294.2,224,294.2
			L224,294.2z"/>
	</g>
</g>
<g>
	<g>
		<path class="st0" d="M237.5,287.3c2.6,0,5.1-2.3,5-5c-0.1-2.7-2.2-5-5-5c-2.6,0-5.1,2.3-5,5C232.7,285,234.7,287.3,237.5,287.3
			L237.5,287.3z"/>
	</g>
</g>
<g>
	<g>
		<path class="st0" d="M236,296.4c2.6,0,5.1-2.3,5-5c-0.1-2.7-2.2-5-5-5c-2.6,0-5.1,2.3-5,5C231.2,294.1,233.2,296.4,236,296.4
			L236,296.4z"/>
	</g>
</g>
<g>
	<g>
		<path class="st0" d="M252.8,294.2c2.6,0,5.1-2.3,5-5c-0.1-2.7-2.2-5-5-5c-2.6,0-5.1,2.3-5,5C247.9,291.9,250,294.2,252.8,294.2
			L252.8,294.2z"/>
	</g>
</g>
<g>
	<g>
		<path class="st0" d="M266.3,287.3c2.6,0,5.1-2.3,5-5c-0.1-2.7-2.2-5-5-5c-2.6,0-5.1,2.3-5,5C261.5,285,263.5,287.3,266.3,287.3
			L266.3,287.3z"/>
	</g>
</g>
<g>
	<g>
		<path class="st0" d="M264.8,296.4c2.6,0,5.1-2.3,5-5c-0.1-2.7-2.2-5-5-5c-2.6,0-5.1,2.3-5,5C259.9,294.1,262,296.4,264.8,296.4
			L264.8,296.4z"/>
	</g>
</g>
<g>
	<g>
		<path class="st0" d="M285.6,294.7c2.6,0,5.1-2.3,5-5c-0.1-2.7-2.2-5-5-5c-2.6,0-5.1,2.3-5,5C280.7,292.4,282.8,294.7,285.6,294.7
			L285.6,294.7z"/>
	</g>
</g>
<g>
	<g>
		<path class="st0" d="M299.2,287.8c2.6,0,5.1-2.3,5-5c-0.1-2.7-2.2-5-5-5c-2.6,0-5.1,2.3-5,5C294.3,285.5,296.4,287.8,299.2,287.8
			L299.2,287.8z"/>
	</g>
</g>
<g>
	<g>
		<path class="st0" d="M297.7,296.9c2.6,0,5.1-2.3,5-5c-0.1-2.7-2.2-5-5-5c-2.6,0-5.1,2.3-5,5C292.8,294.6,294.9,296.9,297.7,296.9
			L297.7,296.9z"/>
	</g>
</g>
<g>
	<g>
		<path class="st0" d="M-1.1,89.1c2.6,0,5.1-2.3,5-5c-0.1-2.7-2.2-5-5-5c-2.6,0-5.1,2.3-5,5C-5.9,86.9-3.9,89.1-1.1,89.1L-1.1,89.1z
			"/>
	</g>
</g>
<g>
	<g>
		<path class="st0" d="M13,82.2c2.6,0,5.1-2.3,5-5c-0.1-2.7-2.2-5-5-5c-2.6,0-5.1,2.3-5,5C8.1,80,10.2,82.2,13,82.2L13,82.2z"/>
	</g>
</g>
<g>
	<g>
		<path class="st0" d="M11.5,91.4c2.6,0,5.1-2.3,5-5c-0.1-2.7-2.2-5-5-5c-2.6,0-5.1,2.3-5,5C6.6,89.1,8.7,91.4,11.5,91.4L11.5,91.4z
			"/>
	</g>
</g>
<g>
	<g>
		<path class="st0" d="M32.3,89.6c2.6,0,5.1-2.3,5-5c-0.1-2.7-2.2-5-5-5c-2.6,0-5.1,2.3-5,5C27.4,87.3,29.5,89.6,32.3,89.6
			L32.3,89.6z"/>
	</g>
</g>
<g>
	<g>
		<path class="st0" d="M45.9,82.7c2.6,0,5.1-2.3,5-5c-0.1-2.7-2.2-5-5-5c-2.6,0-5.1,2.3-5,5C41,80.4,43,82.7,45.9,82.7L45.9,82.7z"
			/>
	</g>
</g>
<g>
	<g>
		<path class="st0" d="M44.3,91.9c2.6,0,5.1-2.3,5-5c-0.1-2.7-2.2-5-5-5c-2.6,0-5.1,2.3-5,5C39.5,89.6,41.5,91.9,44.3,91.9
			L44.3,91.9z"/>
	</g>
</g>
<g>
	<g>
		<path class="st0" d="M64.2,88.5c2.6,0,5.1-2.3,5-5c-0.1-2.7-2.2-5-5-5c-2.6,0-5.1,2.3-5,5C59.4,86.2,61.4,88.5,64.2,88.5
			L64.2,88.5z"/>
	</g>
</g>
<g>
	<g>
		<path class="st0" d="M77.8,81.6c2.6,0,5.1-2.3,5-5c-0.1-2.7-2.2-5-5-5c-2.6,0-5.1,2.3-5,5C72.9,79.3,75,81.6,77.8,81.6L77.8,81.6z
			"/>
	</g>
</g>
<g>
	<g>
		<path class="st0" d="M76.3,90.7c2.6,0,5.1-2.3,5-5c-0.1-2.7-2.2-5-5-5c-2.6,0-5.1,2.3-5,5C71.4,88.4,73.5,90.7,76.3,90.7
			L76.3,90.7z"/>
	</g>
</g>
<g>
	<g>
		<path class="st0" d="M96.4,89.1c2.6,0,5.1-2.3,5-5c-0.1-2.7-2.2-5-5-5c-2.6,0-5.1,2.3-5,5C91.5,86.9,93.6,89.1,96.4,89.1
			L96.4,89.1z"/>
	</g>
</g>
<g>
	<g>
		<path class="st0" d="M110,82.2c2.6,0,5.1-2.3,5-5c-0.1-2.7-2.2-5-5-5c-2.6,0-5.1,2.3-5,5C105.1,80,107.2,82.2,110,82.2L110,82.2z"
			/>
	</g>
</g>
<g>
	<g>
		<path class="st0" d="M108.5,91.4c2.6,0,5.1-2.3,5-5c-0.1-2.7-2.2-5-5-5c-2.6,0-5.1,2.3-5,5C103.6,89.1,105.7,91.4,108.5,91.4
			L108.5,91.4z"/>
	</g>
</g>
<g>
	<g>
		<path class="st0" d="M129.6,89.1c2.6,0,5.1-2.3,5-5c-0.1-2.7-2.2-5-5-5c-2.6,0-5.1,2.3-5,5C124.7,86.9,126.8,89.1,129.6,89.1
			L129.6,89.1z"/>
	</g>
</g>
<g>
	<g>
		<path class="st0" d="M143.2,82.2c2.6,0,5.1-2.3,5-5c-0.1-2.7-2.2-5-5-5c-2.6,0-5.1,2.3-5,5C138.3,80,140.4,82.2,143.2,82.2
			L143.2,82.2z"/>
	</g>
</g>
<g>
	<g>
		<path class="st0" d="M141.6,91.4c2.6,0,5.1-2.3,5-5c-0.1-2.7-2.2-5-5-5c-2.6,0-5.1,2.3-5,5C136.8,89.1,138.8,91.4,141.6,91.4
			L141.6,91.4z"/>
	</g>
</g>
<g>
	<g>
		<path class="st0" d="M162.4,89.6c2.6,0,5.1-2.3,5-5c-0.1-2.7-2.2-5-5-5c-2.6,0-5.1,2.3-5,5C157.5,87.3,159.6,89.6,162.4,89.6
			L162.4,89.6z"/>
	</g>
</g>
<g>
	<g>
		<path class="st0" d="M176,82.7c2.6,0,5.1-2.3,5-5c-0.1-2.7-2.2-5-5-5c-2.6,0-5.1,2.3-5,5C171.1,80.4,173.2,82.7,176,82.7L176,82.7
			z"/>
	</g>
</g>
<g>
	<g>
		<path class="st0" d="M174.5,91.9c2.6,0,5.1-2.3,5-5c-0.1-2.7-2.2-5-5-5c-2.6,0-5.1,2.3-5,5C169.6,89.6,171.7,91.9,174.5,91.9
			L174.5,91.9z"/>
	</g>
</g>
<g>
	<g>
		<path class="st0" d="M194.4,88.5c2.6,0,5.1-2.3,5-5c-0.1-2.7-2.2-5-5-5c-2.6,0-5.1,2.3-5,5C189.5,86.2,191.6,88.5,194.4,88.5
			L194.4,88.5z"/>
	</g>
</g>
<g>
	<g>
		<path class="st0" d="M208,81.6c2.6,0,5.1-2.3,5-5c-0.1-2.7-2.2-5-5-5c-2.6,0-5.1,2.3-5,5C203.1,79.3,205.2,81.6,208,81.6L208,81.6
			z"/>
	</g>
</g>
<g>
	<g>
		<path class="st0" d="M206.5,90.7c2.6,0,5.1-2.3,5-5c-0.1-2.7-2.2-5-5-5c-2.6,0-5.1,2.3-5,5C201.6,88.4,203.7,90.7,206.5,90.7
			L206.5,90.7z"/>
	</g>
</g>
<g>
	<g>
		<path class="st0" d="M226.6,89.1c2.6,0,5.1-2.3,5-5c-0.1-2.7-2.2-5-5-5c-2.6,0-5.1,2.3-5,5C221.7,86.9,223.8,89.1,226.6,89.1
			L226.6,89.1z"/>
	</g>
</g>
<g>
	<g>
		<path class="st0" d="M240.1,82.2c2.6,0,5.1-2.3,5-5c-0.1-2.7-2.2-5-5-5c-2.6,0-5.1,2.3-5,5C235.3,80,237.3,82.2,240.1,82.2
			L240.1,82.2z"/>
	</g>
</g>
<g>
	<g>
		<path class="st0" d="M238.6,91.4c2.6,0,5.1-2.3,5-5c-0.1-2.7-2.2-5-5-5c-2.6,0-5.1,2.3-5,5C233.7,89.1,235.8,91.4,238.6,91.4
			L238.6,91.4z"/>
	</g>
</g>
<g>
	<g>
		<path class="st0" d="M255.3,89.1c2.6,0,5.1-2.3,5-5c-0.1-2.7-2.2-5-5-5c-2.6,0-5.1,2.3-5,5C250.5,86.9,252.5,89.1,255.3,89.1
			L255.3,89.1z"/>
	</g>
</g>
<g>
	<g>
		<path class="st0" d="M268.9,82.2c2.6,0,5.1-2.3,5-5c-0.1-2.7-2.2-5-5-5c-2.6,0-5.1,2.3-5,5C264.1,80,266.1,82.2,268.9,82.2
			L268.9,82.2z"/>
	</g>
</g>
<g>
	<g>
		<path class="st0" d="M267.4,91.4c2.6,0,5.1-2.3,5-5c-0.1-2.7-2.2-5-5-5c-2.6,0-5.1,2.3-5,5C262.5,89.1,264.6,91.4,267.4,91.4
			L267.4,91.4z"/>
	</g>
</g>
<g>
	<g>
		<path class="st0" d="M288.2,89.6c2.6,0,5.1-2.3,5-5c-0.1-2.7-2.2-5-5-5c-2.6,0-5.1,2.3-5,5C283.3,87.3,285.4,89.6,288.2,89.6
			L288.2,89.6z"/>
	</g>
</g>
<g>
	<g>
		<path class="st0" d="M301.3,82.7c2.6,0,5.1-2.3,5-5c-0.1-2.7-2.2-5-5-5c-2.6,0-5.1,2.3-5,5C296.4,80.4,298.5,82.7,301.3,82.7
			L301.3,82.7z"/>
	</g>
</g>
<g>
	<g>
		<path class="st0" d="M299.8,91.9c2.6,0,5.1-2.3,5-5c-0.1-2.7-2.2-5-5-5c-2.6,0-5.1,2.3-5,5C294.9,89.6,296.9,91.9,299.8,91.9
			L299.8,91.9z"/>
	</g>
</g>
<g>
	<g>
		<path class="st0" d="M1.2,65.6c2.6,0,5.1-2.3,5-5c-0.1-2.7-2.2-5-5-5c-2.6,0-5.1,2.3-5,5C-3.6,63.3-1.6,65.6,1.2,65.6L1.2,65.6z"
			/>
	</g>
</g>
<g>
	<g>
		<path class="st0" d="M14.8,58.7c2.6,0,5.1-2.3,5-5c-0.1-2.7-2.2-5-5-5c-2.6,0-5.1,2.3-5,5C9.9,56.4,12,58.7,14.8,58.7L14.8,58.7z"
			/>
	</g>
</g>
<g>
	<g>
		<path class="st0" d="M13.3,67.8c2.6,0,5.1-2.3,5-5c-0.1-2.7-2.2-5-5-5c-2.6,0-5.1,2.3-5,5C8.4,65.6,10.5,67.8,13.3,67.8L13.3,67.8
			z"/>
	</g>
</g>
<g>
	<g>
		<path class="st0" d="M34.1,66.1c2.6,0,5.1-2.3,5-5c-0.1-2.7-2.2-5-5-5c-2.6,0-5.1,2.3-5,5C29.2,63.8,31.3,66.1,34.1,66.1
			L34.1,66.1z"/>
	</g>
</g>
<g>
	<g>
		<path class="st0" d="M47.7,59.2c2.6,0,5.1-2.3,5-5c-0.1-2.7-2.2-5-5-5c-2.6,0-5.1,2.3-5,5C42.8,56.9,44.9,59.2,47.7,59.2
			L47.7,59.2z"/>
	</g>
</g>
<g>
	<g>
		<path class="st0" d="M46.1,68.3c2.6,0,5.1-2.3,5-5c-0.1-2.7-2.2-5-5-5c-2.6,0-5.1,2.3-5,5C41.3,66,43.3,68.3,46.1,68.3L46.1,68.3z
			"/>
	</g>
</g>
<g>
	<g>
		<path class="st0" d="M66.1,64.9c2.6,0,5.1-2.3,5-5c-0.1-2.7-2.2-5-5-5c-2.6,0-5.1,2.3-5,5C61.2,62.6,63.3,64.9,66.1,64.9
			L66.1,64.9z"/>
	</g>
</g>
<g>
	<g>
		<path class="st0" d="M79.6,58c2.6,0,5.1-2.3,5-5c-0.1-2.7-2.2-5-5-5c-2.6,0-5.1,2.3-5,5C74.8,55.7,76.8,58,79.6,58L79.6,58z"/>
	</g>
</g>
<g>
	<g>
		<path class="st0" d="M78.1,67.2c2.6,0,5.1-2.3,5-5c-0.1-2.7-2.2-5-5-5c-2.6,0-5.1,2.3-5,5C73.2,64.9,75.3,67.2,78.1,67.2
			L78.1,67.2z"/>
	</g>
</g>
<g>
	<g>
		<path class="st0" d="M98.2,65.6c2.6,0,5.1-2.3,5-5c-0.1-2.7-2.2-5-5-5c-2.6,0-5.1,2.3-5,5C93.3,63.3,95.4,65.6,98.2,65.6
			L98.2,65.6z"/>
	</g>
</g>
<g>
	<g>
		<path class="st0" d="M111.8,58.7c2.6,0,5.1-2.3,5-5c-0.1-2.7-2.2-5-5-5c-2.6,0-5.1,2.3-5,5C106.9,56.4,109,58.7,111.8,58.7
			L111.8,58.7z"/>
	</g>
</g>
<g>
	<g>
		<path class="st0" d="M110.3,67.8c2.6,0,5.1-2.3,5-5c-0.1-2.7-2.2-5-5-5c-2.6,0-5.1,2.3-5,5C105.4,65.6,107.5,67.8,110.3,67.8
			L110.3,67.8z"/>
	</g>
</g>
<g>
	<g>
		<path class="st0" d="M131.4,65.6c2.6,0,5.1-2.3,5-5c-0.1-2.7-2.2-5-5-5c-2.6,0-5.1,2.3-5,5C126.5,63.3,128.6,65.6,131.4,65.6
			L131.4,65.6z"/>
	</g>
</g>
<g>
	<g>
		<path class="st0" d="M145,58.7c2.6,0,5.1-2.3,5-5c-0.1-2.7-2.2-5-5-5c-2.6,0-5.1,2.3-5,5C140.1,56.4,142.2,58.7,145,58.7L145,58.7
			z"/>
	</g>
</g>
<g>
	<g>
		<path class="st0" d="M143.5,67.8c2.6,0,5.1-2.3,5-5c-0.1-2.7-2.2-5-5-5c-2.6,0-5.1,2.3-5,5C138.6,65.6,140.7,67.8,143.5,67.8
			L143.5,67.8z"/>
	</g>
</g>
<g>
	<g>
		<path class="st0" d="M164.2,66.1c2.6,0,5.1-2.3,5-5c-0.1-2.7-2.2-5-5-5c-2.6,0-5.1,2.3-5,5C159.3,63.8,161.4,66.1,164.2,66.1
			L164.2,66.1z"/>
	</g>
</g>
<g>
	<g>
		<path class="st0" d="M177.8,59.2c2.6,0,5.1-2.3,5-5c-0.1-2.7-2.2-5-5-5c-2.6,0-5.1,2.3-5,5C172.9,56.9,175,59.2,177.8,59.2
			L177.8,59.2z"/>
	</g>
</g>
<g>
	<g>
		<path class="st0" d="M176.3,68.3c2.6,0,5.1-2.3,5-5c-0.1-2.7-2.2-5-5-5c-2.6,0-5.1,2.3-5,5C171.4,66,173.5,68.3,176.3,68.3
			L176.3,68.3z"/>
	</g>
</g>
<g>
	<g>
		<path class="st0" d="M196.2,64.9c2.6,0,5.1-2.3,5-5c-0.1-2.7-2.2-5-5-5c-2.6,0-5.1,2.3-5,5C191.3,62.6,193.4,64.9,196.2,64.9
			L196.2,64.9z"/>
	</g>
</g>
<g>
	<g>
		<path class="st0" d="M209.8,58c2.6,0,5.1-2.3,5-5c-0.1-2.7-2.2-5-5-5c-2.6,0-5.1,2.3-5,5C204.9,55.7,207,58,209.8,58L209.8,58z"/>
	</g>
</g>
<g>
	<g>
		<path class="st0" d="M208.3,67.2c2.6,0,5.1-2.3,5-5c-0.1-2.7-2.2-5-5-5c-2.6,0-5.1,2.3-5,5C203.4,64.9,205.5,67.2,208.3,67.2
			L208.3,67.2z"/>
	</g>
</g>
<g>
	<g>
		<path class="st0" d="M228.4,65.6c2.6,0,5.1-2.3,5-5c-0.1-2.7-2.2-5-5-5c-2.6,0-5.1,2.3-5,5C223.5,63.3,225.6,65.6,228.4,65.6
			L228.4,65.6z"/>
	</g>
</g>
<g>
	<g>
		<path class="st0" d="M241.9,58.7c2.6,0,5.1-2.3,5-5c-0.1-2.7-2.2-5-5-5c-2.6,0-5.1,2.3-5,5C237.1,56.4,239.1,58.7,241.9,58.7
			L241.9,58.7z"/>
	</g>
</g>
<g>
	<g>
		<path class="st0" d="M240.4,67.8c2.6,0,5.1-2.3,5-5c-0.1-2.7-2.2-5-5-5c-2.6,0-5.1,2.3-5,5C235.6,65.6,237.6,67.8,240.4,67.8
			L240.4,67.8z"/>
	</g>
</g>
<g>
	<g>
		<path class="st0" d="M257.2,65.6c2.6,0,5.1-2.3,5-5c-0.1-2.7-2.2-5-5-5c-2.6,0-5.1,2.3-5,5C252.3,63.3,254.4,65.6,257.2,65.6
			L257.2,65.6z"/>
	</g>
</g>
<g>
	<g>
		<path class="st0" d="M270.7,58.7c2.6,0,5.1-2.3,5-5c-0.1-2.7-2.2-5-5-5c-2.6,0-5.1,2.3-5,5C265.9,56.4,267.9,58.7,270.7,58.7
			L270.7,58.7z"/>
	</g>
</g>
<g>
	<g>
		<path class="st0" d="M269.2,67.8c2.6,0,5.1-2.3,5-5c-0.1-2.7-2.2-5-5-5c-2.6,0-5.1,2.3-5,5C264.3,65.6,266.4,67.8,269.2,67.8
			L269.2,67.8z"/>
	</g>
</g>
<g>
	<g>
		<path class="st0" d="M290,66.1c2.6,0,5.1-2.3,5-5c-0.1-2.7-2.2-5-5-5c-2.6,0-5.1,2.3-5,5C285.1,63.8,287.2,66.1,290,66.1L290,66.1
			z"/>
	</g>
</g>
<g>
	<g>
		<path class="st0" d="M303.1,59.2c2.6,0,5.1-2.3,5-5c-0.1-2.7-2.2-5-5-5c-2.6,0-5.1,2.3-5,5C298.2,56.9,300.3,59.2,303.1,59.2
			L303.1,59.2z"/>
	</g>
</g>
<g>
	<g>
		<path class="st0" d="M301.6,68.3c2.6,0,5.1-2.3,5-5c-0.1-2.7-2.2-5-5-5c-2.6,0-5.1,2.3-5,5C296.7,66,298.8,68.3,301.6,68.3
			L301.6,68.3z"/>
	</g>
</g>
<g>
	<g>
		<path class="st0" d="M1.2,43.6c2.6,0,5.1-2.3,5-5c-0.1-2.7-2.2-5-5-5c-2.6,0-5.1,2.3-5,5C-3.6,41.3-1.6,43.6,1.2,43.6L1.2,43.6z"
			/>
	</g>
</g>
<g>
	<g>
		<path class="st0" d="M14.8,36.7c2.6,0,5.1-2.3,5-5c-0.1-2.7-2.2-5-5-5c-2.6,0-5.1,2.3-5,5C9.9,34.4,12,36.7,14.8,36.7L14.8,36.7z"
			/>
	</g>
</g>
<g>
	<g>
		<path class="st0" d="M13.3,45.8c2.6,0,5.1-2.3,5-5c-0.1-2.7-2.2-5-5-5c-2.6,0-5.1,2.3-5,5C8.4,43.6,10.5,45.8,13.3,45.8L13.3,45.8
			z"/>
	</g>
</g>
<g>
	<g>
		<path class="st0" d="M34.1,44.1c2.6,0,5.1-2.3,5-5c-0.1-2.7-2.2-5-5-5c-2.6,0-5.1,2.3-5,5C29.2,41.8,31.3,44.1,34.1,44.1
			L34.1,44.1z"/>
	</g>
</g>
<g>
	<g>
		<path class="st0" d="M47.7,37.2c2.6,0,5.1-2.3,5-5c-0.1-2.7-2.2-5-5-5c-2.6,0-5.1,2.3-5,5C42.8,34.9,44.9,37.2,47.7,37.2
			L47.7,37.2z"/>
	</g>
</g>
<g>
	<g>
		<path class="st0" d="M46.1,46.3c2.6,0,5.1-2.3,5-5c-0.1-2.7-2.2-5-5-5c-2.6,0-5.1,2.3-5,5C41.3,44,43.3,46.3,46.1,46.3L46.1,46.3z
			"/>
	</g>
</g>
<g>
	<g>
		<path class="st0" d="M66.1,42.9c2.6,0,5.1-2.3,5-5c-0.1-2.7-2.2-5-5-5c-2.6,0-5.1,2.3-5,5C61.2,40.6,63.3,42.9,66.1,42.9
			L66.1,42.9z"/>
	</g>
</g>
<g>
	<g>
		<path class="st0" d="M79.6,36c2.6,0,5.1-2.3,5-5c-0.1-2.7-2.2-5-5-5c-2.6,0-5.1,2.3-5,5C74.8,33.7,76.8,36,79.6,36L79.6,36z"/>
	</g>
</g>
<g>
	<g>
		<path class="st0" d="M78.1,45.2c2.6,0,5.1-2.3,5-5c-0.1-2.7-2.2-5-5-5c-2.6,0-5.1,2.3-5,5C73.2,42.9,75.3,45.2,78.1,45.2
			L78.1,45.2z"/>
	</g>
</g>
<g>
	<g>
		<path class="st0" d="M98.2,43.6c2.6,0,5.1-2.3,5-5c-0.1-2.7-2.2-5-5-5c-2.6,0-5.1,2.3-5,5C93.3,41.3,95.4,43.6,98.2,43.6
			L98.2,43.6z"/>
	</g>
</g>
<g>
	<g>
		<path class="st0" d="M111.8,36.7c2.6,0,5.1-2.3,5-5c-0.1-2.7-2.2-5-5-5c-2.6,0-5.1,2.3-5,5C106.9,34.4,109,36.7,111.8,36.7
			L111.8,36.7z"/>
	</g>
</g>
<g>
	<g>
		<path class="st0" d="M110.3,45.8c2.6,0,5.1-2.3,5-5c-0.1-2.7-2.2-5-5-5c-2.6,0-5.1,2.3-5,5C105.4,43.6,107.5,45.8,110.3,45.8
			L110.3,45.8z"/>
	</g>
</g>
<g>
	<g>
		<path class="st0" d="M131.4,43.6c2.6,0,5.1-2.3,5-5c-0.1-2.7-2.2-5-5-5c-2.6,0-5.1,2.3-5,5C126.5,41.3,128.6,43.6,131.4,43.6
			L131.4,43.6z"/>
	</g>
</g>
<g>
	<g>
		<path class="st0" d="M145,36.7c2.6,0,5.1-2.3,5-5c-0.1-2.7-2.2-5-5-5c-2.6,0-5.1,2.3-5,5C140.1,34.4,142.2,36.7,145,36.7L145,36.7
			z"/>
	</g>
</g>
<g>
	<g>
		<path class="st0" d="M143.5,45.8c2.6,0,5.1-2.3,5-5c-0.1-2.7-2.2-5-5-5c-2.6,0-5.1,2.3-5,5C138.6,43.6,140.7,45.8,143.5,45.8
			L143.5,45.8z"/>
	</g>
</g>
<g>
	<g>
		<path class="st0" d="M164.2,44.1c2.6,0,5.1-2.3,5-5c-0.1-2.7-2.2-5-5-5c-2.6,0-5.1,2.3-5,5C159.3,41.8,161.4,44.1,164.2,44.1
			L164.2,44.1z"/>
	</g>
</g>
<g>
	<g>
		<path class="st0" d="M177.8,37.2c2.6,0,5.1-2.3,5-5c-0.1-2.7-2.2-5-5-5c-2.6,0-5.1,2.3-5,5C172.9,34.9,175,37.2,177.8,37.2
			L177.8,37.2z"/>
	</g>
</g>
<g>
	<g>
		<path class="st0" d="M176.3,46.3c2.6,0,5.1-2.3,5-5c-0.1-2.7-2.2-5-5-5c-2.6,0-5.1,2.3-5,5C171.4,44,173.5,46.3,176.3,46.3
			L176.3,46.3z"/>
	</g>
</g>
<g>
	<g>
		<path class="st0" d="M196.2,42.9c2.6,0,5.1-2.3,5-5c-0.1-2.7-2.2-5-5-5c-2.6,0-5.1,2.3-5,5C191.3,40.6,193.4,42.9,196.2,42.9
			L196.2,42.9z"/>
	</g>
</g>
<g>
	<g>
		<path class="st0" d="M209.8,36c2.6,0,5.1-2.3,5-5c-0.1-2.7-2.2-5-5-5c-2.6,0-5.1,2.3-5,5C204.9,33.7,207,36,209.8,36L209.8,36z"/>
	</g>
</g>
<g>
	<g>
		<path class="st0" d="M208.3,45.2c2.6,0,5.1-2.3,5-5c-0.1-2.7-2.2-5-5-5c-2.6,0-5.1,2.3-5,5C203.4,42.9,205.5,45.2,208.3,45.2
			L208.3,45.2z"/>
	</g>
</g>
<g>
	<g>
		<path class="st0" d="M228.4,43.6c2.6,0,5.1-2.3,5-5c-0.1-2.7-2.2-5-5-5c-2.6,0-5.1,2.3-5,5C223.5,41.3,225.6,43.6,228.4,43.6
			L228.4,43.6z"/>
	</g>
</g>
<g>
	<g>
		<path class="st0" d="M241.9,36.7c2.6,0,5.1-2.3,5-5c-0.1-2.7-2.2-5-5-5c-2.6,0-5.1,2.3-5,5C237.1,34.4,239.1,36.7,241.9,36.7
			L241.9,36.7z"/>
	</g>
</g>
<g>
	<g>
		<path class="st0" d="M240.4,45.8c2.6,0,5.1-2.3,5-5c-0.1-2.7-2.2-5-5-5c-2.6,0-5.1,2.3-5,5C235.6,43.6,237.6,45.8,240.4,45.8
			L240.4,45.8z"/>
	</g>
</g>
<g>
	<g>
		<path class="st0" d="M257.2,43.6c2.6,0,5.1-2.3,5-5c-0.1-2.7-2.2-5-5-5c-2.6,0-5.1,2.3-5,5C252.3,41.3,254.4,43.6,257.2,43.6
			L257.2,43.6z"/>
	</g>
</g>
<g>
	<g>
		<path class="st0" d="M270.7,36.7c2.6,0,5.1-2.3,5-5c-0.1-2.7-2.2-5-5-5c-2.6,0-5.1,2.3-5,5C265.9,34.4,267.9,36.7,270.7,36.7
			L270.7,36.7z"/>
	</g>
</g>
<g>
	<g>
		<path class="st0" d="M269.2,45.8c2.6,0,5.1-2.3,5-5c-0.1-2.7-2.2-5-5-5c-2.6,0-5.1,2.3-5,5C264.3,43.6,266.4,45.8,269.2,45.8
			L269.2,45.8z"/>
	</g>
</g>
<g>
	<g>
		<path class="st0" d="M290,44.1c2.6,0,5.1-2.3,5-5c-0.1-2.7-2.2-5-5-5c-2.6,0-5.1,2.3-5,5C285.1,41.8,287.2,44.1,290,44.1L290,44.1
			z"/>
	</g>
</g>
<g>
	<g>
		<path class="st0" d="M303.1,37.2c2.6,0,5.1-2.3,5-5c-0.1-2.7-2.2-5-5-5c-2.6,0-5.1,2.3-5,5C298.2,34.9,300.3,37.2,303.1,37.2
			L303.1,37.2z"/>
	</g>
</g>
<g>
	<g>
		<path class="st0" d="M301.6,46.3c2.6,0,5.1-2.3,5-5c-0.1-2.7-2.2-5-5-5c-2.6,0-5.1,2.3-5,5C296.7,44,298.8,46.3,301.6,46.3
			L301.6,46.3z"/>
	</g>
</g>
<g>
	<g>
		<path class="st0" d="M1.2,22c2.6,0,5.1-2.3,5-5c-0.1-2.7-2.2-5-5-5c-2.6,0-5.1,2.3-5,5C-3.6,19.7-1.6,22,1.2,22L1.2,22z"/>
	</g>
</g>
<g>
	<g>
		<path class="st0" d="M14.8,15.1c2.6,0,5.1-2.3,5-5c-0.1-2.7-2.2-5-5-5c-2.6,0-5.1,2.3-5,5C9.9,12.8,12,15.1,14.8,15.1L14.8,15.1z"
			/>
	</g>
</g>
<g>
	<g>
		<path class="st0" d="M13.3,24.2c2.6,0,5.1-2.3,5-5c-0.1-2.7-2.2-5-5-5c-2.6,0-5.1,2.3-5,5C8.4,21.9,10.5,24.2,13.3,24.2L13.3,24.2
			z"/>
	</g>
</g>
<g>
	<g>
		<path class="st0" d="M34.1,22.5c2.6,0,5.1-2.3,5-5c-0.1-2.7-2.2-5-5-5c-2.6,0-5.1,2.3-5,5C29.2,20.2,31.3,22.5,34.1,22.5
			L34.1,22.5z"/>
	</g>
</g>
<g>
	<g>
		<path class="st0" d="M47.7,15.6c2.6,0,5.1-2.3,5-5c-0.1-2.7-2.2-5-5-5c-2.6,0-5.1,2.3-5,5C42.8,13.3,44.9,15.6,47.7,15.6
			L47.7,15.6z"/>
	</g>
</g>
<g>
	<g>
		<path class="st0" d="M46.1,24.7c2.6,0,5.1-2.3,5-5c-0.1-2.7-2.2-5-5-5c-2.6,0-5.1,2.3-5,5C41.3,22.4,43.3,24.7,46.1,24.7
			L46.1,24.7z"/>
	</g>
</g>
<g>
	<g>
		<path class="st0" d="M66.1,21.3c2.6,0,5.1-2.3,5-5c-0.1-2.7-2.2-5-5-5c-2.6,0-5.1,2.3-5,5C61.2,19,63.3,21.3,66.1,21.3L66.1,21.3z
			"/>
	</g>
</g>
<g>
	<g>
		<path class="st0" d="M79.6,14.4c2.6,0,5.1-2.3,5-5c-0.1-2.7-2.2-5-5-5c-2.6,0-5.1,2.3-5,5C74.8,12.1,76.8,14.4,79.6,14.4
			L79.6,14.4z"/>
	</g>
</g>
<g>
	<g>
		<path class="st0" d="M78.1,23.6c2.6,0,5.1-2.3,5-5c-0.1-2.7-2.2-5-5-5c-2.6,0-5.1,2.3-5,5C73.2,21.3,75.3,23.6,78.1,23.6
			L78.1,23.6z"/>
	</g>
</g>
<g>
	<g>
		<path class="st0" d="M98.2,22c2.6,0,5.1-2.3,5-5c-0.1-2.7-2.2-5-5-5c-2.6,0-5.1,2.3-5,5C93.3,19.7,95.4,22,98.2,22L98.2,22z"/>
	</g>
</g>
<g>
	<g>
		<path class="st0" d="M111.8,15.1c2.6,0,5.1-2.3,5-5c-0.1-2.7-2.2-5-5-5c-2.6,0-5.1,2.3-5,5C106.9,12.8,109,15.1,111.8,15.1
			L111.8,15.1z"/>
	</g>
</g>
<g>
	<g>
		<path class="st0" d="M110.3,24.2c2.6,0,5.1-2.3,5-5c-0.1-2.7-2.2-5-5-5c-2.6,0-5.1,2.3-5,5C105.4,21.9,107.5,24.2,110.3,24.2
			L110.3,24.2z"/>
	</g>
</g>
<g>
	<g>
		<path class="st0" d="M131.4,22c2.6,0,5.1-2.3,5-5c-0.1-2.7-2.2-5-5-5c-2.6,0-5.1,2.3-5,5C126.5,19.7,128.6,22,131.4,22L131.4,22z"
			/>
	</g>
</g>
<g>
	<g>
		<path class="st0" d="M145,15.1c2.6,0,5.1-2.3,5-5c-0.1-2.7-2.2-5-5-5c-2.6,0-5.1,2.3-5,5C140.1,12.8,142.2,15.1,145,15.1L145,15.1
			z"/>
	</g>
</g>
<g>
	<g>
		<path class="st0" d="M143.5,24.2c2.6,0,5.1-2.3,5-5c-0.1-2.7-2.2-5-5-5c-2.6,0-5.1,2.3-5,5C138.6,21.9,140.7,24.2,143.5,24.2
			L143.5,24.2z"/>
	</g>
</g>
<g>
	<g>
		<path class="st0" d="M164.2,22.5c2.6,0,5.1-2.3,5-5c-0.1-2.7-2.2-5-5-5c-2.6,0-5.1,2.3-5,5C159.3,20.2,161.4,22.5,164.2,22.5
			L164.2,22.5z"/>
	</g>
</g>
<g>
	<g>
		<path class="st0" d="M177.8,15.6c2.6,0,5.1-2.3,5-5c-0.1-2.7-2.2-5-5-5c-2.6,0-5.1,2.3-5,5C172.9,13.3,175,15.6,177.8,15.6
			L177.8,15.6z"/>
	</g>
</g>
<g>
	<g>
		<path class="st0" d="M176.3,24.7c2.6,0,5.1-2.3,5-5c-0.1-2.7-2.2-5-5-5c-2.6,0-5.1,2.3-5,5C171.4,22.4,173.5,24.7,176.3,24.7
			L176.3,24.7z"/>
	</g>
</g>
<g>
	<g>
		<path class="st0" d="M196.2,21.3c2.6,0,5.1-2.3,5-5c-0.1-2.7-2.2-5-5-5c-2.6,0-5.1,2.3-5,5C191.3,19,193.4,21.3,196.2,21.3
			L196.2,21.3z"/>
	</g>
</g>
<g>
	<g>
		<path class="st0" d="M209.8,14.4c2.6,0,5.1-2.3,5-5c-0.1-2.7-2.2-5-5-5c-2.6,0-5.1,2.3-5,5C204.9,12.1,207,14.4,209.8,14.4
			L209.8,14.4z"/>
	</g>
</g>
<g>
	<g>
		<path class="st0" d="M208.3,23.6c2.6,0,5.1-2.3,5-5c-0.1-2.7-2.2-5-5-5c-2.6,0-5.1,2.3-5,5C203.4,21.3,205.5,23.6,208.3,23.6
			L208.3,23.6z"/>
	</g>
</g>
<g>
	<g>
		<path class="st0" d="M228.4,22c2.6,0,5.1-2.3,5-5c-0.1-2.7-2.2-5-5-5c-2.6,0-5.1,2.3-5,5C223.5,19.7,225.6,22,228.4,22L228.4,22z"
			/>
	</g>
</g>
<g>
	<g>
		<path class="st0" d="M241.9,15.1c2.6,0,5.1-2.3,5-5c-0.1-2.7-2.2-5-5-5c-2.6,0-5.1,2.3-5,5C237.1,12.8,239.1,15.1,241.9,15.1
			L241.9,15.1z"/>
	</g>
</g>
<g>
	<g>
		<path class="st0" d="M240.4,24.2c2.6,0,5.1-2.3,5-5c-0.1-2.7-2.2-5-5-5c-2.6,0-5.1,2.3-5,5C235.6,21.9,237.6,24.2,240.4,24.2
			L240.4,24.2z"/>
	</g>
</g>
<g>
	<g>
		<path class="st0" d="M257.2,22c2.6,0,5.1-2.3,5-5c-0.1-2.7-2.2-5-5-5c-2.6,0-5.1,2.3-5,5C252.3,19.7,254.4,22,257.2,22L257.2,22z"
			/>
	</g>
</g>
<g>
	<g>
		<path class="st0" d="M270.7,15.1c2.6,0,5.1-2.3,5-5c-0.1-2.7-2.2-5-5-5c-2.6,0-5.1,2.3-5,5C265.9,12.8,267.9,15.1,270.7,15.1
			L270.7,15.1z"/>
	</g>
</g>
<g>
	<g>
		<path class="st0" d="M269.2,24.2c2.6,0,5.1-2.3,5-5c-0.1-2.7-2.2-5-5-5c-2.6,0-5.1,2.3-5,5C264.3,21.9,266.4,24.2,269.2,24.2
			L269.2,24.2z"/>
	</g>
</g>
<g>
	<g>
		<path class="st0" d="M290,22.5c2.6,0,5.1-2.3,5-5c-0.1-2.7-2.2-5-5-5c-2.6,0-5.1,2.3-5,5C285.1,20.2,287.2,22.5,290,22.5L290,22.5
			z"/>
	</g>
</g>
<g>
	<g>
		<path class="st0" d="M303.1,15.6c2.6,0,5.1-2.3,5-5c-0.1-2.7-2.2-5-5-5c-2.6,0-5.1,2.3-5,5C298.2,13.3,300.3,15.6,303.1,15.6
			L303.1,15.6z"/>
	</g>
</g>
<g>
	<g>
		<path class="st0" d="M301.6,24.7c2.6,0,5.1-2.3,5-5c-0.1-2.7-2.2-5-5-5c-2.6,0-5.1,2.3-5,5C296.7,22.4,298.8,24.7,301.6,24.7
			L301.6,24.7z"/>
	</g>
</g>
</svg>
