<?xml version="1.0" encoding="utf-8"?>
<svg version="1.1" id="Layer_1" xmlns="http://www.w3.org/2000/svg" xmlns:xlink="http://www.w3.org/1999/xlink" x="0px" y="0px"
	 viewBox="0 0 300 300" style="enable-background:new 0 0 300 300;" xml:space="preserve">
<style type="text/css">
	.st0{fill:#1D1D1B;}
</style>
<g>
	<g>
		<path class="st0" d="M18.7,33.4c1.4-4.7,3-9.3,4.8-13.8c0.1-0.2,0.7-1.7,0.3-0.7c0.2-0.6,0.5-1.1,0.7-1.7c0.5-1.1,1-2.3,1.5-3.4
			c1.1-2.2,2.2-4.4,3.3-6.6c-2.9,0-5.8,0-8.6,0C25.5,16.8,33,25,42,30.6c-0.6-2.3-1.2-4.6-1.8-6.8c-3.5,6-5.8,12.7-7.7,19.3
			c-2,7-4,13.9-6,20.9c3-0.4,6.1-0.8,9.1-1.2c-5.8-10.2-12.2-20-19.3-29.3c-1.6-2.1-4.4-3.4-6.8-1.8c-2.1,1.3-3.5,4.6-1.8,6.8
			c7.1,9.4,13.5,19.2,19.3,29.3c2.1,3.8,8,2.9,9.1-1.2c1.9-6.8,3.9-13.7,5.8-20.5c0.9-3.1,1.8-6.2,3-9.2c0.3-0.7,0.5-1.4,0.8-2.1
			c0.4-1.1-0.2,0.5,0.2-0.5c0.2-0.4,0.4-0.8,0.6-1.2c0.7-1.5,1.5-2.9,2.3-4.4c1.4-2.4,0.5-5.4-1.8-6.8c-1-0.6-2-1.3-3-2
			c-0.2-0.2-0.4-0.3-0.6-0.5c-1-0.8,0.5,0.4-0.1-0.1c-0.5-0.4-0.9-0.7-1.4-1.1c-1.8-1.5-3.5-3.2-5.1-5c-0.8-0.8-1.5-1.7-2.2-2.6
			c-0.4-0.5,0.5,0.7-0.1-0.1c-0.2-0.2-0.3-0.4-0.5-0.6c-0.3-0.5-0.7-1-1-1.5c-1.4-2-2.6-4.2-3.7-6.4c-1.6-3.4-6.9-3.2-8.6,0
			C15.9,11.3,12,20.9,9.1,30.8c-0.7,2.5,0.9,5.6,3.5,6.2C15.3,37.5,17.9,36.1,18.7,33.4L18.7,33.4z"/>
	</g>
</g>
<g>
	<g>
		<path class="st0" d="M75.7,33.4c1.4-4.7,3-9.3,4.8-13.8c0.1-0.2,0.7-1.7,0.3-0.7c0.2-0.6,0.5-1.1,0.7-1.7c0.5-1.1,1-2.3,1.5-3.4
			c1.1-2.2,2.2-4.4,3.3-6.6c-2.9,0-5.8,0-8.6,0C82.5,16.8,90,25,99,30.6c-0.6-2.3-1.2-4.6-1.8-6.8c-3.5,6-5.8,12.7-7.7,19.3
			c-2,7-4,13.9-6,20.9c3-0.4,6.1-0.8,9.1-1.2c-5.8-10.2-12.2-20-19.3-29.3c-1.6-2.1-4.4-3.4-6.8-1.8c-2.1,1.3-3.5,4.6-1.8,6.8
			c7.1,9.4,13.5,19.2,19.3,29.3c2.1,3.8,8,2.9,9.1-1.2c1.9-6.8,3.9-13.7,5.8-20.5c0.9-3.1,1.8-6.2,3-9.2c0.3-0.7,0.5-1.4,0.8-2.1
			c0.4-1.1-0.2,0.5,0.2-0.5c0.2-0.4,0.4-0.8,0.6-1.2c0.7-1.5,1.5-2.9,2.3-4.4c1.4-2.4,0.5-5.4-1.8-6.8c-1-0.6-2-1.3-3-2
			c-0.2-0.2-0.4-0.3-0.6-0.5c-1-0.8,0.5,0.4-0.1-0.1c-0.5-0.4-0.9-0.7-1.4-1.1c-1.8-1.5-3.5-3.2-5.1-5c-0.8-0.8-1.5-1.7-2.2-2.6
			c-0.4-0.5,0.5,0.7-0.1-0.1c-0.2-0.2-0.3-0.4-0.5-0.6c-0.3-0.5-0.7-1-1-1.5c-1.4-2-2.6-4.2-3.7-6.4c-1.6-3.4-6.9-3.2-8.6,0
			c-4.9,9.1-8.8,18.7-11.7,28.6c-0.7,2.5,0.9,5.6,3.5,6.2C72.3,37.5,74.9,36.1,75.7,33.4L75.7,33.4z"/>
	</g>
</g>
<g>
	<g>
		<path class="st0" d="M132.7,33.4c1.4-4.7,3-9.3,4.8-13.8c0.1-0.2,0.7-1.7,0.3-0.7c0.2-0.6,0.5-1.1,0.7-1.7c0.5-1.1,1-2.3,1.5-3.4
			c1.1-2.2,2.2-4.4,3.3-6.6c-2.9,0-5.8,0-8.6,0C139.5,16.8,147,25,156,30.6c-0.6-2.3-1.2-4.6-1.8-6.8c-3.5,6-5.8,12.7-7.7,19.3
			c-2,7-4,13.9-6,20.9c3-0.4,6.1-0.8,9.1-1.2c-5.8-10.2-12.2-20-19.3-29.3c-1.6-2.1-4.4-3.4-6.8-1.8c-2.1,1.3-3.5,4.6-1.8,6.8
			c7.1,9.4,13.5,19.2,19.3,29.3c2.1,3.8,8,2.9,9.1-1.2c1.9-6.8,3.9-13.7,5.8-20.5c0.9-3.1,1.8-6.2,3-9.2c0.3-0.7,0.5-1.4,0.8-2.1
			c0.4-1.1-0.2,0.5,0.2-0.5c0.2-0.4,0.4-0.8,0.6-1.2c0.7-1.5,1.5-2.9,2.3-4.4c1.4-2.4,0.5-5.4-1.8-6.8c-1-0.6-2-1.3-3-2
			c-0.2-0.2-0.4-0.3-0.6-0.5c-1-0.8,0.5,0.4-0.1-0.1c-0.5-0.4-0.9-0.7-1.4-1.1c-1.8-1.5-3.5-3.2-5.1-5c-0.8-0.8-1.5-1.7-2.2-2.6
			c-0.4-0.5,0.5,0.7-0.1-0.1c-0.2-0.2-0.3-0.4-0.5-0.6c-0.3-0.5-0.7-1-1-1.5c-1.4-2-2.6-4.2-3.7-6.4c-1.6-3.4-6.9-3.2-8.6,0
			c-4.9,9.1-8.8,18.7-11.7,28.6c-0.7,2.5,0.9,5.6,3.5,6.2C129.3,37.5,131.9,36.1,132.7,33.4L132.7,33.4z"/>
	</g>
</g>
<g>
	<g>
		<path class="st0" d="M189.7,33.4c1.4-4.7,3-9.3,4.8-13.8c0.1-0.2,0.7-1.7,0.3-0.7c0.2-0.6,0.5-1.1,0.7-1.7c0.5-1.1,1-2.3,1.5-3.4
			c1.1-2.2,2.2-4.4,3.3-6.6c-2.9,0-5.8,0-8.6,0C196.5,16.8,204,25,213,30.6c-0.6-2.3-1.2-4.6-1.8-6.8c-3.5,6-5.8,12.7-7.7,19.3
			c-2,7-4,13.9-6,20.9c3-0.4,6.1-0.8,9.1-1.2c-5.8-10.2-12.2-20-19.3-29.3c-1.6-2.1-4.4-3.4-6.8-1.8c-2.1,1.3-3.5,4.6-1.8,6.8
			c7.1,9.4,13.5,19.2,19.3,29.3c2.1,3.8,8,2.9,9.1-1.2c1.9-6.8,3.9-13.7,5.8-20.5c0.9-3.1,1.8-6.2,3-9.2c0.3-0.7,0.5-1.4,0.8-2.1
			c0.4-1.1-0.2,0.5,0.2-0.5c0.2-0.4,0.4-0.8,0.6-1.2c0.7-1.5,1.5-2.9,2.3-4.4c1.4-2.4,0.5-5.4-1.8-6.8c-1-0.6-2-1.3-3-2
			c-0.2-0.2-0.4-0.3-0.6-0.5c-1-0.8,0.5,0.4-0.1-0.1c-0.5-0.4-0.9-0.7-1.4-1.1c-1.8-1.5-3.5-3.2-5.1-5c-0.8-0.8-1.5-1.7-2.2-2.6
			c-0.4-0.5,0.5,0.7-0.1-0.1c-0.2-0.2-0.3-0.4-0.5-0.6c-0.3-0.5-0.7-1-1-1.5c-1.4-2-2.6-4.2-3.7-6.4c-1.6-3.4-6.9-3.2-8.6,0
			c-4.9,9.1-8.8,18.7-11.7,28.6c-0.7,2.5,0.9,5.6,3.5,6.2C186.3,37.5,188.9,36.1,189.7,33.4L189.7,33.4z"/>
	</g>
</g>
<g>
	<g>
		<path class="st0" d="M246.7,33.4c1.4-4.7,3-9.3,4.8-13.8c0.1-0.2,0.7-1.7,0.3-0.7c0.2-0.6,0.5-1.1,0.7-1.7c0.5-1.1,1-2.3,1.5-3.4
			c1.1-2.2,2.2-4.4,3.3-6.6c-2.9,0-5.8,0-8.6,0C253.5,16.8,261,25,270,30.6c-0.6-2.3-1.2-4.6-1.8-6.8c-3.5,6-5.8,12.7-7.7,19.3
			c-2,7-4,13.9-6,20.9c3-0.4,6.1-0.8,9.1-1.2c-5.8-10.2-12.2-20-19.3-29.3c-1.6-2.1-4.4-3.4-6.8-1.8c-2.1,1.3-3.5,4.6-1.8,6.8
			c7.1,9.4,13.5,19.2,19.3,29.3c2.1,3.8,8,2.9,9.1-1.2c1.9-6.8,3.9-13.7,5.8-20.5c0.9-3.1,1.8-6.2,3-9.2c0.3-0.7,0.5-1.4,0.8-2.1
			c0.4-1.1-0.2,0.5,0.2-0.5c0.2-0.4,0.4-0.8,0.6-1.2c0.7-1.5,1.5-2.9,2.3-4.4c1.4-2.4,0.5-5.4-1.8-6.8c-1-0.6-2-1.3-3-2
			c-0.2-0.2-0.4-0.3-0.6-0.5c-1-0.8,0.5,0.4-0.1-0.1c-0.5-0.4-0.9-0.7-1.4-1.1c-1.8-1.5-3.5-3.2-5.1-5c-0.8-0.8-1.5-1.7-2.2-2.6
			c-0.4-0.5,0.5,0.7-0.1-0.1c-0.2-0.2-0.3-0.4-0.5-0.6c-0.3-0.5-0.7-1-1-1.5c-1.4-2-2.6-4.2-3.7-6.4c-1.6-3.4-6.9-3.2-8.6,0
			c-4.9,9.1-8.8,18.7-11.7,28.6c-0.7,2.5,0.9,5.6,3.5,6.2C243.3,37.5,245.9,36.1,246.7,33.4L246.7,33.4z"/>
	</g>
</g>
<g>
	<g>
		<path class="st0" d="M18.7,110.4c1.4-4.7,3-9.3,4.8-13.8c0.1-0.2,0.7-1.7,0.3-0.7c0.2-0.6,0.5-1.1,0.7-1.7c0.5-1.1,1-2.3,1.5-3.4
			c1.1-2.2,2.2-4.4,3.3-6.6c-2.9,0-5.8,0-8.6,0C25.5,93.8,33,102,42,107.6c-0.6-2.3-1.2-4.6-1.8-6.8c-3.5,6-5.8,12.7-7.7,19.3
			c-2,7-4,13.9-6,20.9c3-0.4,6.1-0.8,9.1-1.2c-5.8-10.2-12.2-20-19.3-29.3c-1.6-2.1-4.4-3.4-6.8-1.8c-2.1,1.3-3.5,4.6-1.8,6.8
			c7.1,9.4,13.5,19.2,19.3,29.3c2.1,3.8,8,2.9,9.1-1.2c1.9-6.8,3.9-13.7,5.8-20.5c0.9-3.1,1.8-6.2,3-9.2c0.3-0.7,0.5-1.4,0.8-2.1
			c0.4-1.1-0.2,0.5,0.2-0.5c0.2-0.4,0.4-0.8,0.6-1.2c0.7-1.5,1.5-2.9,2.3-4.4c1.4-2.4,0.5-5.4-1.8-6.8c-1-0.6-2-1.3-3-2
			c-0.2-0.2-0.4-0.3-0.6-0.5c-1-0.8,0.5,0.4-0.1-0.1c-0.5-0.4-0.9-0.7-1.4-1.1c-1.8-1.5-3.5-3.2-5.1-5c-0.8-0.8-1.5-1.7-2.2-2.6
			c-0.4-0.5,0.5,0.7-0.1-0.1c-0.2-0.2-0.3-0.4-0.5-0.6c-0.3-0.5-0.7-1-1-1.5c-1.4-2-2.6-4.2-3.7-6.4c-1.6-3.4-6.9-3.2-8.6,0
			c-4.9,9.1-8.8,18.7-11.7,28.6c-0.7,2.5,0.9,5.6,3.5,6.2C15.3,114.5,17.9,113.1,18.7,110.4L18.7,110.4z"/>
	</g>
</g>
<g>
	<g>
		<path class="st0" d="M75.7,110.4c1.4-4.7,3-9.3,4.8-13.8c0.1-0.2,0.7-1.7,0.3-0.7c0.2-0.6,0.5-1.1,0.7-1.7c0.5-1.1,1-2.3,1.5-3.4
			c1.1-2.2,2.2-4.4,3.3-6.6c-2.9,0-5.8,0-8.6,0C82.5,93.8,90,102,99,107.6c-0.6-2.3-1.2-4.6-1.8-6.8c-3.5,6-5.8,12.7-7.7,19.3
			c-2,7-4,13.9-6,20.9c3-0.4,6.1-0.8,9.1-1.2c-5.8-10.2-12.2-20-19.3-29.3c-1.6-2.1-4.4-3.4-6.8-1.8c-2.1,1.3-3.5,4.6-1.8,6.8
			c7.1,9.4,13.5,19.2,19.3,29.3c2.1,3.8,8,2.9,9.1-1.2c1.9-6.8,3.9-13.7,5.8-20.5c0.9-3.1,1.8-6.2,3-9.2c0.3-0.7,0.5-1.4,0.8-2.1
			c0.4-1.1-0.2,0.5,0.2-0.5c0.2-0.4,0.4-0.8,0.6-1.2c0.7-1.5,1.5-2.9,2.3-4.4c1.4-2.4,0.5-5.4-1.8-6.8c-1-0.6-2-1.3-3-2
			c-0.2-0.2-0.4-0.3-0.6-0.5c-1-0.8,0.5,0.4-0.1-0.1c-0.5-0.4-0.9-0.7-1.4-1.1c-1.8-1.5-3.5-3.2-5.1-5c-0.8-0.8-1.5-1.7-2.2-2.6
			c-0.4-0.5,0.5,0.7-0.1-0.1c-0.2-0.2-0.3-0.4-0.5-0.6c-0.3-0.5-0.7-1-1-1.5c-1.4-2-2.6-4.2-3.7-6.4c-1.6-3.4-6.9-3.2-8.6,0
			c-4.9,9.1-8.8,18.7-11.7,28.6c-0.7,2.5,0.9,5.6,3.5,6.2C72.3,114.5,74.9,113.1,75.7,110.4L75.7,110.4z"/>
	</g>
</g>
<g>
	<g>
		<path class="st0" d="M132.7,110.4c1.4-4.7,3-9.3,4.8-13.8c0.1-0.2,0.7-1.7,0.3-0.7c0.2-0.6,0.5-1.1,0.7-1.7c0.5-1.1,1-2.3,1.5-3.4
			c1.1-2.2,2.2-4.4,3.3-6.6c-2.9,0-5.8,0-8.6,0c4.7,9.6,12.2,17.8,21.2,23.4c-0.6-2.3-1.2-4.6-1.8-6.8c-3.5,6-5.8,12.7-7.7,19.3
			c-2,7-4,13.9-6,20.9c3-0.4,6.1-0.8,9.1-1.2c-5.8-10.2-12.2-20-19.3-29.3c-1.6-2.1-4.4-3.4-6.8-1.8c-2.1,1.3-3.5,4.6-1.8,6.8
			c7.1,9.4,13.5,19.2,19.3,29.3c2.1,3.8,8,2.9,9.1-1.2c1.9-6.8,3.9-13.7,5.8-20.5c0.9-3.1,1.8-6.2,3-9.2c0.3-0.7,0.5-1.4,0.8-2.1
			c0.4-1.1-0.2,0.5,0.2-0.5c0.2-0.4,0.4-0.8,0.6-1.2c0.7-1.5,1.5-2.9,2.3-4.4c1.4-2.4,0.5-5.4-1.8-6.8c-1-0.6-2-1.3-3-2
			c-0.2-0.2-0.4-0.3-0.6-0.5c-1-0.8,0.5,0.4-0.1-0.1c-0.5-0.4-0.9-0.7-1.4-1.1c-1.8-1.5-3.5-3.2-5.1-5c-0.8-0.8-1.5-1.7-2.2-2.6
			c-0.4-0.5,0.5,0.7-0.1-0.1c-0.2-0.2-0.3-0.4-0.5-0.6c-0.3-0.5-0.7-1-1-1.5c-1.4-2-2.6-4.2-3.7-6.4c-1.6-3.4-6.9-3.2-8.6,0
			c-4.9,9.1-8.8,18.7-11.7,28.6c-0.7,2.5,0.9,5.6,3.5,6.2C129.3,114.5,131.9,113.1,132.7,110.4L132.7,110.4z"/>
	</g>
</g>
<g>
	<g>
		<path class="st0" d="M189.7,110.4c1.4-4.7,3-9.3,4.8-13.8c0.1-0.2,0.7-1.7,0.3-0.7c0.2-0.6,0.5-1.1,0.7-1.7c0.5-1.1,1-2.3,1.5-3.4
			c1.1-2.2,2.2-4.4,3.3-6.6c-2.9,0-5.8,0-8.6,0c4.7,9.6,12.2,17.8,21.2,23.4c-0.6-2.3-1.2-4.6-1.8-6.8c-3.5,6-5.8,12.7-7.7,19.3
			c-2,7-4,13.9-6,20.9c3-0.4,6.1-0.8,9.1-1.2c-5.8-10.2-12.2-20-19.3-29.3c-1.6-2.1-4.4-3.4-6.8-1.8c-2.1,1.3-3.5,4.6-1.8,6.8
			c7.1,9.4,13.5,19.2,19.3,29.3c2.1,3.8,8,2.9,9.1-1.2c1.9-6.8,3.9-13.7,5.8-20.5c0.9-3.1,1.8-6.2,3-9.2c0.3-0.7,0.5-1.4,0.8-2.1
			c0.4-1.1-0.2,0.5,0.2-0.5c0.2-0.4,0.4-0.8,0.6-1.2c0.7-1.5,1.5-2.9,2.3-4.4c1.4-2.4,0.5-5.4-1.8-6.8c-1-0.6-2-1.3-3-2
			c-0.2-0.2-0.4-0.3-0.6-0.5c-1-0.8,0.5,0.4-0.1-0.1c-0.5-0.4-0.9-0.7-1.4-1.1c-1.8-1.5-3.5-3.2-5.1-5c-0.8-0.8-1.5-1.7-2.2-2.6
			c-0.4-0.5,0.5,0.7-0.1-0.1c-0.2-0.2-0.3-0.4-0.5-0.6c-0.3-0.5-0.7-1-1-1.5c-1.4-2-2.6-4.2-3.7-6.4c-1.6-3.4-6.9-3.2-8.6,0
			c-4.9,9.1-8.8,18.7-11.7,28.6c-0.7,2.5,0.9,5.6,3.5,6.2C186.3,114.5,188.9,113.1,189.7,110.4L189.7,110.4z"/>
	</g>
</g>
<g>
	<g>
		<path class="st0" d="M246.7,110.4c1.4-4.7,3-9.3,4.8-13.8c0.1-0.2,0.7-1.7,0.3-0.7c0.2-0.6,0.5-1.1,0.7-1.7c0.5-1.1,1-2.3,1.5-3.4
			c1.1-2.2,2.2-4.4,3.3-6.6c-2.9,0-5.8,0-8.6,0c4.7,9.6,12.2,17.8,21.2,23.4c-0.6-2.3-1.2-4.6-1.8-6.8c-3.5,6-5.8,12.7-7.7,19.3
			c-2,7-4,13.9-6,20.9c3-0.4,6.1-0.8,9.1-1.2c-5.8-10.2-12.2-20-19.3-29.3c-1.6-2.1-4.4-3.4-6.8-1.8c-2.1,1.3-3.5,4.6-1.8,6.8
			c7.1,9.4,13.5,19.2,19.3,29.3c2.1,3.8,8,2.9,9.1-1.2c1.9-6.8,3.9-13.7,5.8-20.5c0.9-3.1,1.8-6.2,3-9.2c0.3-0.7,0.5-1.4,0.8-2.1
			c0.4-1.1-0.2,0.5,0.2-0.5c0.2-0.4,0.4-0.8,0.6-1.2c0.7-1.5,1.5-2.9,2.3-4.4c1.4-2.4,0.5-5.4-1.8-6.8c-1-0.6-2-1.3-3-2
			c-0.2-0.2-0.4-0.3-0.6-0.5c-1-0.8,0.5,0.4-0.1-0.1c-0.5-0.4-0.9-0.7-1.4-1.1c-1.8-1.5-3.5-3.2-5.1-5c-0.8-0.8-1.5-1.7-2.2-2.6
			c-0.4-0.5,0.5,0.7-0.1-0.1c-0.2-0.2-0.3-0.4-0.5-0.6c-0.3-0.5-0.7-1-1-1.5c-1.4-2-2.6-4.2-3.7-6.4c-1.6-3.4-6.9-3.2-8.6,0
			c-4.9,9.1-8.8,18.7-11.7,28.6c-0.7,2.5,0.9,5.6,3.5,6.2C243.3,114.5,245.9,113.1,246.7,110.4L246.7,110.4z"/>
	</g>
</g>
<g>
	<g>
		<path class="st0" d="M18.7,187.4c1.4-4.7,3-9.3,4.8-13.8c0.1-0.2,0.7-1.7,0.3-0.7c0.2-0.6,0.5-1.1,0.7-1.7c0.5-1.1,1-2.3,1.5-3.4
			c1.1-2.2,2.2-4.4,3.3-6.6c-2.9,0-5.8,0-8.6,0C25.5,170.8,33,179,42,184.6c-0.6-2.3-1.2-4.6-1.8-6.8c-3.5,6-5.8,12.7-7.7,19.3
			c-2,7-4,13.9-6,20.9c3-0.4,6.1-0.8,9.1-1.2c-5.8-10.2-12.2-20-19.3-29.3c-1.6-2.1-4.4-3.4-6.8-1.8c-2.1,1.3-3.5,4.6-1.8,6.8
			c7.1,9.4,13.5,19.2,19.3,29.3c2.1,3.8,8,2.9,9.1-1.2c1.9-6.8,3.9-13.7,5.8-20.5c0.9-3.1,1.8-6.2,3-9.2c0.3-0.7,0.5-1.4,0.8-2.1
			c0.4-1.1-0.2,0.5,0.2-0.5c0.2-0.4,0.4-0.8,0.6-1.2c0.7-1.5,1.5-2.9,2.3-4.4c1.4-2.4,0.5-5.4-1.8-6.8c-1-0.6-2-1.3-3-2
			c-0.2-0.2-0.4-0.3-0.6-0.5c-1-0.8,0.5,0.4-0.1-0.1c-0.5-0.4-0.9-0.7-1.4-1.1c-1.8-1.5-3.5-3.2-5.1-5c-0.8-0.8-1.5-1.7-2.2-2.6
			c-0.4-0.5,0.5,0.7-0.1-0.1c-0.2-0.2-0.3-0.4-0.5-0.6c-0.3-0.5-0.7-1-1-1.5c-1.4-2-2.6-4.2-3.7-6.4c-1.6-3.4-6.9-3.2-8.6,0
			c-4.9,9.1-8.8,18.7-11.7,28.6c-0.7,2.5,0.9,5.6,3.5,6.2C15.3,191.5,17.9,190.1,18.7,187.4L18.7,187.4z"/>
	</g>
</g>
<g>
	<g>
		<path class="st0" d="M75.7,187.4c1.4-4.7,3-9.3,4.8-13.8c0.1-0.2,0.7-1.7,0.3-0.7c0.2-0.6,0.5-1.1,0.7-1.7c0.5-1.1,1-2.3,1.5-3.4
			c1.1-2.2,2.2-4.4,3.3-6.6c-2.9,0-5.8,0-8.6,0C82.5,170.8,90,179,99,184.6c-0.6-2.3-1.2-4.6-1.8-6.8c-3.5,6-5.8,12.7-7.7,19.3
			c-2,7-4,13.9-6,20.9c3-0.4,6.1-0.8,9.1-1.2c-5.8-10.2-12.2-20-19.3-29.3c-1.6-2.1-4.4-3.4-6.8-1.8c-2.1,1.3-3.5,4.6-1.8,6.8
			c7.1,9.4,13.5,19.2,19.3,29.3c2.1,3.8,8,2.9,9.1-1.2c1.9-6.8,3.9-13.7,5.8-20.5c0.9-3.1,1.8-6.2,3-9.2c0.3-0.7,0.5-1.4,0.8-2.1
			c0.4-1.1-0.2,0.5,0.2-0.5c0.2-0.4,0.4-0.8,0.6-1.2c0.7-1.5,1.5-2.9,2.3-4.4c1.4-2.4,0.5-5.4-1.8-6.8c-1-0.6-2-1.3-3-2
			c-0.2-0.2-0.4-0.3-0.6-0.5c-1-0.8,0.5,0.4-0.1-0.1c-0.5-0.4-0.9-0.7-1.4-1.1c-1.8-1.5-3.5-3.2-5.1-5c-0.8-0.8-1.5-1.7-2.2-2.6
			c-0.4-0.5,0.5,0.7-0.1-0.1c-0.2-0.2-0.3-0.4-0.5-0.6c-0.3-0.5-0.7-1-1-1.5c-1.4-2-2.6-4.2-3.7-6.4c-1.6-3.4-6.9-3.2-8.6,0
			c-4.9,9.1-8.8,18.7-11.7,28.6c-0.7,2.5,0.9,5.6,3.5,6.2C72.3,191.5,74.9,190.1,75.7,187.4L75.7,187.4z"/>
	</g>
</g>
<g>
	<g>
		<path class="st0" d="M132.7,187.4c1.4-4.7,3-9.3,4.8-13.8c0.1-0.2,0.7-1.7,0.3-0.7c0.2-0.6,0.5-1.1,0.7-1.7c0.5-1.1,1-2.3,1.5-3.4
			c1.1-2.2,2.2-4.4,3.3-6.6c-2.9,0-5.8,0-8.6,0c4.7,9.6,12.2,17.8,21.2,23.4c-0.6-2.3-1.2-4.6-1.8-6.8c-3.5,6-5.8,12.7-7.7,19.3
			c-2,7-4,13.9-6,20.9c3-0.4,6.1-0.8,9.1-1.2c-5.8-10.2-12.2-20-19.3-29.3c-1.6-2.1-4.4-3.4-6.8-1.8c-2.1,1.3-3.5,4.6-1.8,6.8
			c7.1,9.4,13.5,19.2,19.3,29.3c2.1,3.8,8,2.9,9.1-1.2c1.9-6.8,3.9-13.7,5.8-20.5c0.9-3.1,1.8-6.2,3-9.2c0.3-0.7,0.5-1.4,0.8-2.1
			c0.4-1.1-0.2,0.5,0.2-0.5c0.2-0.4,0.4-0.8,0.6-1.2c0.7-1.5,1.5-2.9,2.3-4.4c1.4-2.4,0.5-5.4-1.8-6.8c-1-0.6-2-1.3-3-2
			c-0.2-0.2-0.4-0.3-0.6-0.5c-1-0.8,0.5,0.4-0.1-0.1c-0.5-0.4-0.9-0.7-1.4-1.1c-1.8-1.5-3.5-3.2-5.1-5c-0.8-0.8-1.5-1.7-2.2-2.6
			c-0.4-0.5,0.5,0.7-0.1-0.1c-0.2-0.2-0.3-0.4-0.5-0.6c-0.3-0.5-0.7-1-1-1.5c-1.4-2-2.6-4.2-3.7-6.4c-1.6-3.4-6.9-3.2-8.6,0
			c-4.9,9.1-8.8,18.7-11.7,28.6c-0.7,2.5,0.9,5.6,3.5,6.2C129.3,191.5,131.9,190.1,132.7,187.4L132.7,187.4z"/>
	</g>
</g>
<g>
	<g>
		<path class="st0" d="M189.7,187.4c1.4-4.7,3-9.3,4.8-13.8c0.1-0.2,0.7-1.7,0.3-0.7c0.2-0.6,0.5-1.1,0.7-1.7c0.5-1.1,1-2.3,1.5-3.4
			c1.1-2.2,2.2-4.4,3.3-6.6c-2.9,0-5.8,0-8.6,0c4.7,9.6,12.2,17.8,21.2,23.4c-0.6-2.3-1.2-4.6-1.8-6.8c-3.5,6-5.8,12.7-7.7,19.3
			c-2,7-4,13.9-6,20.9c3-0.4,6.1-0.8,9.1-1.2c-5.8-10.2-12.2-20-19.3-29.3c-1.6-2.1-4.4-3.4-6.8-1.8c-2.1,1.3-3.5,4.6-1.8,6.8
			c7.1,9.4,13.5,19.2,19.3,29.3c2.1,3.8,8,2.9,9.1-1.2c1.9-6.8,3.9-13.7,5.8-20.5c0.9-3.1,1.8-6.2,3-9.2c0.3-0.7,0.5-1.4,0.8-2.1
			c0.4-1.1-0.2,0.5,0.2-0.5c0.2-0.4,0.4-0.8,0.6-1.2c0.7-1.5,1.5-2.9,2.3-4.4c1.4-2.4,0.5-5.4-1.8-6.8c-1-0.6-2-1.3-3-2
			c-0.2-0.2-0.4-0.3-0.6-0.5c-1-0.8,0.5,0.4-0.1-0.1c-0.5-0.4-0.9-0.7-1.4-1.1c-1.8-1.5-3.5-3.2-5.1-5c-0.8-0.8-1.5-1.7-2.2-2.6
			c-0.4-0.5,0.5,0.7-0.1-0.1c-0.2-0.2-0.3-0.4-0.5-0.6c-0.3-0.5-0.7-1-1-1.5c-1.4-2-2.6-4.2-3.7-6.4c-1.6-3.4-6.9-3.2-8.6,0
			c-4.9,9.1-8.8,18.7-11.7,28.6c-0.7,2.5,0.9,5.6,3.5,6.2C186.3,191.5,188.9,190.1,189.7,187.4L189.7,187.4z"/>
	</g>
</g>
<g>
	<g>
		<path class="st0" d="M246.7,187.4c1.4-4.7,3-9.3,4.8-13.8c0.1-0.2,0.7-1.7,0.3-0.7c0.2-0.6,0.5-1.1,0.7-1.7c0.5-1.1,1-2.3,1.5-3.4
			c1.1-2.2,2.2-4.4,3.3-6.6c-2.9,0-5.8,0-8.6,0c4.7,9.6,12.2,17.8,21.2,23.4c-0.6-2.3-1.2-4.6-1.8-6.8c-3.5,6-5.8,12.7-7.7,19.3
			c-2,7-4,13.9-6,20.9c3-0.4,6.1-0.8,9.1-1.2c-5.8-10.2-12.2-20-19.3-29.3c-1.6-2.1-4.4-3.4-6.8-1.8c-2.1,1.3-3.5,4.6-1.8,6.8
			c7.1,9.4,13.5,19.2,19.3,29.3c2.1,3.8,8,2.9,9.1-1.2c1.9-6.8,3.9-13.7,5.8-20.5c0.9-3.1,1.8-6.2,3-9.2c0.3-0.7,0.5-1.4,0.8-2.1
			c0.4-1.1-0.2,0.5,0.2-0.5c0.2-0.4,0.4-0.8,0.6-1.2c0.7-1.5,1.5-2.9,2.3-4.4c1.4-2.4,0.5-5.4-1.8-6.8c-1-0.6-2-1.3-3-2
			c-0.2-0.2-0.4-0.3-0.6-0.5c-1-0.8,0.5,0.4-0.1-0.1c-0.5-0.4-0.9-0.7-1.4-1.1c-1.8-1.5-3.5-3.2-5.1-5c-0.8-0.8-1.5-1.7-2.2-2.6
			c-0.4-0.5,0.5,0.7-0.1-0.1c-0.2-0.2-0.3-0.4-0.5-0.6c-0.3-0.5-0.7-1-1-1.5c-1.4-2-2.6-4.2-3.7-6.4c-1.6-3.4-6.9-3.2-8.6,0
			c-4.9,9.1-8.8,18.7-11.7,28.6c-0.7,2.5,0.9,5.6,3.5,6.2C243.3,191.5,245.9,190.1,246.7,187.4L246.7,187.4z"/>
	</g>
</g>
<g>
	<g>
		<path class="st0" d="M18.7,264.4c1.4-4.7,3-9.3,4.8-13.8c0.1-0.2,0.7-1.7,0.3-0.7c0.2-0.6,0.5-1.1,0.7-1.7c0.5-1.1,1-2.3,1.5-3.4
			c1.1-2.2,2.2-4.4,3.3-6.6c-2.9,0-5.8,0-8.6,0C25.5,247.8,33,256,42,261.6c-0.6-2.3-1.2-4.6-1.8-6.8c-3.5,6-5.8,12.7-7.7,19.3
			c-2,7-4,13.9-6,20.9c3-0.4,6.1-0.8,9.1-1.2c-5.8-10.2-12.2-20-19.3-29.3c-1.6-2.1-4.4-3.4-6.8-1.8c-2.1,1.3-3.5,4.6-1.8,6.8
			c7.1,9.4,13.5,19.2,19.3,29.3c2.1,3.8,8,2.9,9.1-1.2c1.9-6.8,3.9-13.7,5.8-20.5c0.9-3.1,1.8-6.2,3-9.2c0.3-0.7,0.5-1.4,0.8-2.1
			c0.4-1.1-0.2,0.5,0.2-0.5c0.2-0.4,0.4-0.8,0.6-1.2c0.7-1.5,1.5-2.9,2.3-4.4c1.4-2.4,0.5-5.4-1.8-6.8c-1-0.6-2-1.3-3-2
			c-0.2-0.2-0.4-0.3-0.6-0.5c-1-0.8,0.5,0.4-0.1-0.1c-0.5-0.4-0.9-0.7-1.4-1.1c-1.8-1.5-3.5-3.2-5.1-5c-0.8-0.8-1.5-1.7-2.2-2.6
			c-0.4-0.5,0.5,0.7-0.1-0.1c-0.2-0.2-0.3-0.4-0.5-0.6c-0.3-0.5-0.7-1-1-1.5c-1.4-2-2.6-4.2-3.7-6.4c-1.6-3.4-6.9-3.2-8.6,0
			c-4.9,9.1-8.8,18.7-11.7,28.6c-0.7,2.5,0.9,5.6,3.5,6.2C15.3,268.5,17.9,267.1,18.7,264.4L18.7,264.4z"/>
	</g>
</g>
<g>
	<g>
		<path class="st0" d="M75.7,264.4c1.4-4.7,3-9.3,4.8-13.8c0.1-0.2,0.7-1.7,0.3-0.7c0.2-0.6,0.5-1.1,0.7-1.7c0.5-1.1,1-2.3,1.5-3.4
			c1.1-2.2,2.2-4.4,3.3-6.6c-2.9,0-5.8,0-8.6,0C82.5,247.8,90,256,99,261.6c-0.6-2.3-1.2-4.6-1.8-6.8c-3.5,6-5.8,12.7-7.7,19.3
			c-2,7-4,13.9-6,20.9c3-0.4,6.1-0.8,9.1-1.2c-5.8-10.2-12.2-20-19.3-29.3c-1.6-2.1-4.4-3.4-6.8-1.8c-2.1,1.3-3.5,4.6-1.8,6.8
			c7.1,9.4,13.5,19.2,19.3,29.3c2.1,3.8,8,2.9,9.1-1.2c1.9-6.8,3.9-13.7,5.8-20.5c0.9-3.1,1.8-6.2,3-9.2c0.3-0.7,0.5-1.4,0.8-2.1
			c0.4-1.1-0.2,0.5,0.2-0.5c0.2-0.4,0.4-0.8,0.6-1.2c0.7-1.5,1.5-2.9,2.3-4.4c1.4-2.4,0.5-5.4-1.8-6.8c-1-0.6-2-1.3-3-2
			c-0.2-0.2-0.4-0.3-0.6-0.5c-1-0.8,0.5,0.4-0.1-0.1c-0.5-0.4-0.9-0.7-1.4-1.1c-1.8-1.5-3.5-3.2-5.1-5c-0.8-0.8-1.5-1.7-2.2-2.6
			c-0.4-0.5,0.5,0.7-0.1-0.1c-0.2-0.2-0.3-0.4-0.5-0.6c-0.3-0.5-0.7-1-1-1.5c-1.4-2-2.6-4.2-3.7-6.4c-1.6-3.4-6.9-3.2-8.6,0
			c-4.9,9.1-8.8,18.7-11.7,28.6c-0.7,2.5,0.9,5.6,3.5,6.2C72.3,268.5,74.9,267.1,75.7,264.4L75.7,264.4z"/>
	</g>
</g>
<g>
	<g>
		<path class="st0" d="M132.7,264.4c1.4-4.7,3-9.3,4.8-13.8c0.1-0.2,0.7-1.7,0.3-0.7c0.2-0.6,0.5-1.1,0.7-1.7c0.5-1.1,1-2.3,1.5-3.4
			c1.1-2.2,2.2-4.4,3.3-6.6c-2.9,0-5.8,0-8.6,0c4.7,9.6,12.2,17.8,21.2,23.4c-0.6-2.3-1.2-4.6-1.8-6.8c-3.5,6-5.8,12.7-7.7,19.3
			c-2,7-4,13.9-6,20.9c3-0.4,6.1-0.8,9.1-1.2c-5.8-10.2-12.2-20-19.3-29.3c-1.6-2.1-4.4-3.4-6.8-1.8c-2.1,1.3-3.5,4.6-1.8,6.8
			c7.1,9.4,13.5,19.2,19.3,29.3c2.1,3.8,8,2.9,9.1-1.2c1.9-6.8,3.9-13.7,5.8-20.5c0.9-3.1,1.8-6.2,3-9.2c0.3-0.7,0.5-1.4,0.8-2.1
			c0.4-1.1-0.2,0.5,0.2-0.5c0.2-0.4,0.4-0.8,0.6-1.2c0.7-1.5,1.5-2.9,2.3-4.4c1.4-2.4,0.5-5.4-1.8-6.8c-1-0.6-2-1.3-3-2
			c-0.2-0.2-0.4-0.3-0.6-0.5c-1-0.8,0.5,0.4-0.1-0.1c-0.5-0.4-0.9-0.7-1.4-1.1c-1.8-1.5-3.5-3.2-5.1-5c-0.8-0.8-1.5-1.7-2.2-2.6
			c-0.4-0.5,0.5,0.7-0.1-0.1c-0.2-0.2-0.3-0.4-0.5-0.6c-0.3-0.5-0.7-1-1-1.5c-1.4-2-2.6-4.2-3.7-6.4c-1.6-3.4-6.9-3.2-8.6,0
			c-4.9,9.1-8.8,18.7-11.7,28.6c-0.7,2.5,0.9,5.6,3.5,6.2C129.3,268.5,131.9,267.1,132.7,264.4L132.7,264.4z"/>
	</g>
</g>
<g>
	<g>
		<path class="st0" d="M189.7,264.4c1.4-4.7,3-9.3,4.8-13.8c0.1-0.2,0.7-1.7,0.3-0.7c0.2-0.6,0.5-1.1,0.7-1.7c0.5-1.1,1-2.3,1.5-3.4
			c1.1-2.2,2.2-4.4,3.3-6.6c-2.9,0-5.8,0-8.6,0c4.7,9.6,12.2,17.8,21.2,23.4c-0.6-2.3-1.2-4.6-1.8-6.8c-3.5,6-5.8,12.7-7.7,19.3
			c-2,7-4,13.9-6,20.9c3-0.4,6.1-0.8,9.1-1.2c-5.8-10.2-12.2-20-19.3-29.3c-1.6-2.1-4.4-3.4-6.8-1.8c-2.1,1.3-3.5,4.6-1.8,6.8
			c7.1,9.4,13.5,19.2,19.3,29.3c2.1,3.8,8,2.9,9.1-1.2c1.9-6.8,3.9-13.7,5.8-20.5c0.9-3.1,1.8-6.2,3-9.2c0.3-0.7,0.5-1.4,0.8-2.1
			c0.4-1.1-0.2,0.5,0.2-0.5c0.2-0.4,0.4-0.8,0.6-1.2c0.7-1.5,1.5-2.9,2.3-4.4c1.4-2.4,0.5-5.4-1.8-6.8c-1-0.6-2-1.3-3-2
			c-0.2-0.2-0.4-0.3-0.6-0.5c-1-0.8,0.5,0.4-0.1-0.1c-0.5-0.4-0.9-0.7-1.4-1.1c-1.8-1.5-3.5-3.2-5.1-5c-0.8-0.8-1.5-1.7-2.2-2.6
			c-0.4-0.5,0.5,0.7-0.1-0.1c-0.2-0.2-0.3-0.4-0.5-0.6c-0.3-0.5-0.7-1-1-1.5c-1.4-2-2.6-4.2-3.7-6.4c-1.6-3.4-6.9-3.2-8.6,0
			c-4.9,9.1-8.8,18.7-11.7,28.6c-0.7,2.5,0.9,5.6,3.5,6.2C186.3,268.5,188.9,267.1,189.7,264.4L189.7,264.4z"/>
	</g>
</g>
<g>
	<g>
		<path class="st0" d="M246.7,264.4c1.4-4.7,3-9.3,4.8-13.8c0.1-0.2,0.7-1.7,0.3-0.7c0.2-0.6,0.5-1.1,0.7-1.7c0.5-1.1,1-2.3,1.5-3.4
			c1.1-2.2,2.2-4.4,3.3-6.6c-2.9,0-5.8,0-8.6,0c4.7,9.6,12.2,17.8,21.2,23.4c-0.6-2.3-1.2-4.6-1.8-6.8c-3.5,6-5.8,12.7-7.7,19.3
			c-2,7-4,13.9-6,20.9c3-0.4,6.1-0.8,9.1-1.2c-5.8-10.2-12.2-20-19.3-29.3c-1.6-2.1-4.4-3.4-6.8-1.8c-2.1,1.3-3.5,4.6-1.8,6.8
			c7.1,9.4,13.5,19.2,19.3,29.3c2.1,3.8,8,2.9,9.1-1.2c1.9-6.8,3.9-13.7,5.8-20.5c0.9-3.1,1.8-6.2,3-9.2c0.3-0.7,0.5-1.4,0.8-2.1
			c0.4-1.1-0.2,0.5,0.2-0.5c0.2-0.4,0.4-0.8,0.6-1.2c0.7-1.5,1.5-2.9,2.3-4.4c1.4-2.4,0.5-5.4-1.8-6.8c-1-0.6-2-1.3-3-2
			c-0.2-0.2-0.4-0.3-0.6-0.5c-1-0.8,0.5,0.4-0.1-0.1c-0.5-0.4-0.9-0.7-1.4-1.1c-1.8-1.5-3.5-3.2-5.1-5c-0.8-0.8-1.5-1.7-2.2-2.6
			c-0.4-0.5,0.5,0.7-0.1-0.1c-0.2-0.2-0.3-0.4-0.5-0.6c-0.3-0.5-0.7-1-1-1.5c-1.4-2-2.6-4.2-3.7-6.4c-1.6-3.4-6.9-3.2-8.6,0
			c-4.9,9.1-8.8,18.7-11.7,28.6c-0.7,2.5,0.9,5.6,3.5,6.2C243.3,268.5,245.9,267.1,246.7,264.4L246.7,264.4z"/>
	</g>
</g>
</svg>
