<?xml version="1.0" encoding="utf-8"?>
<svg version="1.1" id="Layer_1" xmlns="http://www.w3.org/2000/svg" xmlns:xlink="http://www.w3.org/1999/xlink" x="0px" y="0px"
	 viewBox="0 0 300 300" style="enable-background:new 0 0 300 300;" xml:space="preserve">
<style type="text/css">
	.st0{fill:#1D1D1B;}
</style>
<g>
	<g>
		<path class="st0" d="M314.3-18c-8.3,5.2-16.6,9-25.6,12.1c-9.2,3.1-18.6,5.3-28.2,7c-2.4,0.4-4.9,0.8-7.3,1.2
			c-2.6,0.4-4.2,0.6-6.6,0.9c-5,0.6-10.1,1.2-15.2,1.7c-11.1,1.1-22.3,1.8-33.4,2.4c-22.3,1.2-44.6,1.7-66.9,2.4
			c-22.4,0.7-44.8,1.4-67.2,2c-22.4,0.7-44.8,1.4-67.2,2c-2.8,0.1-5.7,0.2-8.5,0.3c-2.6,0.1-5.1,2.2-5,5c0.1,2.6,2.2,5.1,5,5
			c22.6-0.7,45.2-1.4,67.9-2.1s45.2-1.4,67.9-2.1c22.5-0.7,45.1-1.2,67.6-2.3c21.7-1,43.5-2.5,65-5.7c19.6-3,39.1-8,56.6-17.5
			c2.2-1.2,4.3-2.4,6.4-3.7c2.3-1.4,3.2-4.5,1.8-6.8C319.8-18.5,316.6-19.5,314.3-18L314.3-18z"/>
	</g>
</g>
<g>
	<g>
		<path class="st0" d="M-25.4,46.3c25.8-0.1,51.6-0.2,77.3-0.3c25.7-0.1,51.3-0.2,77-0.3c25.7-0.1,51.3-0.2,77-0.3
			c23.9-0.1,47.9-0.4,71.8-2.3c24-2,48-5.7,71-12.8c2.8-0.9,5.6-1.8,8.4-2.8c2.5-0.9,4.2-3.4,3.5-6.2c-0.7-2.5-3.6-4.4-6.2-3.5
			c-22.3,7.7-45.6,12.2-69,14.5c-23.8,2.4-47.8,2.9-71.7,3c-25.2,0.2-50.5,0.2-75.7,0.3c-25.7,0.1-51.3,0.2-77,0.3s-51.3,0.2-77,0.3
			c-3.2,0-6.3,0-9.5,0C-31.9,36.4-31.9,46.4-25.4,46.3L-25.4,46.3z"/>
	</g>
</g>
<g>
	<g>
		<path class="st0" d="M319,61.5c-22.6,10.7-47.8,14.8-72.6,16.5c-26.8,1.9-53.7,1.9-80.5,2.5c-28.4,0.6-56.9,1.3-85.3,1.9
			s-56.9,1.3-85.3,1.9c-14.2,0.3-28.4,0.6-42.7,1c-13.2,0.3-26.6,0.8-39.7-1.3c-3.2-0.5-6.4-1.2-9.6-2.1c-6.2-1.7-8.9,8-2.7,9.6
			c13.3,3.5,27.1,4.1,40.8,3.9c14.2-0.2,28.4-0.6,42.6-0.9c28.7-0.6,57.5-1.3,86.2-1.9c28.7-0.6,57.5-1.3,86.2-1.9
			c27.5-0.6,55.1-0.7,82.6-2.2c25.7-1.4,51.7-4.6,75.7-14.3c3.2-1.3,6.3-2.6,9.4-4.1c2.4-1.2,3.1-4.7,1.8-6.8
			C324.4,60.8,321.5,60.4,319,61.5L319,61.5z"/>
	</g>
</g>
<g>
	<g>
		<path class="st0" d="M310,108.3c-8.7,4.6-17.7,7.8-27.4,10.4c-5,1.3-10,2.4-15,3.3c-2.5,0.4-5,0.9-7.5,1.2
			c-2.6,0.4-4.2,0.6-6.8,0.9c-21.7,2.6-43.6,3.5-65.4,4.2c-22.6,0.8-45.2,1-67.8,1.2c-22.1,0.2-44.3,0.6-66.4,0.5
			c-20.9-0.1-41.2-1.3-61.1-7.6c-2.5-0.8-4.9-1.7-7.3-2.6c-2.4-0.9-5.6,1-6.2,3.5c-0.7,2.9,0.9,5.1,3.5,6.2
			c19.9,7.7,41.4,10,62.6,10.5c22.1,0.5,44.2-0.2,66.3-0.3c22.9-0.2,45.9-0.3,68.8-1c22.4-0.6,44.8-1.5,67.1-3.8
			c20.8-2.1,41.6-5.9,60.8-14.5c2.3-1,4.6-2.1,6.8-3.3c2.4-1.3,3.1-4.6,1.8-6.8C315.5,107.7,312.4,107.1,310,108.3L310,108.3z"/>
	</g>
</g>
<g>
	<g>
		<path class="st0" d="M314.3,140c-8.3,5.2-16.6,9-25.6,12.1c-9.2,3.1-18.6,5.3-28.2,7c-2.4,0.4-4.9,0.8-7.3,1.2
			c-2.6,0.4-4.2,0.6-6.6,0.9c-5,0.6-10.1,1.2-15.2,1.7c-11.1,1.1-22.3,1.8-33.4,2.4c-22.3,1.2-44.6,1.7-66.9,2.4
			c-22.4,0.7-44.8,1.4-67.2,2c-22.4,0.7-44.8,1.4-67.2,2c-2.8,0.1-5.7,0.2-8.5,0.3c-2.6,0.1-5.1,2.2-5,5c0.1,2.6,2.2,5.1,5,5
			c22.6-0.7,45.2-1.4,67.9-2.1c22.6-0.7,45.2-1.4,67.9-2.1c22.5-0.7,45.1-1.2,67.6-2.3c21.7-1,43.5-2.5,65-5.7
			c19.6-3,39.1-8,56.6-17.5c2.2-1.2,4.3-2.4,6.4-3.7c2.3-1.4,3.2-4.5,1.8-6.8C319.8,139.5,316.6,138.5,314.3,140L314.3,140z"/>
	</g>
</g>
<g>
	<g>
		<path class="st0" d="M-25.4,204.3c25.8-0.1,51.6-0.2,77.3-0.3c25.7-0.1,51.3-0.2,77-0.3c25.7-0.1,51.3-0.2,77-0.3
			c23.9-0.1,47.9-0.4,71.8-2.3c24-2,48-5.7,71-12.8c2.8-0.9,5.6-1.8,8.4-2.8c2.5-0.9,4.2-3.4,3.5-6.2c-0.7-2.5-3.6-4.4-6.2-3.5
			c-22.3,7.7-45.6,12.2-69,14.5c-23.8,2.4-47.8,2.9-71.7,3c-25.2,0.2-50.5,0.2-75.7,0.3c-25.7,0.1-51.3,0.2-77,0.3
			c-25.7,0.1-51.3,0.2-77,0.3c-3.2,0-6.3,0-9.5,0C-31.9,194.4-31.9,204.4-25.4,204.3L-25.4,204.3z"/>
	</g>
</g>
<g>
	<g>
		<path class="st0" d="M319,219.5c-22.6,10.7-47.8,14.8-72.6,16.5c-26.8,1.9-53.7,1.9-80.5,2.5c-28.4,0.6-56.9,1.3-85.3,1.9
			s-56.9,1.3-85.3,1.9c-14.2,0.3-28.4,0.6-42.7,1c-13.2,0.3-26.6,0.8-39.7-1.3c-3.2-0.5-6.4-1.2-9.6-2.1c-6.2-1.7-8.9,8-2.7,9.6
			c13.3,3.5,27.1,4.1,40.8,3.9c14.2-0.2,28.4-0.6,42.6-0.9c28.7-0.6,57.5-1.3,86.2-1.9c28.7-0.6,57.5-1.3,86.2-1.9
			c27.5-0.6,55.1-0.7,82.6-2.2c25.7-1.4,51.7-4.6,75.7-14.3c3.2-1.3,6.3-2.6,9.4-4.1c2.4-1.2,3.1-4.7,1.8-6.8
			C324.4,218.8,321.5,218.4,319,219.5L319,219.5z"/>
	</g>
</g>
<g>
	<g>
		<path class="st0" d="M310,266.3c-8.7,4.6-17.7,7.8-27.4,10.4c-5,1.3-10,2.4-15,3.3c-2.5,0.4-5,0.9-7.5,1.2
			c-2.6,0.4-4.2,0.6-6.8,0.9c-21.7,2.6-43.6,3.5-65.4,4.2c-22.6,0.8-45.2,1-67.8,1.2c-22.1,0.2-44.3,0.6-66.4,0.5
			c-20.9-0.1-41.2-1.3-61.1-7.6c-2.5-0.8-4.9-1.7-7.3-2.6c-2.4-0.9-5.6,1-6.2,3.5c-0.7,2.9,0.9,5.1,3.5,6.2
			c19.9,7.7,41.4,10,62.6,10.5c22.1,0.5,44.2-0.2,66.3-0.3c22.9-0.2,45.9-0.3,68.8-1c22.4-0.6,44.8-1.5,67.1-3.8
			c20.8-2.1,41.6-5.9,60.8-14.5c2.3-1,4.6-2.1,6.8-3.3c2.4-1.3,3.1-4.6,1.8-6.8C315.5,265.7,312.4,265.1,310,266.3L310,266.3z"/>
	</g>
</g>
</svg>
