<?xml version="1.0" encoding="utf-8"?>
<svg version="1.1" id="Layer_1" xmlns="http://www.w3.org/2000/svg" xmlns:xlink="http://www.w3.org/1999/xlink" x="0px" y="0px"
	 viewBox="0 0 300 300" style="enable-background:new 0 0 300 300;" xml:space="preserve">
<style type="text/css">
	.st0{fill:#000000;}
</style>
<g>
	<g>
		<path class="st0" d="M223,60.5c-9.6,11.6-20,22.4-30.8,32.9c-10.8,10.4-21.8,20.6-32.6,30.9c-10.8,10.4-21.4,21-31.2,32.5
			c-9.9,11.6-18.4,24-26.8,36.6c-4.1,6.2-8.3,12.3-12.7,18.3c-0.5,0.7-1.1,1.5-1.7,2.2c0.5-0.7,0,0.1-0.3,0.3
			c-0.3,0.4-0.6,0.8-0.9,1.2c-1.1,1.4-2.3,2.8-3.5,4.2c-2.4,2.8-4.9,5.6-7.6,8.2c-1.3,1.3-2.6,2.5-4,3.8c-1.9,1.8-1.9,5.3,0,7.1
			c2.1,1.9,5,1.9,7.1,0c11.2-10.1,20.2-22.4,28.6-34.9c4.1-6.1,8.2-12.3,12.4-18.3c2.1-3.1,4.3-6.1,6.5-9.2c0.5-0.7,1-1.4,1.5-2.1
			c0.2-0.2,1-1.3,0.4-0.5c0.3-0.4,0.6-0.8,0.9-1.2c1.1-1.5,2.3-2.9,3.5-4.3c9.5-11.6,20-22.4,30.7-32.8
			c10.8-10.4,21.8-20.6,32.6-30.9c10.9-10.4,21.5-21,31.3-32.5c1.2-1.4,2.4-2.8,3.6-4.3c1.7-2,2.1-5.1,0-7.1
			C228.3,58.8,224.8,58.3,223,60.5L223,60.5z"/>
	</g>
</g>
<g>
	<g>
		<path class="st0" d="M53.5,86.5c13.3,8.9,26.8,17.7,40.2,26.5c13.4,8.8,26.7,17.7,39.9,26.9c6.5,4.6,13,9.2,19.4,14
			c1.6,1.2,3.2,2.4,4.8,3.6c0.7,0.6,1.5,1.1,2.2,1.7c0.4,0.3,0.9,0.7,1.3,1c0,0,0.6,0.5,0.2,0.2c-0.4-0.3,0.3,0.3,0.4,0.3
			c3.2,2.5,6.3,5,9.5,7.5c11.3,9.2,22.5,18.7,32.3,29.5c2.4,2.6,4.7,5.3,6.9,8.1c0.3,0.3,0.5,0.6,0.8,1c0.3,0.4-0.1-0.2-0.2-0.2
			c0.1,0.2,0.2,0.3,0.4,0.5c0.6,0.8,1.1,1.5,1.7,2.3c1,1.4,2,2.9,3,4.3c1.9,2.9,3.6,5.8,5.2,8.9c0.8,1.5,1.6,3.1,2.3,4.7
			c0.2,0.4,0.4,0.9,0.6,1.3c0.1,0.2,0.2,0.4,0.2,0.6c0,0-0.3-0.8-0.1-0.3c0.3,0.8,0.7,1.6,1,2.4c0.6,1.6,1.2,3.3,1.7,5
			c0.8,2.5,3.5,4.3,6.2,3.5c2.5-0.8,4.3-3.5,3.5-6.2c-4.4-14.2-12.3-26.8-21.8-38.1c-9.4-11.1-20.2-20.9-31.4-30.1
			c-12.7-10.5-25.9-20.5-39.4-30.1c-13.2-9.4-26.6-18.4-40.1-27.4C90.6,99,77,90.2,63.6,81.2c-1.7-1.1-3.4-2.2-5-3.4
			c-2.2-1.5-5.6-0.5-6.8,1.8C50.4,82.2,51.2,84.9,53.5,86.5L53.5,86.5z"/>
	</g>
</g>
<g>
	<g>
		<path class="st0" d="M154,271.9c0-32.5,0-65,0-97.5s0-65,0-97.5c0-18.2,0-36.3,0-54.5c0-2.6-2.3-5.1-5-5c-2.7,0.1-5,2.2-5,5
			c0,32.5,0,65,0,97.5s0,65,0,97.5c0,18.2,0,36.3,0,54.5c0,2.6,2.3,5.1,5,5C151.7,276.8,154,274.7,154,271.9L154,271.9z"/>
	</g>
</g>
<g>
	<g>
		<path class="st0" d="M20.7,158.1c17.3-0.5,34.6-1.7,51.9-3.3c17.3-1.6,34.5-3.5,51.7-5.6c17.2-2.1,34.5-4.2,51.7-6.2
			c17.2-2,34.5-3.8,51.7-5.2c17.3-1.4,34.5-2.3,51.8-2.5c2.2,0,4.3,0,6.5,0c2.6,0,5.1-2.3,5-5c-0.1-2.7-2.2-5-5-5
			c-17.3,0-34.6,0.8-51.9,2.1c-17.3,1.3-34.5,3-51.7,5c-17.2,2-34.5,4.1-51.7,6.2c-17.2,2.1-34.5,4.1-51.7,5.8
			c-17.2,1.7-34.5,3-51.8,3.7c-2.2,0.1-4.3,0.2-6.5,0.2c-2.6,0.1-5.1,2.2-5,5C15.8,155.8,17.9,158.2,20.7,158.1L20.7,158.1z"/>
	</g>
</g>
</svg>
