<?xml version="1.0" encoding="utf-8"?>
<svg version="1.1" id="Layer_1" xmlns="http://www.w3.org/2000/svg" xmlns:xlink="http://www.w3.org/1999/xlink" x="0px" y="0px"
	 viewBox="0 0 300 300" style="enable-background:new 0 0 300 300;" xml:space="preserve">
<style type="text/css">
	.st0{fill:#1D1D1B;}
</style>
<g>
	<g>
		<path class="st0" d="M1.5,131.6c1.2-4.8,2.7-9.6,4.3-14.4c0.8-2.5,1.7-4.9,2.6-7.3c0.4-1.1,0.9-2.2,1.3-3.3
			c0.2-0.6,0.5-1.1,0.7-1.7c0.3-0.8,0.3-0.7-0.1,0.1c0.1-0.3,0.2-0.6,0.4-0.8c4-9.3,8.7-18.2,14.1-26.7C20.9,78,17,78.5,13,79
			c15.9,15.8,31.2,32.2,45.7,49.2c1.5,1.8,4.1,2.4,6.3,2.1c2.5-0.3,4.1-1.6,5.5-3.6C82,110.8,93.5,94.9,104.9,79c-4.3,0-8.6,0-13,0
			c12.3,17.4,26.7,33.4,42.9,47.3c1.9,1.6,3.8,2.4,6.3,2.1c2.1-0.3,4.6-1.5,5.5-3.6c7.6-17.9,17.5-34.9,29.3-50.3
			c-3.9,0.5-7.9,1-11.8,1.5c13.5,15.4,27.5,30.3,41.9,44.9c3.4,3.5,9.3,2.6,11.8-1.5c9.4-15.6,18.8-31.2,28.1-46.8
			c-3.9,0.5-7.9,1-11.8,1.5c18.4,15.3,36,31.5,52.8,48.6c3.6,3.7,9.1,2.4,11.8-1.5c11.3-16.5,22.6-33,33.9-49.5
			c2.2-3.2,0.7-8.5-2.7-10.3c-3.8-2-7.9-0.8-10.3,2.7c-11.3,16.5-22.6,33-33.9,49.5c3.9-0.5,7.9-1,11.8-1.5
			c-16.8-17.1-34.4-33.3-52.8-48.6c-1.9-1.6-3.8-2.4-6.3-2.1c-2.3,0.3-4.3,1.5-5.5,3.6c-9.4,15.6-18.8,31.2-28.1,46.8
			c3.9-0.5,7.9-1,11.8-1.5c-14.4-14.5-28.4-29.5-41.9-44.9c-1.5-1.8-4.1-2.4-6.3-2.1c-2.5,0.3-4,1.6-5.5,3.6
			c-11.9,15.4-21.7,32.4-29.3,50.3c3.9-0.5,7.9-1,11.8-1.5c-7.8-6.7-15.2-13.8-22.1-21.4c-3.5-3.8-6.8-7.7-10-11.7
			c-0.7-0.9-1.5-1.8-2.2-2.8c-0.4-0.5-1.1-1.4-0.3-0.4c-0.5-0.6-1-1.3-1.4-1.9c-1.5-2-3-4.1-4.5-6.2c-3.4-4.8-9.5-4.8-13,0
			c-11.5,15.9-22.9,31.8-34.4,47.7c3.9-0.5,7.9-1,11.8-1.5c-14.6-17-29.9-33.4-45.7-49.2c-3.5-3.5-9.2-2.6-11.8,1.5
			C0.6,87.6-7.8,107.2-13,127.6c-1,3.8,1.2,8.3,5.2,9.2C-3.9,137.7,0.4,135.7,1.5,131.6L1.5,131.6z"/>
	</g>
</g>
<g>
	<g>
		<path class="st0" d="M1.5,232.6c1.2-4.8,2.7-9.6,4.3-14.4c0.8-2.5,1.7-4.9,2.6-7.3c0.4-1.1,0.9-2.2,1.3-3.3
			c0.2-0.6,0.5-1.1,0.7-1.7c0.3-0.8,0.3-0.7-0.1,0.1c0.1-0.3,0.2-0.6,0.4-0.8c4-9.3,8.7-18.2,14.1-26.7c-3.9,0.5-7.9,1-11.8,1.5
			c15.9,15.8,31.2,32.2,45.7,49.2c1.5,1.8,4.1,2.4,6.3,2.1c2.5-0.3,4.1-1.6,5.5-3.6c11.5-15.9,22.9-31.8,34.4-47.7
			c-4.3,0-8.6,0-13,0c12.3,17.4,26.7,33.4,42.9,47.3c1.9,1.6,3.8,2.4,6.3,2.1c2.1-0.3,4.6-1.5,5.5-3.6c7.6-17.9,17.5-34.9,29.3-50.3
			c-3.9,0.5-7.9,1-11.8,1.5c13.5,15.4,27.5,30.3,41.9,44.9c3.4,3.5,9.3,2.6,11.8-1.5c9.4-15.6,18.8-31.2,28.1-46.8
			c-3.9,0.5-7.9,1-11.8,1.5c18.4,15.3,36,31.5,52.8,48.6c3.6,3.7,9.1,2.4,11.8-1.5c11.3-16.5,22.6-33,33.9-49.5
			c2.2-3.2,0.7-8.5-2.7-10.3c-3.8-2-7.9-0.8-10.3,2.7c-11.3,16.5-22.6,33-33.9,49.5c3.9-0.5,7.9-1,11.8-1.5
			c-16.8-17.1-34.4-33.3-52.8-48.6c-1.9-1.6-3.8-2.4-6.3-2.1c-2.3,0.3-4.3,1.5-5.5,3.6c-9.4,15.6-18.8,31.2-28.1,46.8
			c3.9-0.5,7.9-1,11.8-1.5c-14.4-14.5-28.4-29.5-41.9-44.9c-1.5-1.8-4.1-2.4-6.3-2.1c-2.5,0.3-4,1.6-5.5,3.6
			c-11.9,15.4-21.7,32.4-29.3,50.3c3.9-0.5,7.9-1,11.8-1.5c-7.8-6.7-15.2-13.8-22.1-21.4c-3.5-3.8-6.8-7.7-10-11.7
			c-0.7-0.9-1.5-1.8-2.2-2.8c-0.4-0.5-1.1-1.4-0.3-0.4c-0.5-0.6-1-1.3-1.4-1.9c-1.5-2-3-4.1-4.5-6.2c-3.4-4.8-9.5-4.8-13,0
			c-11.5,15.9-22.9,31.8-34.4,47.7c3.9-0.5,7.9-1,11.8-1.5c-14.6-17-29.9-33.4-45.7-49.2c-3.5-3.5-9.2-2.6-11.8,1.5
			C0.6,188.6-7.8,208.2-13,228.6c-1,3.8,1.2,8.3,5.2,9.2C-3.9,238.7,0.4,236.7,1.5,232.6L1.5,232.6z"/>
	</g>
</g>
</svg>
