<?xml version="1.0" encoding="utf-8"?>
<svg version="1.1" id="Layer_1" xmlns="http://www.w3.org/2000/svg" xmlns:xlink="http://www.w3.org/1999/xlink" x="0px" y="0px"
	 viewBox="0 0 300 300" style="enable-background:new 0 0 300 300;" xml:space="preserve">
<style type="text/css">
	.st0{fill:#1D1D1B;}
</style>
<g>
	<g>
		<path class="st0" d="M3.4,271.1c-0.3-2.9-0.5-5.8-0.4-8.7c0-1.4,0.1-2.8,0.2-4.1c0.1-0.6,0.1-1.2,0.2-1.8c0-0.3,0.1-0.6,0.1-0.9
			c-0.1,1.1,0-0.3,0.1-0.5c0.5-2.9,1.1-5.7,2-8.5c0.2-0.6,0.4-1.2,0.6-1.7c0.1-0.4,0.3-0.7,0.4-1.1c0.1-0.2,0.5-1.1,0.1-0.3
			c0.5-1.2,1.1-2.5,1.8-3.7c0.6-1.2,1.3-2.4,2.1-3.5c0.4-0.6,0.8-1.1,1.2-1.7c0.5-0.7-0.7,0.9,0.2-0.2c0.3-0.3,0.6-0.7,0.9-1
			c0.9-1,1.9-2,2.9-3c0.5-0.4,0.9-0.8,1.4-1.2c0.2-0.2,0.5-0.4,0.7-0.6c0.8-0.7-0.2,0.1,0.6-0.5c5.5-3.8,10.2-5.8,16.6-7.5
			c1.5-0.4,3.1-0.7,4.6-1c0.9-0.2,1.7-0.3,2.6-0.4c0.3-0.1,0.7-0.1,1-0.2c1-0.2-0.4,0,0.7-0.1c3.5-0.4,7-0.7,10.4-0.8
			c7.2-0.2,14.5,0.3,21.2,1.4c3.6,0.6,7.1,1.4,10.6,2.3c1.5,0.4,3.1,0.9,4.6,1.4c0.7,0.2,1.3,0.5,2,0.7c0.4,0.2,0.8,0.3,1.2,0.5
			c0.2,0.1,1.1,0.5,0.5,0.2c3.1,1.3,6,2.9,8.7,4.9c0.3,0.2,0.6,0.4,0.8,0.6c-0.6-0.5,0,0,0.1,0.1c0.6,0.5,1.2,1,1.8,1.6
			c1.1,1,2.1,2.2,3.1,3.4c0.5,0.6-0.4-0.5,0.1,0.1c0.2,0.3,0.5,0.6,0.7,1c0.4,0.5,0.7,1.1,1,1.6c0.4,0.7,0.7,1.4,1.1,2.1
			c0.1,0.1,0.4,0.9,0.1,0.1c0.2,0.4,0.3,0.9,0.5,1.3c0.5,1.3,0.8,2.7,1,4.1c-0.1-1,0,0.7,0.1,1.1c0,0.4,0,0.8,0,1.2
			c0,0.2-0.1,1.5,0,1.1c0.1-0.6-0.1,0.4-0.1,0.6c-0.1,0.4-0.2,0.8-0.3,1.2c-0.1,0.3-0.2,0.6-0.3,0.9c0.3-0.7,0,0-0.1,0.2
			c-0.2,0.4-0.4,0.7-0.6,1.1c-0.5,0.7,0.7-0.7-0.2,0.3c-0.5,0.5-1,1.1-1.6,1.5c0.7-0.6-0.6,0.3-0.8,0.5c-0.7,0.4-1.3,0.7-2,1
			c0.8-0.4-0.7,0.2-1,0.3c-0.8,0.3-1.6,0.5-2.5,0.7c-6.7,1.8-13,2.6-20,2.3c-3.2-0.1-5.7-0.5-9-1.5c-0.7-0.2-1.4-0.4-2-0.7
			c-0.1,0-1-0.4-0.5-0.2c0.6,0.3-0.8-0.4-0.7-0.3c-1.4-0.6-2.7-1.4-3.9-2.2c-0.3-0.2-0.6-0.4-1-0.7c-0.1-0.1-0.8-0.6-0.1-0.1
			c-0.5-0.4-1-0.8-1.4-1.2c-0.6-0.5-1.1-1.1-1.6-1.6c-0.2-0.2-0.4-0.5-0.6-0.7c-0.9-1.1,0.5,0.8-0.3-0.5c-1.9-2.9-2.7-4.8-3.5-8.1
			c-0.2-0.8-0.3-1.6-0.5-2.3c0-0.1-0.3-2.1-0.2-1.3c-0.2-1.5-0.3-3.1-0.4-4.6c-0.1-2.7-0.1-5.5,0.2-8.2c0.1-0.7,0.1-1.3,0.2-2
			c0.1-1,0-0.2,0,0c0.1-0.4,0.1-0.7,0.2-1.1c0.2-1.4,0.5-2.8,0.8-4.2c0.3-1.3,0.7-2.6,1.1-3.9c0.2-0.6,0.4-1.1,0.6-1.7
			c0.1-0.3,0.3-0.7,0.4-1c0.1-0.1,0.6-1.4,0.3-0.8c-0.3,0.7,0.3-0.7,0.3-0.6c0.1-0.3,0.2-0.5,0.4-0.8c0.3-0.6,0.6-1.2,0.9-1.8
			c0.7-1.2,1.4-2.4,2.1-3.6c0.4-0.6,0.7-1.1,1.1-1.6c0.2-0.3,0.4-0.6,0.7-0.9c-0.1,0.2-0.6,0.7,0,0c0.9-1.1,1.8-2.1,2.8-3.1
			c0.9-0.9,1.9-1.8,3-2.7c0.2-0.1,1-0.7,0.2-0.2c0.2-0.2,0.5-0.4,0.7-0.5c0.7-0.5,1.3-0.9,2-1.3c1.3-0.8,2.7-1.6,4.1-2.2
			c0.6-0.3,1.2-0.6,1.9-0.9c-0.7,0.3,0.3-0.1,0.5-0.2c0.5-0.2,1-0.4,1.5-0.5c3.1-1.1,6.2-1.9,9.4-2.5c1.6-0.3,3.1-0.6,4.7-0.8
			c1.2-0.2,2.4-0.3,4.2-0.5c14.2-1.5,29.2-2.3,43.1-0.5c13.5,1.7,26.8,6.6,38.7,12.5c11.3,5.5,22.5,11.8,32.6,19.3
			c0.5,0.4,1,0.8,1.5,1.2c-0.6-0.5,0,0,0.1,0.1c0.3,0.2,0.6,0.5,0.9,0.7c1.2,0.9,2.3,1.9,3.5,2.9c2.2,2,4.4,4,6.4,6.2
			c0.9,1,1.7,2,2.6,3c0.2,0.3,0.5,0.6,0.7,0.9c0.1,0.1,0.6,0.8,0.1,0.1c0.5,0.6,0.9,1.2,1.3,1.8c1.6,2.4,3.1,4.8,4.4,7.4
			c0.3,0.5,0.5,1.1,0.8,1.6c-0.4-0.9,0.4,0.9,0.4,1.1c0.5,1.4,1,2.7,1.3,4.1c0.3,1.2,0.6,2.5,0.8,3.7c-0.2-1.2,0.1,0.6,0.1,0.9
			c0.1,0.8,0.1,1.5,0.1,2.3c0,1.2-0.1,2.3-0.2,3.5c-0.1,0.8,0.2-1.2,0,0.1c-0.1,0.3-0.1,0.5-0.1,0.8c-0.1,0.7-0.3,1.3-0.5,2
			c-0.2,0.7-0.4,1.3-0.6,1.9c-0.1,0.2-0.4,0.9,0.1-0.1c-0.1,0.2-0.2,0.5-0.3,0.7c-0.3,0.5-0.5,1.1-0.8,1.6c-0.2,0.3-0.3,0.6-0.5,0.8
			c-0.2,0.2-0.9,1.1-0.2,0.3c-0.8,0.9-1.6,1.8-2.5,2.5c0.8-0.7-0.4,0.2-0.6,0.4c-0.6,0.4-1.3,0.7-1.9,1c0.8-0.4-0.1,0-0.3,0.1
			c-0.4,0.1-0.7,0.2-1.1,0.3c-0.6,0.2-1.2,0.3-1.8,0.4c0.9-0.1,0.1,0,0,0c-0.4,0-0.8,0-1.2,0.1c-0.9,0-1.7,0-2.6-0.1
			c-0.2,0-1-0.2-0.1,0c-0.3-0.1-0.6-0.1-0.9-0.2c-0.8-0.2-1.6-0.4-2.3-0.6c-0.6-0.2-1.2-0.4-1.8-0.6c-0.3-0.1-0.6-0.2-0.9-0.4
			c0.8,0.3-0.4-0.2-0.6-0.3c-1.3-0.6-2.6-1.3-3.8-2.1c-0.6-0.4-1.2-0.8-1.8-1.2c-0.7-0.5,0.8,0.7-0.3-0.2c-0.4-0.3-0.7-0.6-1.1-0.9
			c-2.1-1.9-4.1-3.9-5.9-6.2c0.5,0.7-0.1-0.1-0.2-0.3c-0.2-0.3-0.5-0.6-0.7-1c-0.4-0.5-0.7-1-1-1.6c-0.8-1.3-1.6-2.7-2.4-4
			c-1.5-2.9-2-4-3-7c-1-2.8-1.7-5.7-2.2-8.7c-0.1-0.6-0.2-1.2-0.3-1.9c0,0.1-0.2-1.5-0.1-0.7c0.1,0.7-0.1-0.8-0.1-0.7
			c-0.2-1.4-0.3-2.8-0.3-4.2c-0.1-3.1-0.1-6.3,0.2-9.4c0-0.4,0.1-0.7,0.1-1.1c-0.1,0.7,0-0.2,0-0.3c0.1-0.9,0.3-1.8,0.5-2.7
			c0.3-1.6,0.8-3.2,1.3-4.7c0.4-1.1,0.9-2.2,1.8-3.6c0.4-0.7,0.9-1.4,1.3-2.1c0.2-0.3,0.4-0.5,0.6-0.8c-0.5,0.7,0.4-0.5,0.4-0.5
			c1.9-2.3,4.1-4.3,6.5-6.2c1.9-1.5,4.6-3.5,7.2-5.2c5.5-3.7,11.1-7.5,17.1-10.5c5.5-2.7,11.8-4.4,18-4.5c1.6,0,3.3,0,4.9,0.1
			c1.9,0.1,3,0.3,4.4,0.5c3.4,0.6,6.7,1.4,10,2.4c6.8,2,13.3,4.6,19.8,7.3c3.2,1.3,6.5,2.7,9.7,3.9c3.6,1.4,8,1.7,10.9-1.3
			c2.7-2.8,2.5-6.5,1-9.8c-0.4-1-0.9-1.9-1.4-2.9c-0.1-0.3-0.3-0.6-0.4-0.9c0.1,0.2,0.3,1,0.1,0.1c-0.1-0.2-0.1-0.5-0.2-0.7
			c-0.4-1.1,0,1.1,0-0.1c0-2.6-2.3-5.1-5-5c-2.7,0.1-5,2.2-5,5c0,3.2,1.6,6,3,8.8c0.4,0.8-0.1-0.1-0.1-0.2c0,0.1,0.2,0.9,0.3,0.9
			c-0.1,0-0.1-1.3-0.1-0.4c0-0.6,0.2-1.2,0.5-1.7c0.3-0.4,0.6-0.5,1-0.7c0.4-0.3,0.8,0.3,0-0.1c0.9,0.4,0.1,0-0.3-0.1
			c-0.5-0.1-1-0.3-1.5-0.5c-6.9-2.6-13.7-5.7-20.6-8.2c-14.1-5.2-29.6-8.8-44.4-4.4c-7.1,2.1-13.6,5.7-19.7,9.6
			c-5.9,3.8-11.9,7.8-17.3,12.3c-5.6,4.7-10,10.5-12.4,17.4c-2.3,6.6-2.8,13.9-2.4,20.7c0.7,13.3,5,26.2,13.3,36.7
			c8.1,10.2,22.3,19,35.7,14.7c12.4-4,17.4-17.4,15.9-29.5c-1.6-12.8-9.1-24.1-18.1-33c-9.3-9.1-20.5-16.2-31.8-22.5
			c-12.9-7.2-26.5-13.8-40.9-17.5c-15.3-4-31.1-4.4-46.8-3.4c-14.3,0.9-29.8,2.1-42.3,9.7c-10.9,6.6-18.2,17.7-21.4,29.9
			c-1.5,5.9-2.2,12.1-2,18.2c0.2,7,1.4,14.4,4.9,20.6c7.5,13,23.7,17.1,37.7,16.1c7.3-0.5,15.2-1.7,21.9-4.7c7-3.2,11-10,10.9-17.6
			c-0.2-14.5-11.8-25.7-24.3-31.2c-14.1-6.1-30.2-8.3-45.5-7.8c-14.3,0.5-29.7,3.1-41.3,11.9C2,227.9-4.3,239.9-6.2,252.8
			c-0.9,6.1-1.1,12.2-0.4,18.3c0.3,2.6,2.1,5.1,5,5C0.8,275.9,3.7,273.8,3.4,271.1L3.4,271.1z"/>
	</g>
</g>
<g>
	<g>
		<path class="st0" d="M3.4,129.1c-0.3-2.9-0.5-5.8-0.4-8.7c0-1.4,0.1-2.8,0.2-4.1c0.1-0.6,0.1-1.2,0.2-1.8c0-0.3,0.1-0.6,0.1-0.9
			c-0.1,1.1,0-0.3,0.1-0.5c0.5-2.9,1.1-5.7,2-8.5c0.2-0.6,0.4-1.2,0.6-1.7c0.1-0.4,0.3-0.7,0.4-1.1c0.1-0.2,0.5-1.1,0.1-0.3
			c0.5-1.2,1.1-2.5,1.8-3.7c0.6-1.2,1.3-2.4,2.1-3.5c0.4-0.6,0.8-1.1,1.2-1.7c0.5-0.7-0.7,0.9,0.2-0.2c0.3-0.3,0.6-0.7,0.9-1
			c0.9-1,1.9-2,2.9-3c0.5-0.4,0.9-0.8,1.4-1.2c0.2-0.2,0.5-0.4,0.7-0.6c0.8-0.7-0.2,0.1,0.6-0.5c5.5-3.8,10.2-5.8,16.6-7.5
			c1.5-0.4,3.1-0.7,4.6-1c0.9-0.2,1.7-0.3,2.6-0.4c0.3-0.1,0.7-0.1,1-0.2c1-0.2-0.4,0,0.7-0.1c3.5-0.4,7-0.7,10.4-0.8
			c7.2-0.2,14.5,0.3,21.2,1.4c3.6,0.6,7.1,1.4,10.6,2.3c1.5,0.4,3.1,0.9,4.6,1.4c0.7,0.2,1.3,0.5,2,0.7c0.4,0.2,0.8,0.3,1.2,0.5
			c0.2,0.1,1.1,0.5,0.5,0.2c3.1,1.3,6,2.9,8.7,4.9c0.3,0.2,0.6,0.4,0.8,0.6c-0.6-0.5,0,0,0.1,0.1c0.6,0.5,1.2,1,1.8,1.6
			c1.1,1,2.1,2.2,3.1,3.4c0.5,0.6-0.4-0.5,0.1,0.1c0.2,0.3,0.5,0.6,0.7,1c0.4,0.5,0.7,1.1,1,1.6c0.4,0.7,0.7,1.4,1.1,2.1
			c0.1,0.1,0.4,0.9,0.1,0.1c0.2,0.4,0.3,0.9,0.5,1.3c0.5,1.3,0.8,2.7,1,4.1c-0.1-1,0,0.7,0.1,1.1c0,0.4,0,0.8,0,1.2
			c0,0.2-0.1,1.5,0,1.1c0.1-0.6-0.1,0.4-0.1,0.6c-0.1,0.4-0.2,0.8-0.3,1.2c-0.1,0.3-0.2,0.6-0.3,0.9c0.3-0.7,0,0-0.1,0.2
			c-0.2,0.4-0.4,0.7-0.6,1.1c-0.5,0.7,0.7-0.7-0.2,0.3c-0.5,0.5-1,1.1-1.6,1.5c0.7-0.6-0.6,0.3-0.8,0.5c-0.7,0.4-1.3,0.7-2,1
			c0.8-0.4-0.7,0.2-1,0.3c-0.8,0.3-1.6,0.5-2.5,0.7c-6.7,1.8-13,2.6-20,2.3c-3.2-0.1-5.7-0.5-9-1.5c-0.7-0.2-1.4-0.4-2-0.7
			c-0.1,0-1-0.4-0.5-0.2c0.6,0.3-0.8-0.4-0.7-0.3c-1.4-0.6-2.7-1.4-3.9-2.2c-0.3-0.2-0.6-0.4-1-0.7c-0.1-0.1-0.8-0.6-0.1-0.1
			c-0.5-0.4-1-0.8-1.4-1.2c-0.6-0.5-1.1-1.1-1.6-1.6c-0.2-0.2-0.4-0.5-0.6-0.7c-0.9-1.1,0.5,0.8-0.3-0.5c-1.9-2.9-2.7-4.8-3.5-8.1
			c-0.2-0.8-0.3-1.6-0.5-2.3c0-0.1-0.3-2.1-0.2-1.3c-0.2-1.5-0.3-3.1-0.4-4.6c-0.1-2.7-0.1-5.5,0.2-8.2c0.1-0.7,0.1-1.3,0.2-2
			c0.1-1,0-0.2,0,0c0.1-0.4,0.1-0.7,0.2-1.1c0.2-1.4,0.5-2.8,0.8-4.2c0.3-1.3,0.7-2.6,1.1-3.9c0.2-0.6,0.4-1.1,0.6-1.7
			c0.1-0.3,0.3-0.7,0.4-1c0.1-0.1,0.6-1.4,0.3-0.8c-0.3,0.7,0.3-0.7,0.3-0.6c0.1-0.3,0.2-0.5,0.4-0.8c0.3-0.6,0.6-1.2,0.9-1.8
			c0.7-1.2,1.4-2.4,2.1-3.6c0.4-0.6,0.7-1.1,1.1-1.6c0.2-0.3,0.4-0.6,0.7-0.9c-0.1,0.2-0.6,0.7,0,0c0.9-1.1,1.8-2.1,2.8-3.1
			c0.9-0.9,1.9-1.8,3-2.7c0.2-0.1,1-0.7,0.2-0.2c0.2-0.2,0.5-0.4,0.7-0.5c0.7-0.5,1.3-0.9,2-1.3c1.3-0.8,2.7-1.6,4.1-2.2
			c0.6-0.3,1.2-0.6,1.9-0.9c-0.7,0.3,0.3-0.1,0.5-0.2c0.5-0.2,1-0.4,1.5-0.5c3.1-1.1,6.2-1.9,9.4-2.5c1.6-0.3,3.1-0.6,4.7-0.8
			c1.2-0.2,2.4-0.3,4.2-0.5c14.2-1.5,29.2-2.3,43.1-0.5c13.5,1.7,26.8,6.6,38.7,12.5c11.3,5.5,22.5,11.8,32.6,19.3
			c0.5,0.4,1,0.8,1.5,1.2c-0.6-0.5,0,0,0.1,0.1c0.3,0.2,0.6,0.5,0.9,0.7c1.2,0.9,2.3,1.9,3.5,2.9c2.2,2,4.4,4,6.4,6.2
			c0.9,1,1.7,2,2.6,3c0.2,0.3,0.5,0.6,0.7,0.9c0.1,0.1,0.6,0.8,0.1,0.1c0.5,0.6,0.9,1.2,1.3,1.8c1.6,2.4,3.1,4.8,4.4,7.4
			c0.3,0.5,0.5,1.1,0.8,1.6c-0.4-0.9,0.4,0.9,0.4,1.1c0.5,1.4,1,2.7,1.3,4.1c0.3,1.2,0.6,2.5,0.8,3.7c-0.2-1.2,0.1,0.6,0.1,0.9
			c0.1,0.8,0.1,1.5,0.1,2.3c0,1.2-0.1,2.3-0.2,3.5c-0.1,0.8,0.2-1.2,0,0.1c-0.1,0.3-0.1,0.5-0.1,0.8c-0.1,0.7-0.3,1.3-0.5,2
			c-0.2,0.7-0.4,1.3-0.6,1.9c-0.1,0.2-0.4,0.9,0.1-0.1c-0.1,0.2-0.2,0.5-0.3,0.7c-0.3,0.5-0.5,1.1-0.8,1.6c-0.2,0.3-0.3,0.6-0.5,0.8
			c-0.2,0.2-0.9,1.1-0.2,0.3c-0.8,0.9-1.6,1.8-2.5,2.5c0.8-0.7-0.4,0.2-0.6,0.4c-0.6,0.4-1.3,0.7-1.9,1c0.8-0.4-0.1,0-0.3,0.1
			c-0.4,0.1-0.7,0.2-1.1,0.3c-0.6,0.2-1.2,0.3-1.8,0.4c0.9-0.1,0.1,0,0,0c-0.4,0-0.8,0-1.2,0.1c-0.9,0-1.7,0-2.6-0.1
			c-0.2,0-1-0.2-0.1,0c-0.3-0.1-0.6-0.1-0.9-0.2c-0.8-0.2-1.6-0.4-2.3-0.6c-0.6-0.2-1.2-0.4-1.8-0.6c-0.3-0.1-0.6-0.2-0.9-0.4
			c0.8,0.3-0.4-0.2-0.6-0.3c-1.3-0.6-2.6-1.3-3.8-2.1c-0.6-0.4-1.2-0.8-1.8-1.2c-0.7-0.5,0.8,0.7-0.3-0.2c-0.4-0.3-0.7-0.6-1.1-0.9
			c-2.1-1.9-4.1-3.9-5.9-6.2c0.5,0.7-0.1-0.1-0.2-0.3c-0.2-0.3-0.5-0.6-0.7-1c-0.4-0.5-0.7-1-1-1.6c-0.8-1.3-1.6-2.7-2.4-4
			c-1.5-2.9-2-4-3-7c-1-2.8-1.7-5.7-2.2-8.7c-0.1-0.6-0.2-1.2-0.3-1.9c0,0.1-0.2-1.5-0.1-0.7c0.1,0.7-0.1-0.8-0.1-0.7
			c-0.2-1.4-0.3-2.8-0.3-4.2c-0.1-3.1-0.1-6.3,0.2-9.4c0-0.4,0.1-0.7,0.1-1.1c-0.1,0.7,0-0.2,0-0.3c0.1-0.9,0.3-1.8,0.5-2.7
			c0.3-1.6,0.8-3.2,1.3-4.7c0.4-1.1,0.9-2.2,1.8-3.6c0.4-0.7,0.9-1.4,1.3-2.1c0.2-0.3,0.4-0.5,0.6-0.8c-0.5,0.7,0.4-0.5,0.4-0.5
			c1.9-2.3,4.1-4.3,6.5-6.2c1.9-1.5,4.6-3.5,7.2-5.2c5.5-3.7,11.1-7.5,17.1-10.5c5.5-2.7,11.8-4.4,18-4.5c1.6,0,3.3,0,4.9,0.1
			c1.9,0.1,3,0.3,4.4,0.5c3.4,0.6,6.7,1.4,10,2.4c6.8,2,13.3,4.6,19.8,7.3c3.2,1.3,6.5,2.7,9.7,3.9c3.6,1.4,8,1.7,10.9-1.3
			c2.7-2.8,2.5-6.5,1-9.8c-0.4-1-0.9-1.9-1.4-2.9c-0.1-0.3-0.3-0.6-0.4-0.9c0.1,0.2,0.3,1,0.1,0.1c-0.1-0.2-0.1-0.5-0.2-0.7
			c-0.4-1.1,0,1.1,0-0.1c0-2.6-2.3-5.1-5-5c-2.7,0.1-5,2.2-5,5c0,3.2,1.6,6,3,8.8c0.4,0.8-0.1-0.1-0.1-0.2c0,0.1,0.2,0.9,0.3,0.9
			c-0.1,0-0.1-1.3-0.1-0.4c0-0.6,0.2-1.2,0.5-1.7c0.3-0.4,0.6-0.5,1-0.7c0.4-0.3,0.8,0.3,0-0.1c0.9,0.4,0.1,0-0.3-0.1
			c-0.5-0.1-1-0.3-1.5-0.5c-6.9-2.6-13.7-5.7-20.6-8.2c-14.1-5.2-29.6-8.8-44.4-4.4c-7.1,2.1-13.6,5.7-19.7,9.6
			c-5.9,3.8-11.9,7.8-17.3,12.3c-5.6,4.7-10,10.5-12.4,17.4c-2.3,6.6-2.8,13.9-2.4,20.7c0.7,13.3,5,26.2,13.3,36.7
			c8.1,10.2,22.3,19,35.7,14.7c12.4-4,17.4-17.4,15.9-29.5c-1.6-12.8-9.1-24.1-18.1-33c-9.3-9.1-20.5-16.2-31.8-22.5
			c-12.9-7.2-26.5-13.8-40.9-17.5c-15.3-4-31.1-4.4-46.8-3.4c-14.3,0.9-29.8,2.1-42.3,9.7c-10.9,6.6-18.2,17.7-21.4,29.9
			c-1.5,5.9-2.2,12.1-2,18.2c0.2,7,1.4,14.4,4.9,20.6c7.5,13,23.7,17.1,37.7,16.1c7.3-0.5,15.2-1.7,21.9-4.7c7-3.2,11-10,10.9-17.6
			c-0.2-14.5-11.8-25.7-24.3-31.2c-14.1-6.1-30.2-8.3-45.5-7.8C39.5,66.6,24.1,69.2,12.5,78C2,85.9-4.3,97.9-6.2,110.8
			c-0.9,6.1-1.1,12.2-0.4,18.3c0.3,2.6,2.1,5.1,5,5C0.8,133.9,3.7,131.8,3.4,129.1L3.4,129.1z"/>
	</g>
</g>
</svg>
