<?xml version="1.0" encoding="utf-8"?>
<svg version="1.1" id="Layer_1" xmlns="http://www.w3.org/2000/svg" xmlns:xlink="http://www.w3.org/1999/xlink" x="0px" y="0px"
	 viewBox="0 0 300 300" style="enable-background:new 0 0 300 300;" xml:space="preserve">
<g>
	<g>
		<path d="M-0.9,173.2c14.8-4.7,26.6-16.7,31.6-31.3c1.4-4.1,2.2-8.4,2.4-12.7c-2,0.3-3.9,0.5-5.9,0.8c4.8,14.7,15.6,27.4,30.2,32.9
			c14.8,5.6,32.1,2.9,43.6-8.2c5.7-5.6,9.8-13,10.9-21c0.2-1.6-0.4-3.2-2.1-3.7c-1.4-0.4-3.5,0.5-3.7,2.1
			c-1.7,12.6-11.3,23.1-23.5,26.4c-13.6,3.7-28.3-1.1-38.1-11c-5.3-5.3-9.2-12-11.6-19.1c-1.1-3.2-5.7-2.6-5.9,0.8
			c-0.7,13.2-8.3,26-19.4,33.3c-3.3,2.2-6.6,3.8-10.2,4.9C-6.2,168.6-4.6,174.4-0.9,173.2L-0.9,173.2z"/>
	</g>
</g>
<g>
	<g>
		<path d="M105,135.3c3.5,14.1,15.1,25.6,29,29.7c16.1,4.8,32.4-2,45.3-11.5c7.1-5.2,15.3-11.6,15.7-21.2c0.1-1.6-1.4-3-3-3
			c-1.7,0-2.9,1.4-3,3c-0.3,6.4-6.5,11.3-11.4,15c-6.1,4.6-12.7,8.7-19.9,11.1c-6.5,2.2-13.5,2.9-20,1.4c-6.1-1.4-11.7-4.4-16.3-8.6
			c-5.3-4.8-9-10.7-10.7-17.6C109.8,129.9,104,131.5,105,135.3L105,135.3z"/>
	</g>
</g>
<g>
	<g>
		<path d="M188.9,136.4c5.5,13.7,14.9,26.7,29.5,31.4c6.9,2.2,14.7,2.5,21.5-0.2c7.4-2.9,12.7-8.9,17.8-14.9
			c5.7-6.6,10.7-14,11.4-23c0.1-1.6-1.5-3-3-3c-1.7,0-2.9,1.4-3,3c-0.5,6.5-4.3,12.2-8.3,17.1c-2.2,2.7-4.6,5.3-7,7.9
			c-2.4,2.5-4.9,4.7-7.9,6.3c-11.5,6-25.4,0.7-33.9-8.1c-5-5.2-8.7-11.5-11.3-18.2c-0.6-1.5-2-2.6-3.7-2.1
			C189.6,133.1,188.3,134.9,188.9,136.4L188.9,136.4z"/>
	</g>
</g>
<g>
	<g>
		<path d="M263.7,129c-0.6,8.7,0.7,17.8,5.3,25.3c4.3,7,11.2,12.3,19.4,13.7c5.1,0.9,10.3,0.7,15.5,0.3c1.6-0.1,3-1.3,3-3
			c0-1.5-1.4-3.1-3-3c-7.6,0.5-15.7,1-22.3-3.3c-5.8-3.7-9.4-10.1-11-16.7c-1-4.4-1.2-8.9-0.9-13.3c0.1-1.6-1.5-3-3-3
			C265,126,263.8,127.4,263.7,129L263.7,129z"/>
	</g>
</g>
<g>
	<g>
		<path d="M-0.9,61.2c14.8-4.7,26.6-16.7,31.6-31.3c1.4-4.1,2.2-8.4,2.4-12.7c-2,0.3-3.9,0.5-5.9,0.8c4.8,14.7,15.6,27.4,30.2,32.9
			c14.8,5.6,32.1,2.9,43.6-8.2c5.7-5.6,9.8-13,10.9-21c0.2-1.6-0.4-3.2-2.1-3.7c-1.4-0.4-3.5,0.5-3.7,2.1
			c-1.7,12.6-11.3,23.1-23.5,26.4c-13.6,3.7-28.3-1.1-38.1-11c-5.3-5.3-9.2-12-11.6-19.1c-1.1-3.2-5.7-2.6-5.9,0.8
			c-0.7,13.2-8.3,26-19.4,33.3c-3.3,2.2-6.6,3.8-10.2,4.9C-6.2,56.6-4.6,62.4-0.9,61.2L-0.9,61.2z"/>
	</g>
</g>
<g>
	<g>
		<path d="M105,23.3c3.5,14.1,15.1,25.6,29,29.7c16.1,4.8,32.4-2,45.3-11.5c7.1-5.2,15.3-11.6,15.7-21.2c0.1-1.6-1.4-3-3-3
			c-1.7,0-2.9,1.4-3,3c-0.3,6.4-6.5,11.3-11.4,15c-6.1,4.6-12.7,8.7-19.9,11.1c-6.5,2.2-13.5,2.9-20,1.4c-6.1-1.4-11.7-4.4-16.3-8.6
			c-5.3-4.8-9-10.7-10.7-17.6C109.8,17.9,104,19.5,105,23.3L105,23.3z"/>
	</g>
</g>
<g>
	<g>
		<path d="M188.9,24.4c5.5,13.7,14.9,26.7,29.5,31.4c6.9,2.2,14.7,2.5,21.5-0.2c7.4-2.9,12.7-8.9,17.8-14.9c5.7-6.6,10.7-14,11.4-23
			c0.1-1.6-1.5-3-3-3c-1.7,0-2.9,1.4-3,3c-0.5,6.5-4.3,12.2-8.3,17.1c-2.2,2.7-4.6,5.3-7,7.9c-2.4,2.5-4.9,4.7-7.9,6.3
			c-11.5,6-25.4,0.7-33.9-8.1c-5-5.2-8.7-11.5-11.3-18.2c-0.6-1.5-2-2.6-3.7-2.1C189.6,21.1,188.3,22.9,188.9,24.4L188.9,24.4z"/>
	</g>
</g>
<g>
	<g>
		<path d="M263.7,17c-0.6,8.7,0.7,17.8,5.3,25.3c4.3,7,11.2,12.3,19.4,13.7c5.1,0.9,10.3,0.7,15.5,0.3c1.6-0.1,3-1.3,3-3
			c0-1.5-1.4-3.1-3-3c-7.6,0.5-15.7,1-22.3-3.3c-5.8-3.7-9.4-10.1-11-16.7c-1-4.4-1.2-8.9-0.9-13.3c0.1-1.6-1.5-3-3-3
			C265,14,263.8,15.4,263.7,17L263.7,17z"/>
	</g>
</g>
<g>
	<g>
		<path d="M-1.9,285.2c14.8-4.7,26.6-16.7,31.6-31.3c1.4-4.1,2.2-8.4,2.4-12.7c-2,0.3-3.9,0.5-5.9,0.8c4.8,14.7,15.6,27.4,30.2,32.9
			c14.8,5.6,32.1,2.9,43.6-8.2c5.7-5.6,9.8-13,10.9-21c0.2-1.6-0.4-3.2-2.1-3.7c-1.4-0.4-3.5,0.5-3.7,2.1
			c-1.7,12.6-11.3,23.1-23.5,26.4c-13.6,3.7-28.3-1.1-38.1-11c-5.3-5.3-9.2-12-11.6-19.1c-1.1-3.2-5.7-2.6-5.9,0.8
			c-0.7,13.2-8.3,26-19.4,33.3c-3.3,2.2-6.6,3.8-10.2,4.9C-7.2,280.6-5.6,286.4-1.9,285.2L-1.9,285.2z"/>
	</g>
</g>
<g>
	<g>
		<path d="M104,247.3c3.5,14.1,15.1,25.6,29,29.7c16.1,4.8,32.4-2,45.3-11.5c7.1-5.2,15.3-11.6,15.7-21.2c0.1-1.6-1.4-3-3-3
			c-1.7,0-2.9,1.4-3,3c-0.3,6.4-6.5,11.3-11.4,15c-6.1,4.6-12.7,8.7-19.9,11.1c-6.5,2.2-13.5,2.9-20,1.4c-6.1-1.4-11.7-4.4-16.3-8.6
			c-5.3-4.8-9-10.7-10.7-17.6C108.8,241.9,103,243.5,104,247.3L104,247.3z"/>
	</g>
</g>
<g>
	<g>
		<path d="M187.9,248.4c5.5,13.7,14.9,26.7,29.5,31.4c6.9,2.2,14.7,2.5,21.5-0.2c7.4-2.9,12.7-8.9,17.8-14.9
			c5.7-6.6,10.7-14,11.4-23c0.1-1.6-1.5-3-3-3c-1.7,0-2.9,1.4-3,3c-0.5,6.5-4.3,12.2-8.3,17.1c-2.2,2.7-4.6,5.3-7,7.9
			c-2.4,2.5-4.9,4.7-7.9,6.3c-11.5,6-25.4,0.7-33.9-8.1c-5-5.2-8.7-11.5-11.3-18.2c-0.6-1.5-2-2.6-3.7-2.1
			C188.6,245.1,187.3,246.9,187.9,248.4L187.9,248.4z"/>
	</g>
</g>
<g>
	<g>
		<path d="M262.7,241c-0.6,8.7,0.7,17.8,5.3,25.3c4.3,7,11.2,12.3,19.4,13.7c5.1,0.9,10.3,0.7,15.5,0.3c1.6-0.1,3-1.3,3-3
			c0-1.5-1.4-3.1-3-3c-7.6,0.5-15.7,1-22.3-3.3c-5.8-3.7-9.4-10.1-11-16.7c-1-4.4-1.2-8.9-0.9-13.3c0.1-1.6-1.5-3-3-3
			C264,238,262.8,239.4,262.7,241L262.7,241z"/>
	</g>
</g>
</svg>
