<?xml version="1.0" encoding="utf-8"?>
<svg version="1.1" id="Layer_1" xmlns="http://www.w3.org/2000/svg" xmlns:xlink="http://www.w3.org/1999/xlink" x="0px" y="0px"
	 viewBox="0 0 300 300" style="enable-background:new 0 0 300 300;" xml:space="preserve">
<style type="text/css">
	.st0{fill:#1D1D1B;}
</style>
<g>
	<g>
		<path class="st0" d="M72.3,20.2c-3,3.6-6.2,7-9.6,10.3c-3.4,3.2-6.8,6.4-10.2,9.6c-3.4,3.2-6.7,6.6-9.7,10.1
			c-3.1,3.6-5.7,7.5-8.4,11.4c-1.3,1.9-2.6,3.8-4,5.7c-0.2,0.2-0.3,0.5-0.5,0.7c0.2-0.2,0,0-0.1,0.1c-0.1,0.1-0.2,0.2-0.3,0.4
			c-0.3,0.4-0.7,0.9-1.1,1.3c-0.7,0.9-1.5,1.7-2.4,2.6c-0.4,0.4-0.8,0.8-1.2,1.2c-0.6,0.6-0.6,1.7,0,2.2c0.7,0.6,1.6,0.6,2.2,0
			c3.5-3.2,6.3-7,8.9-10.9c1.3-1.9,2.6-3.8,3.9-5.7c0.7-1,1.3-1.9,2-2.9c0.2-0.2,0.3-0.4,0.5-0.7c0.1-0.1,0.3-0.4,0.1-0.2
			c0.1-0.1,0.2-0.2,0.3-0.4c0.3-0.5,0.7-0.9,1.1-1.3c3-3.6,6.2-7,9.6-10.2c3.4-3.2,6.8-6.4,10.2-9.6c3.4-3.2,6.7-6.6,9.8-10.1
			c0.4-0.4,0.7-0.9,1.1-1.3c0.5-0.6,0.7-1.6,0-2.2C73.9,19.7,72.9,19.5,72.3,20.2L72.3,20.2z"/>
	</g>
</g>
<g>
	<g>
		<path class="st0" d="M19.4,28.3c4.2,2.8,8.4,5.5,12.6,8.3c4.2,2.7,8.3,5.5,12.5,8.4c2,1.4,4.1,2.9,6.1,4.4c0.5,0.4,1,0.7,1.5,1.1
			c0.2,0.2,0.5,0.3,0.7,0.5c0.1,0.1,0.3,0.2,0.4,0.3c0,0,0.2,0.2,0.1,0.1c-0.1-0.1,0.1,0.1,0.1,0.1c1,0.8,2,1.6,3,2.3
			c3.5,2.9,7,5.8,10.1,9.2c0.7,0.8,1.5,1.7,2.2,2.5c0.1,0.1,0.2,0.2,0.2,0.3s0-0.1-0.1-0.1c0,0.1,0.1,0.1,0.1,0.2
			c0.2,0.2,0.3,0.5,0.5,0.7c0.3,0.4,0.6,0.9,0.9,1.3c0.6,0.9,1.1,1.8,1.6,2.8c0.2,0.5,0.5,1,0.7,1.5c0.1,0.1,0.1,0.3,0.2,0.4
			c0,0.1,0.1,0.1,0.1,0.2c0,0-0.1-0.2,0-0.1c0.1,0.2,0.2,0.5,0.3,0.7c0.2,0.5,0.4,1,0.5,1.6c0.2,0.8,1.1,1.3,1.9,1.1
			c0.8-0.2,1.3-1.1,1.1-1.9c-1.4-4.4-3.8-8.4-6.8-11.9c-2.9-3.5-6.3-6.5-9.8-9.4c-4-3.3-8.1-6.4-12.3-9.4c-4.1-2.9-8.3-5.7-12.5-8.6
			c-4.2-2.8-8.5-5.5-12.7-8.3C22,26.3,21.5,26,21,25.6c-0.7-0.5-1.7-0.2-2.1,0.6C18.4,27,18.6,27.8,19.4,28.3L19.4,28.3z"/>
	</g>
</g>
<g>
	<g>
		<path class="st0" d="M50.7,86.2c0-10.1,0-20.3,0-30.4s0-20.3,0-30.4c0-5.7,0-11.3,0-17c0-0.8-0.7-1.6-1.6-1.6
			c-0.8,0-1.6,0.7-1.6,1.6c0,10.1,0,20.3,0,30.4s0,20.3,0,30.4c0,5.7,0,11.3,0,17c0,0.8,0.7,1.6,1.6,1.6
			C50,87.7,50.7,87.1,50.7,86.2L50.7,86.2z"/>
	</g>
</g>
<g>
	<g>
		<path class="st0" d="M9.1,50.7c5.4-0.2,10.8-0.5,16.2-1c5.4-0.5,10.8-1.1,16.1-1.7c5.4-0.7,10.8-1.3,16.1-1.9
			c5.4-0.6,10.8-1.2,16.1-1.6c5.4-0.4,10.8-0.7,16.2-0.8c0.7,0,1.3,0,2,0c0.8,0,1.6-0.7,1.6-1.6c0-0.8-0.7-1.6-1.6-1.6
			c-5.4,0-10.8,0.2-16.2,0.7S65,42,59.6,42.7c-5.4,0.6-10.8,1.3-16.1,1.9c-5.4,0.7-10.8,1.3-16.1,1.8c-5.4,0.5-10.8,0.9-16.2,1.2
			c-0.7,0-1.3,0.1-2,0.1c-0.8,0-1.6,0.7-1.6,1.6C7.6,50,8.3,50.7,9.1,50.7L9.1,50.7z"/>
	</g>
</g>
<g>
	<g>
		<path class="st0" d="M181.3,101.2c-3,3.6-6.2,7-9.6,10.3c-3.4,3.2-6.8,6.4-10.2,9.6c-3.4,3.2-6.7,6.6-9.7,10.1
			c-3.1,3.6-5.7,7.5-8.4,11.4c-1.3,1.9-2.6,3.8-4,5.7c-0.2,0.2-0.3,0.5-0.5,0.7c0.2-0.2,0,0-0.1,0.1c-0.1,0.1-0.2,0.2-0.3,0.4
			c-0.3,0.4-0.7,0.9-1.1,1.3c-0.7,0.9-1.5,1.7-2.4,2.6c-0.4,0.4-0.8,0.8-1.2,1.2c-0.6,0.6-0.6,1.7,0,2.2c0.7,0.6,1.6,0.6,2.2,0
			c3.5-3.2,6.3-7,8.9-10.9c1.3-1.9,2.6-3.8,3.9-5.7c0.7-1,1.3-1.9,2-2.9c0.2-0.2,0.3-0.4,0.5-0.7c0.1-0.1,0.3-0.4,0.1-0.2
			c0.1-0.1,0.2-0.2,0.3-0.4c0.3-0.5,0.7-0.9,1.1-1.3c3-3.6,6.2-7,9.6-10.2c3.4-3.2,6.8-6.4,10.2-9.6c3.4-3.2,6.7-6.6,9.8-10.1
			c0.4-0.4,0.7-0.9,1.1-1.3c0.5-0.6,0.7-1.6,0-2.2C182.9,100.7,181.9,100.5,181.3,101.2L181.3,101.2z"/>
	</g>
</g>
<g>
	<g>
		<path class="st0" d="M128.4,109.3c4.2,2.8,8.4,5.5,12.6,8.3c4.2,2.7,8.3,5.5,12.5,8.4c2,1.4,4.1,2.9,6.1,4.4
			c0.5,0.4,1,0.7,1.5,1.1c0.2,0.2,0.5,0.3,0.7,0.5c0.1,0.1,0.3,0.2,0.4,0.3c0,0,0.2,0.2,0.1,0.1c-0.1-0.1,0.1,0.1,0.1,0.1
			c1,0.8,2,1.6,3,2.3c3.5,2.9,7,5.8,10.1,9.2c0.7,0.8,1.5,1.7,2.2,2.5c0.1,0.1,0.2,0.2,0.2,0.3c0.1,0.1,0-0.1-0.1-0.1
			c0,0.1,0.1,0.1,0.1,0.2c0.2,0.2,0.3,0.5,0.5,0.7c0.3,0.4,0.6,0.9,0.9,1.3c0.6,0.9,1.1,1.8,1.6,2.8c0.2,0.5,0.5,1,0.7,1.5
			c0.1,0.1,0.1,0.3,0.2,0.4c0,0.1,0.1,0.1,0.1,0.2c0,0-0.1-0.2,0-0.1c0.1,0.2,0.2,0.5,0.3,0.7c0.2,0.5,0.4,1,0.5,1.6
			c0.2,0.8,1.1,1.3,1.9,1.1c0.8-0.2,1.3-1.1,1.1-1.9c-1.4-4.4-3.8-8.4-6.8-11.9c-2.9-3.5-6.3-6.5-9.8-9.4c-4-3.3-8.1-6.4-12.3-9.4
			c-4.1-2.9-8.3-5.7-12.5-8.6c-4.2-2.8-8.5-5.5-12.7-8.3c-0.5-0.3-1.1-0.7-1.6-1.1c-0.7-0.5-1.7-0.2-2.1,0.6
			C127.4,108,127.6,108.8,128.4,109.3L128.4,109.3z"/>
	</g>
</g>
<g>
	<g>
		<path class="st0" d="M159.7,167.2c0-10.1,0-20.3,0-30.4s0-20.3,0-30.4c0-5.7,0-11.3,0-17c0-0.8-0.7-1.6-1.6-1.6
			c-0.8,0-1.6,0.7-1.6,1.6c0,10.1,0,20.3,0,30.4s0,20.3,0,30.4c0,5.7,0,11.3,0,17c0,0.8,0.7,1.6,1.6,1.6
			C159,168.7,159.7,168.1,159.7,167.2L159.7,167.2z"/>
	</g>
</g>
<g>
	<g>
		<path class="st0" d="M118.1,131.7c5.4-0.2,10.8-0.5,16.2-1s10.8-1.1,16.1-1.7c5.4-0.7,10.8-1.3,16.1-1.9s10.8-1.2,16.1-1.6
			c5.4-0.4,10.8-0.7,16.2-0.8c0.7,0,1.3,0,2,0c0.8,0,1.6-0.7,1.6-1.6c0-0.8-0.7-1.6-1.6-1.6c-5.4,0-10.8,0.2-16.2,0.7
			c-5.4,0.4-10.8,0.9-16.1,1.6c-5.4,0.6-10.8,1.3-16.1,1.9c-5.4,0.7-10.8,1.3-16.1,1.8s-10.8,0.9-16.2,1.2c-0.7,0-1.3,0.1-2,0.1
			c-0.8,0-1.6,0.7-1.6,1.6C116.6,131,117.3,131.7,118.1,131.7L118.1,131.7z"/>
	</g>
</g>
<g>
	<g>
		<path class="st0" d="M265.3-7.8c-3,3.6-6.2,7-9.6,10.3c-3.4,3.2-6.8,6.4-10.2,9.6c-3.4,3.2-6.7,6.6-9.7,10.1
			c-3.1,3.6-5.7,7.5-8.4,11.4c-1.3,1.9-2.6,3.8-4,5.7c-0.2,0.2-0.3,0.5-0.5,0.7c0.2-0.2,0,0-0.1,0.1c-0.1,0.1-0.2,0.2-0.3,0.4
			c-0.3,0.4-0.7,0.9-1.1,1.3c-0.7,0.9-1.5,1.7-2.4,2.6c-0.4,0.4-0.8,0.8-1.2,1.2c-0.6,0.6-0.6,1.7,0,2.2c0.7,0.6,1.6,0.6,2.2,0
			c3.5-3.2,6.3-7,8.9-10.9c1.3-1.9,2.6-3.8,3.9-5.7c0.7-1,1.3-1.9,2-2.9c0.2-0.2,0.3-0.4,0.5-0.7c0.1-0.1,0.3-0.4,0.1-0.2
			c0.1-0.1,0.2-0.2,0.3-0.4c0.3-0.5,0.7-0.9,1.1-1.3c3-3.6,6.2-7,9.6-10.2c3.4-3.2,6.8-6.4,10.2-9.6c3.4-3.2,6.7-6.6,9.8-10.1
			c0.4-0.4,0.7-0.9,1.1-1.3c0.5-0.6,0.7-1.6,0-2.2C266.9-8.3,265.9-8.5,265.3-7.8L265.3-7.8z"/>
	</g>
</g>
<g>
	<g>
		<path class="st0" d="M212.4,0.3c4.2,2.8,8.4,5.5,12.6,8.3s8.3,5.5,12.5,8.4c2,1.4,4.1,2.9,6.1,4.4c0.5,0.4,1,0.7,1.5,1.1
			c0.2,0.2,0.5,0.3,0.7,0.5c0.1,0.1,0.3,0.2,0.4,0.3c0,0,0.2,0.2,0.1,0.1c-0.1-0.1,0.1,0.1,0.1,0.1c1,0.8,2,1.6,3,2.3
			c3.5,2.9,7,5.8,10.1,9.2c0.7,0.8,1.5,1.7,2.2,2.5c0.1,0.1,0.2,0.2,0.2,0.3c0.1,0.1,0-0.1-0.1-0.1c0,0.1,0.1,0.1,0.1,0.2
			c0.2,0.2,0.3,0.5,0.5,0.7c0.3,0.4,0.6,0.9,0.9,1.3c0.6,0.9,1.1,1.8,1.6,2.8c0.2,0.5,0.5,1,0.7,1.5c0.1,0.1,0.1,0.3,0.2,0.4
			c0,0.1,0.1,0.1,0.1,0.2c0,0-0.1-0.2,0-0.1c0.1,0.2,0.2,0.5,0.3,0.7c0.2,0.5,0.4,1,0.5,1.6c0.2,0.8,1.1,1.3,1.9,1.1
			c0.8-0.2,1.3-1.1,1.1-1.9c-1.4-4.4-3.8-8.4-6.8-11.9c-2.9-3.5-6.3-6.5-9.8-9.4c-4-3.3-8.1-6.4-12.3-9.4c-4.1-2.9-8.3-5.7-12.5-8.6
			c-4.2-2.8-8.5-5.5-12.7-8.3C215-1.7,214.5-2,214-2.4c-0.7-0.5-1.7-0.2-2.1,0.6C211.4-1,211.6-0.2,212.4,0.3L212.4,0.3z"/>
	</g>
</g>
<g>
	<g>
		<path class="st0" d="M243.7,58.2c0-10.1,0-20.3,0-30.4s0-20.3,0-30.4c0-5.7,0-11.3,0-17c0-0.8-0.7-1.6-1.6-1.6
			c-0.8,0-1.6,0.7-1.6,1.6c0,10.1,0,20.3,0,30.4s0,20.3,0,30.4c0,5.7,0,11.3,0,17c0,0.8,0.7,1.6,1.6,1.6S243.7,59.1,243.7,58.2
			L243.7,58.2z"/>
	</g>
</g>
<g>
	<g>
		<path class="st0" d="M202.1,22.7c5.4-0.2,10.8-0.5,16.2-1s10.8-1.1,16.1-1.7c5.4-0.7,10.8-1.3,16.1-1.9c5.4-0.6,10.8-1.2,16.1-1.6
			c5.4-0.4,10.8-0.7,16.2-0.8c0.7,0,1.3,0,2,0c0.8,0,1.6-0.7,1.6-1.6c0-0.8-0.7-1.6-1.6-1.6c-5.4,0-10.8,0.2-16.2,0.7
			c-5.4,0.4-10.8,0.9-16.1,1.6c-5.4,0.6-10.8,1.3-16.1,1.9c-5.4,0.7-10.8,1.3-16.1,1.8s-10.8,0.9-16.2,1.2c-0.7,0-1.3,0.1-2,0.1
			c-0.8,0-1.6,0.7-1.6,1.6C200.6,22,201.3,22.7,202.1,22.7L202.1,22.7z"/>
	</g>
</g>
<g>
	<g>
		<path class="st0" d="M305.3,145.2c-3,3.6-6.2,7-9.6,10.3c-3.4,3.2-6.8,6.4-10.2,9.6c-3.4,3.2-6.7,6.6-9.7,10.1
			c-3.1,3.6-5.7,7.5-8.4,11.4c-1.3,1.9-2.6,3.8-4,5.7c-0.2,0.2-0.3,0.5-0.5,0.7c0.2-0.2,0,0-0.1,0.1c-0.1,0.1-0.2,0.2-0.3,0.4
			c-0.3,0.4-0.7,0.9-1.1,1.3c-0.7,0.9-1.5,1.7-2.4,2.6c-0.4,0.4-0.8,0.8-1.2,1.2c-0.6,0.6-0.6,1.7,0,2.2c0.7,0.6,1.6,0.6,2.2,0
			c3.5-3.2,6.3-7,8.9-10.9c1.3-1.9,2.6-3.8,3.9-5.7c0.7-1,1.3-1.9,2-2.9c0.2-0.2,0.3-0.4,0.5-0.7c0.1-0.1,0.3-0.4,0.1-0.2
			c0.1-0.1,0.2-0.2,0.3-0.4c0.3-0.5,0.7-0.9,1.1-1.3c3-3.6,6.2-7,9.6-10.2c3.4-3.2,6.8-6.4,10.2-9.6c3.4-3.2,6.7-6.6,9.8-10.1
			c0.4-0.4,0.7-0.9,1.1-1.3c0.5-0.6,0.7-1.6,0-2.2C306.9,144.7,305.9,144.5,305.3,145.2L305.3,145.2z"/>
	</g>
</g>
<g>
	<g>
		<path class="st0" d="M252.4,153.3c4.2,2.8,8.4,5.5,12.6,8.3c4.2,2.7,8.3,5.5,12.5,8.4c2,1.4,4.1,2.9,6.1,4.4
			c0.5,0.4,1,0.7,1.5,1.1c0.2,0.2,0.5,0.3,0.7,0.5c0.1,0.1,0.3,0.2,0.4,0.3c0,0,0.2,0.2,0.1,0.1c-0.1-0.1,0.1,0.1,0.1,0.1
			c1,0.8,2,1.6,3,2.3c3.5,2.9,7,5.8,10.1,9.2c0.7,0.8,1.5,1.7,2.2,2.5c0.1,0.1,0.2,0.2,0.2,0.3c0.1,0.1,0-0.1-0.1-0.1
			c0,0.1,0.1,0.1,0.1,0.2c0.2,0.2,0.3,0.5,0.5,0.7c0.3,0.4,0.6,0.9,0.9,1.3c0.6,0.9,1.1,1.8,1.6,2.8c0.2,0.5,0.5,1,0.7,1.5
			c0.1,0.1,0.1,0.3,0.2,0.4c0,0.1,0.1,0.1,0.1,0.2c0,0-0.1-0.2,0-0.1c0.1,0.2,0.2,0.5,0.3,0.7c0.2,0.5,0.4,1,0.5,1.6
			c0.2,0.8,1.1,1.3,1.9,1.1c0.8-0.2,1.3-1.1,1.1-1.9c-1.4-4.4-3.8-8.4-6.8-11.9c-2.9-3.5-6.3-6.5-9.8-9.4c-4-3.3-8.1-6.4-12.3-9.4
			c-4.1-2.9-8.3-5.7-12.5-8.6c-4.2-2.8-8.5-5.5-12.7-8.3c-0.5-0.3-1.1-0.7-1.6-1.1c-0.7-0.5-1.7-0.2-2.1,0.6
			C251.4,152,251.6,152.8,252.4,153.3L252.4,153.3z"/>
	</g>
</g>
<g>
	<g>
		<path class="st0" d="M283.7,211.2c0-10.1,0-20.3,0-30.4c0-10.1,0-20.3,0-30.4c0-5.7,0-11.3,0-17c0-0.8-0.7-1.6-1.6-1.6
			s-1.6,0.7-1.6,1.6c0,10.1,0,20.3,0,30.4c0,10.1,0,20.3,0,30.4c0,5.7,0,11.3,0,17c0,0.8,0.7,1.6,1.6,1.6
			C283,212.7,283.7,212.1,283.7,211.2L283.7,211.2z"/>
	</g>
</g>
<g>
	<g>
		<path class="st0" d="M242.1,175.7c5.4-0.2,10.8-0.5,16.2-1c5.4-0.5,10.8-1.1,16.1-1.7c5.4-0.7,10.8-1.3,16.1-1.9
			c5.4-0.6,10.8-1.2,16.1-1.6c5.4-0.4,10.8-0.7,16.2-0.8c0.7,0,1.3,0,2,0c0.8,0,1.6-0.7,1.6-1.6s-0.7-1.6-1.6-1.6
			c-5.4,0-10.8,0.2-16.2,0.7c-5.4,0.4-10.8,0.9-16.1,1.6c-5.4,0.6-10.8,1.3-16.1,1.9c-5.4,0.7-10.8,1.3-16.1,1.8
			c-5.4,0.5-10.8,0.9-16.2,1.2c-0.7,0-1.3,0.1-2,0.1c-0.8,0-1.6,0.7-1.6,1.6C240.6,175,241.3,175.7,242.1,175.7L242.1,175.7z"/>
	</g>
</g>
<g>
	<g>
		<path class="st0" d="M18.3,149.2c-3,3.6-6.2,7-9.6,10.3c-3.4,3.2-6.8,6.4-10.2,9.6c-3.4,3.2-6.7,6.6-9.7,10.1
			c-3.1,3.6-5.7,7.5-8.4,11.4c-1.3,1.9-2.6,3.8-4,5.7c-0.2,0.2-0.3,0.5-0.5,0.7c0.2-0.2,0,0-0.1,0.1c-0.1,0.1-0.2,0.2-0.3,0.4
			c-0.3,0.4-0.7,0.9-1.1,1.3c-0.7,0.9-1.5,1.7-2.4,2.6c-0.4,0.4-0.8,0.8-1.2,1.2c-0.6,0.6-0.6,1.7,0,2.2c0.7,0.6,1.6,0.6,2.2,0
			c3.5-3.2,6.3-7,8.9-10.9c1.3-1.9,2.6-3.8,3.9-5.7c0.7-1,1.3-1.9,2-2.9c0.2-0.2,0.3-0.4,0.5-0.7c0.1-0.1,0.3-0.4,0.1-0.2
			c0.1-0.1,0.2-0.2,0.3-0.4c0.3-0.5,0.7-0.9,1.1-1.3c3-3.6,6.2-7,9.6-10.2c3.4-3.2,6.8-6.4,10.2-9.6c3.4-3.2,6.7-6.6,9.8-10.1
			c0.4-0.4,0.7-0.9,1.1-1.3c0.5-0.6,0.7-1.6,0-2.2C19.9,148.7,18.9,148.5,18.3,149.2L18.3,149.2z"/>
	</g>
</g>
<g>
	<g>
		<path class="st0" d="M-34.6,157.3c4.2,2.8,8.4,5.5,12.6,8.3s8.3,5.5,12.5,8.4c2,1.4,4.1,2.9,6.1,4.4c0.5,0.4,1,0.7,1.5,1.1
			c0.2,0.2,0.5,0.3,0.7,0.5c0.1,0.1,0.3,0.2,0.4,0.3c0,0,0.2,0.2,0.1,0.1c-0.1-0.1,0.1,0.1,0.1,0.1c1,0.8,2,1.6,3,2.3
			c3.5,2.9,7,5.8,10.1,9.2c0.7,0.8,1.5,1.7,2.2,2.5c0.1,0.1,0.2,0.2,0.2,0.3c0.1,0.1,0-0.1-0.1-0.1c0,0.1,0.1,0.1,0.1,0.2
			c0.2,0.2,0.3,0.5,0.5,0.7c0.3,0.4,0.6,0.9,0.9,1.3c0.6,0.9,1.1,1.8,1.6,2.8c0.2,0.5,0.5,1,0.7,1.5c0.1,0.1,0.1,0.3,0.2,0.4
			c0,0.1,0.1,0.1,0.1,0.2c0,0-0.1-0.2,0-0.1c0.1,0.2,0.2,0.5,0.3,0.7c0.2,0.5,0.4,1,0.5,1.6c0.2,0.8,1.1,1.3,1.9,1.1
			c0.8-0.2,1.3-1.1,1.1-1.9c-1.4-4.4-3.8-8.4-6.8-11.9c-2.9-3.5-6.3-6.5-9.8-9.4c-4-3.3-8.1-6.4-12.3-9.4c-4.1-2.9-8.3-5.7-12.5-8.6
			c-4.2-2.8-8.5-5.5-12.7-8.3c-0.5-0.3-1.1-0.7-1.6-1.1c-0.7-0.5-1.7-0.2-2.1,0.6C-35.6,156-35.4,156.8-34.6,157.3L-34.6,157.3z"/>
	</g>
</g>
<g>
	<g>
		<path class="st0" d="M-3.3,215.2c0-10.1,0-20.3,0-30.4c0-10.1,0-20.3,0-30.4c0-5.7,0-11.3,0-17c0-0.8-0.7-1.6-1.6-1.6
			s-1.6,0.7-1.6,1.6c0,10.1,0,20.3,0,30.4c0,10.1,0,20.3,0,30.4c0,5.7,0,11.3,0,17c0,0.8,0.7,1.6,1.6,1.6
			C-4,216.7-3.3,216.1-3.3,215.2L-3.3,215.2z"/>
	</g>
</g>
<g>
	<g>
		<path class="st0" d="M-44.9,179.7c5.4-0.2,10.8-0.5,16.2-1s10.8-1.1,16.1-1.7c5.4-0.7,10.8-1.3,16.1-1.9
			c5.4-0.6,10.8-1.2,16.1-1.6c5.4-0.4,10.8-0.7,16.2-0.8c0.7,0,1.3,0,2,0c0.8,0,1.6-0.7,1.6-1.6c0-0.8-0.7-1.6-1.6-1.6
			c-5.4,0-10.8,0.2-16.2,0.7c-5.4,0.4-10.8,0.9-16.1,1.6s-10.8,1.3-16.1,1.9c-5.4,0.7-10.8,1.3-16.1,1.8c-5.4,0.5-10.8,0.9-16.2,1.2
			c-0.7,0-1.3,0.1-2,0.1c-0.8,0-1.6,0.7-1.6,1.6C-46.4,179-45.7,179.7-44.9,179.7L-44.9,179.7z"/>
	</g>
</g>
<g>
	<g>
		<path class="st0" d="M115.3,202.2c-3,3.6-6.2,7-9.6,10.3c-3.4,3.2-6.8,6.4-10.2,9.6c-3.4,3.2-6.7,6.6-9.7,10.1
			c-3.1,3.6-5.7,7.5-8.4,11.4c-1.3,1.9-2.6,3.8-4,5.7c-0.2,0.2-0.3,0.5-0.5,0.7c0.2-0.2,0,0-0.1,0.1c-0.1,0.1-0.2,0.2-0.3,0.4
			c-0.3,0.4-0.7,0.9-1.1,1.3c-0.7,0.9-1.5,1.7-2.4,2.6c-0.4,0.4-0.8,0.8-1.2,1.2c-0.6,0.6-0.6,1.7,0,2.2c0.7,0.6,1.6,0.6,2.2,0
			c3.5-3.2,6.3-7,8.9-10.9c1.3-1.9,2.6-3.8,3.9-5.7c0.7-1,1.3-1.9,2-2.9c0.2-0.2,0.3-0.4,0.5-0.7c0.1-0.1,0.3-0.4,0.1-0.2
			c0.1-0.1,0.2-0.2,0.3-0.4c0.3-0.5,0.7-0.9,1.1-1.3c3-3.6,6.2-7,9.6-10.2c3.4-3.2,6.8-6.4,10.2-9.6c3.4-3.2,6.7-6.6,9.8-10.1
			c0.4-0.4,0.7-0.9,1.1-1.3c0.5-0.6,0.7-1.6,0-2.2C116.9,201.7,115.9,201.5,115.3,202.2L115.3,202.2z"/>
	</g>
</g>
<g>
	<g>
		<path class="st0" d="M62.4,210.3c4.2,2.8,8.4,5.5,12.6,8.3c4.2,2.7,8.3,5.5,12.5,8.4c2,1.4,4.1,2.9,6.1,4.4c0.5,0.4,1,0.7,1.5,1.1
			c0.2,0.2,0.5,0.3,0.7,0.5c0.1,0.1,0.3,0.2,0.4,0.3c0,0,0.2,0.2,0.1,0.1c-0.1-0.1,0.1,0.1,0.1,0.1c1,0.8,2,1.6,3,2.3
			c3.5,2.9,7,5.8,10.1,9.2c0.7,0.8,1.5,1.7,2.2,2.5c0.1,0.1,0.2,0.2,0.2,0.3c0.1,0.1,0-0.1-0.1-0.1c0,0.1,0.1,0.1,0.1,0.2
			c0.2,0.2,0.3,0.5,0.5,0.7c0.3,0.4,0.6,0.9,0.9,1.3c0.6,0.9,1.1,1.8,1.6,2.8c0.2,0.5,0.5,1,0.7,1.5c0.1,0.1,0.1,0.3,0.2,0.4
			c0,0.1,0.1,0.1,0.1,0.2c0,0-0.1-0.2,0-0.1c0.1,0.2,0.2,0.5,0.3,0.7c0.2,0.5,0.4,1,0.5,1.6c0.2,0.8,1.1,1.3,1.9,1.1
			c0.8-0.2,1.3-1.1,1.1-1.9c-1.4-4.4-3.8-8.4-6.8-11.9c-2.9-3.5-6.3-6.5-9.8-9.4c-4-3.3-8.1-6.4-12.3-9.4c-4.1-2.9-8.3-5.7-12.5-8.6
			c-4.2-2.8-8.5-5.5-12.7-8.3c-0.5-0.3-1.1-0.7-1.6-1.1c-0.7-0.5-1.7-0.2-2.1,0.6C61.4,209,61.6,209.8,62.4,210.3L62.4,210.3z"/>
	</g>
</g>
<g>
	<g>
		<path class="st0" d="M93.7,268.2c0-10.1,0-20.3,0-30.4c0-10.1,0-20.3,0-30.4c0-5.7,0-11.3,0-17c0-0.8-0.7-1.6-1.6-1.6
			c-0.8,0-1.6,0.7-1.6,1.6c0,10.1,0,20.3,0,30.4c0,10.1,0,20.3,0,30.4c0,5.7,0,11.3,0,17c0,0.8,0.7,1.6,1.6,1.6
			C93,269.7,93.7,269.1,93.7,268.2L93.7,268.2z"/>
	</g>
</g>
<g>
	<g>
		<path class="st0" d="M52.1,232.7c5.4-0.2,10.8-0.5,16.2-1s10.8-1.1,16.1-1.7c5.4-0.7,10.8-1.3,16.1-1.9c5.4-0.6,10.8-1.2,16.1-1.6
			c5.4-0.4,10.8-0.7,16.2-0.8c0.7,0,1.3,0,2,0c0.8,0,1.6-0.7,1.6-1.6s-0.7-1.6-1.6-1.6c-5.4,0-10.8,0.2-16.2,0.7s-10.8,0.9-16.1,1.6
			c-5.4,0.6-10.8,1.3-16.1,1.9c-5.4,0.7-10.8,1.3-16.1,1.8c-5.4,0.5-10.8,0.9-16.2,1.2c-0.7,0-1.3,0.1-2,0.1c-0.8,0-1.6,0.7-1.6,1.6
			C50.6,232,51.3,232.7,52.1,232.7L52.1,232.7z"/>
	</g>
</g>
<g>
	<g>
		<path class="st0" d="M227.3,257.2c-3,3.6-6.2,7-9.6,10.3c-3.4,3.2-6.8,6.4-10.2,9.6c-3.4,3.2-6.7,6.6-9.7,10.1
			c-3.1,3.6-5.7,7.5-8.4,11.4c-1.3,1.9-2.6,3.8-4,5.7c-0.2,0.2-0.3,0.5-0.5,0.7c0.2-0.2,0,0-0.1,0.1c-0.1,0.1-0.2,0.2-0.3,0.4
			c-0.3,0.4-0.7,0.9-1.1,1.3c-0.7,0.9-1.5,1.7-2.4,2.6c-0.4,0.4-0.8,0.8-1.2,1.2c-0.6,0.6-0.6,1.7,0,2.2c0.7,0.6,1.6,0.6,2.2,0
			c3.5-3.2,6.3-7,8.9-10.9c1.3-1.9,2.6-3.8,3.9-5.7c0.7-1,1.3-1.9,2-2.9c0.2-0.2,0.3-0.4,0.5-0.7c0.1-0.1,0.3-0.4,0.1-0.2
			c0.1-0.1,0.2-0.2,0.3-0.4c0.3-0.5,0.7-0.9,1.1-1.3c3-3.6,6.2-7,9.6-10.2c3.4-3.2,6.8-6.4,10.2-9.6c3.4-3.2,6.7-6.6,9.8-10.1
			c0.4-0.4,0.7-0.9,1.1-1.3c0.5-0.6,0.7-1.6,0-2.2C228.9,256.7,227.9,256.5,227.3,257.2L227.3,257.2z"/>
	</g>
</g>
<g>
	<g>
		<path class="st0" d="M174.4,265.3c4.2,2.8,8.4,5.5,12.6,8.3s8.3,5.5,12.5,8.4c2,1.4,4.1,2.9,6.1,4.4c0.5,0.4,1,0.7,1.5,1.1
			c0.2,0.2,0.5,0.3,0.7,0.5c0.1,0.1,0.3,0.2,0.4,0.3c0,0,0.2,0.2,0.1,0.1c-0.1-0.1,0.1,0.1,0.1,0.1c1,0.8,2,1.6,3,2.3
			c3.5,2.9,7,5.8,10.1,9.2c0.7,0.8,1.5,1.7,2.2,2.5c0.1,0.1,0.2,0.2,0.2,0.3c0.1,0.1,0-0.1-0.1-0.1c0,0.1,0.1,0.1,0.1,0.2
			c0.2,0.2,0.3,0.5,0.5,0.7c0.3,0.4,0.6,0.9,0.9,1.3c0.6,0.9,1.1,1.8,1.6,2.8c0.2,0.5,0.5,1,0.7,1.5c0.1,0.1,0.1,0.3,0.2,0.4
			c0,0.1,0.1,0.1,0.1,0.2c0,0-0.1-0.2,0-0.1c0.1,0.2,0.2,0.5,0.3,0.7c0.2,0.5,0.4,1,0.5,1.6c0.2,0.8,1.1,1.3,1.9,1.1
			c0.8-0.2,1.3-1.1,1.1-1.9c-1.4-4.4-3.8-8.4-6.8-11.9c-2.9-3.5-6.3-6.5-9.8-9.4c-4-3.3-8.1-6.4-12.3-9.4c-4.1-2.9-8.3-5.7-12.5-8.6
			c-4.2-2.8-8.5-5.5-12.7-8.3c-0.5-0.3-1.1-0.7-1.6-1.1c-0.7-0.5-1.7-0.2-2.1,0.6C173.4,264,173.6,264.8,174.4,265.3L174.4,265.3z"
			/>
	</g>
</g>
<g>
	<g>
		<path class="st0" d="M205.7,323.2c0-10.1,0-20.3,0-30.4c0-10.1,0-20.3,0-30.4c0-5.7,0-11.3,0-17c0-0.8-0.7-1.6-1.6-1.6
			s-1.6,0.7-1.6,1.6c0,10.1,0,20.3,0,30.4c0,10.1,0,20.3,0,30.4c0,5.7,0,11.3,0,17c0,0.8,0.7,1.6,1.6,1.6S205.7,324.1,205.7,323.2
			L205.7,323.2z"/>
	</g>
</g>
<g>
	<g>
		<path class="st0" d="M164.1,287.7c5.4-0.2,10.8-0.5,16.2-1c5.4-0.5,10.8-1.1,16.1-1.7c5.4-0.7,10.8-1.3,16.1-1.9
			c5.4-0.6,10.8-1.2,16.1-1.6c5.4-0.4,10.8-0.7,16.2-0.8c0.7,0,1.3,0,2,0c0.8,0,1.6-0.7,1.6-1.6s-0.7-1.6-1.6-1.6
			c-5.4,0-10.8,0.2-16.2,0.7s-10.8,0.9-16.1,1.6c-5.4,0.6-10.8,1.3-16.1,1.9c-5.4,0.7-10.8,1.3-16.1,1.8c-5.4,0.5-10.8,0.9-16.2,1.2
			c-0.7,0-1.3,0.1-2,0.1c-0.8,0-1.6,0.7-1.6,1.6C162.6,287,163.3,287.7,164.1,287.7L164.1,287.7z"/>
	</g>
</g>
<g>
	<g>
		<path class="st0" d="M46.3,286.2c-3,3.6-6.2,7-9.6,10.3c-3.4,3.2-6.8,6.4-10.2,9.6c-3.4,3.2-6.7,6.6-9.7,10.1
			c-3.1,3.6-5.7,7.5-8.4,11.4c-1.3,1.9-2.6,3.8-4,5.7c-0.2,0.2-0.3,0.5-0.5,0.7c0.2-0.2,0,0-0.1,0.1c-0.1,0.1-0.2,0.2-0.3,0.4
			c-0.3,0.4-0.7,0.9-1.1,1.3c-0.7,0.9-1.5,1.7-2.4,2.6c-0.4,0.4-0.8,0.8-1.2,1.2c-0.6,0.6-0.6,1.7,0,2.2c0.7,0.6,1.6,0.6,2.2,0
			c3.5-3.2,6.3-7,8.9-10.9c1.3-1.9,2.6-3.8,3.9-5.7c0.7-1,1.3-1.9,2-2.9c0.2-0.2,0.3-0.4,0.5-0.7c0.1-0.1,0.3-0.4,0.1-0.2
			c0.1-0.1,0.2-0.2,0.3-0.4c0.3-0.5,0.7-0.9,1.1-1.3c3-3.6,6.2-7,9.6-10.2c3.4-3.2,6.8-6.4,10.2-9.6c3.4-3.2,6.7-6.6,9.8-10.1
			c0.4-0.4,0.7-0.9,1.1-1.3c0.5-0.6,0.7-1.6,0-2.2C47.9,285.7,46.9,285.5,46.3,286.2L46.3,286.2z"/>
	</g>
</g>
<g>
	<g>
		<path class="st0" d="M-6.6,294.3c4.2,2.8,8.4,5.5,12.6,8.3s8.3,5.5,12.5,8.4c2,1.4,4.1,2.9,6.1,4.4c0.5,0.4,1,0.7,1.5,1.1
			c0.2,0.2,0.5,0.3,0.7,0.5c0.1,0.1,0.3,0.2,0.4,0.3c0,0,0.2,0.2,0.1,0.1c-0.1-0.1,0.1,0.1,0.1,0.1c1,0.8,2,1.6,3,2.3
			c3.5,2.9,7,5.8,10.1,9.2c0.7,0.8,1.5,1.7,2.2,2.5c0.1,0.1,0.2,0.2,0.2,0.3s0-0.1-0.1-0.1c0,0.1,0.1,0.1,0.1,0.2
			c0.2,0.2,0.3,0.5,0.5,0.7c0.3,0.4,0.6,0.9,0.9,1.3c0.6,0.9,1.1,1.8,1.6,2.8c0.2,0.5,0.5,1,0.7,1.5c0.1,0.1,0.1,0.3,0.2,0.4
			c0,0.1,0.1,0.1,0.1,0.2c0,0-0.1-0.2,0-0.1c0.1,0.2,0.2,0.5,0.3,0.7c0.2,0.5,0.4,1,0.5,1.6c0.2,0.8,1.1,1.3,1.9,1.1
			c0.8-0.2,1.3-1.1,1.1-1.9c-1.4-4.4-3.8-8.4-6.8-11.9c-2.9-3.5-6.3-6.5-9.8-9.4c-4-3.3-8.1-6.4-12.3-9.4c-4.1-2.9-8.3-5.7-12.5-8.6
			c-4.2-2.8-8.5-5.5-12.7-8.3c-0.5-0.3-1.1-0.7-1.6-1.1c-0.7-0.5-1.7-0.2-2.1,0.6C-7.6,293-7.4,293.8-6.6,294.3L-6.6,294.3z"/>
	</g>
</g>
<g>
	<g>
		<path class="st0" d="M24.7,352.2c0-10.1,0-20.3,0-30.4c0-10.1,0-20.3,0-30.4c0-5.7,0-11.3,0-17c0-0.8-0.7-1.6-1.6-1.6
			s-1.6,0.7-1.6,1.6c0,10.1,0,20.3,0,30.4c0,10.1,0,20.3,0,30.4c0,5.7,0,11.3,0,17c0,0.8,0.7,1.6,1.6,1.6S24.7,353.1,24.7,352.2
			L24.7,352.2z"/>
	</g>
</g>
<g>
	<g>
		<path class="st0" d="M-16.9,316.7c5.4-0.2,10.8-0.5,16.2-1c5.4-0.5,10.8-1.1,16.1-1.7s10.8-1.3,16.1-1.9
			c5.4-0.6,10.8-1.2,16.1-1.6c5.4-0.4,10.8-0.7,16.2-0.8c0.7,0,1.3,0,2,0c0.8,0,1.6-0.7,1.6-1.6c0-0.8-0.7-1.6-1.6-1.6
			c-5.4,0-10.8,0.2-16.2,0.7S39,308,33.6,308.7s-10.8,1.3-16.1,1.9c-5.4,0.7-10.8,1.3-16.1,1.8c-5.4,0.5-10.8,0.9-16.2,1.2
			c-0.7,0-1.3,0.1-2,0.1c-0.8,0-1.6,0.7-1.6,1.6C-18.4,316-17.7,316.7-16.9,316.7L-16.9,316.7z"/>
	</g>
</g>
<g>
	<g>
		<path class="st0" d="M345.3,236.2c-3,3.6-6.2,7-9.6,10.3c-3.4,3.2-6.8,6.4-10.2,9.6c-3.4,3.2-6.7,6.6-9.7,10.1
			c-3.1,3.6-5.7,7.5-8.4,11.4c-1.3,1.9-2.6,3.8-4,5.7c-0.2,0.2-0.3,0.5-0.5,0.7c0.2-0.2,0,0-0.1,0.1c-0.1,0.1-0.2,0.2-0.3,0.4
			c-0.3,0.4-0.7,0.9-1.1,1.3c-0.7,0.9-1.5,1.7-2.4,2.6c-0.4,0.4-0.8,0.8-1.2,1.2c-0.6,0.6-0.6,1.7,0,2.2c0.7,0.6,1.6,0.6,2.2,0
			c3.5-3.2,6.3-7,8.9-10.9c1.3-1.9,2.6-3.8,3.9-5.7c0.7-1,1.3-1.9,2-2.9c0.2-0.2,0.3-0.4,0.5-0.7c0.1-0.1,0.3-0.4,0.1-0.2
			c0.1-0.1,0.2-0.2,0.3-0.4c0.3-0.5,0.7-0.9,1.1-1.3c3-3.6,6.2-7,9.6-10.2c3.4-3.2,6.8-6.4,10.2-9.6c3.4-3.2,6.7-6.6,9.8-10.1
			c0.4-0.4,0.7-0.9,1.1-1.3c0.5-0.6,0.7-1.6,0-2.2C346.9,235.7,345.9,235.5,345.3,236.2L345.3,236.2z"/>
	</g>
</g>
<g>
	<g>
		<path class="st0" d="M292.4,244.3c4.2,2.8,8.4,5.5,12.6,8.3c4.2,2.7,8.3,5.5,12.5,8.4c2,1.4,4.1,2.9,6.1,4.4
			c0.5,0.4,1,0.7,1.5,1.1c0.2,0.2,0.5,0.3,0.7,0.5c0.1,0.1,0.3,0.2,0.4,0.3c0,0,0.2,0.2,0.1,0.1s0.1,0.1,0.1,0.1c1,0.8,2,1.6,3,2.3
			c3.5,2.9,7,5.8,10.1,9.2c0.7,0.8,1.5,1.7,2.2,2.5c0.1,0.1,0.2,0.2,0.2,0.3c0.1,0.1,0-0.1-0.1-0.1c0,0.1,0.1,0.1,0.1,0.2
			c0.2,0.2,0.3,0.5,0.5,0.7c0.3,0.4,0.6,0.9,0.9,1.3c0.6,0.9,1.1,1.8,1.6,2.8c0.2,0.5,0.5,1,0.7,1.5c0.1,0.1,0.1,0.3,0.2,0.4
			c0,0.1,0.1,0.1,0.1,0.2c0,0-0.1-0.2,0-0.1c0.1,0.2,0.2,0.5,0.3,0.7c0.2,0.5,0.4,1,0.5,1.6c0.2,0.8,1.1,1.3,1.9,1.1
			c0.8-0.2,1.3-1.1,1.1-1.9c-1.4-4.4-3.8-8.4-6.8-11.9c-2.9-3.5-6.3-6.5-9.8-9.4c-4-3.3-8.1-6.4-12.3-9.4c-4.1-2.9-8.3-5.7-12.5-8.6
			c-4.2-2.8-8.5-5.5-12.7-8.3c-0.5-0.3-1.1-0.7-1.6-1.1c-0.7-0.5-1.7-0.2-2.1,0.6C291.4,243,291.6,243.8,292.4,244.3L292.4,244.3z"
			/>
	</g>
</g>
<g>
	<g>
		<path class="st0" d="M323.7,302.2c0-10.1,0-20.3,0-30.4c0-10.1,0-20.3,0-30.4c0-5.7,0-11.3,0-17c0-0.8-0.7-1.6-1.6-1.6
			s-1.6,0.7-1.6,1.6c0,10.1,0,20.3,0,30.4c0,10.1,0,20.3,0,30.4c0,5.7,0,11.3,0,17c0,0.8,0.7,1.6,1.6,1.6S323.7,303.1,323.7,302.2
			L323.7,302.2z"/>
	</g>
</g>
<g>
	<g>
		<path class="st0" d="M282.1,266.7c5.4-0.2,10.8-0.5,16.2-1c5.4-0.5,10.8-1.1,16.1-1.7c5.4-0.7,10.8-1.3,16.1-1.9
			c5.4-0.6,10.8-1.2,16.1-1.6c5.4-0.4,10.8-0.7,16.2-0.8c0.7,0,1.3,0,2,0c0.8,0,1.6-0.7,1.6-1.6s-0.7-1.6-1.6-1.6
			c-5.4,0-10.8,0.2-16.2,0.7c-5.4,0.4-10.8,0.9-16.1,1.6c-5.4,0.6-10.8,1.3-16.1,1.9c-5.4,0.7-10.8,1.3-16.1,1.8
			c-5.4,0.5-10.8,0.9-16.2,1.2c-0.7,0-1.3,0.1-2,0.1c-0.8,0-1.6,0.7-1.6,1.6C280.6,266,281.3,266.7,282.1,266.7L282.1,266.7z"/>
	</g>
</g>
<g>
	<g>
		<path class="st0" d="M158.3-44.8c-3,3.6-6.2,7-9.6,10.3c-3.4,3.2-6.8,6.4-10.2,9.6c-3.4,3.2-6.7,6.6-9.7,10.1
			c-3.1,3.6-5.7,7.5-8.4,11.4c-1.3,1.9-2.6,3.8-4,5.7c-0.2,0.2-0.3,0.5-0.5,0.7c0.2-0.2,0,0-0.1,0.1c-0.1,0.1-0.2,0.2-0.3,0.4
			c-0.3,0.4-0.7,0.9-1.1,1.3c-0.7,0.9-1.5,1.7-2.4,2.6c-0.4,0.4-0.8,0.8-1.2,1.2c-0.6,0.6-0.6,1.7,0,2.2c0.7,0.6,1.6,0.6,2.2,0
			c3.5-3.2,6.3-7,8.9-10.9c1.3-1.9,2.6-3.8,3.9-5.7c0.7-1,1.3-1.9,2-2.9c0.2-0.2,0.3-0.4,0.5-0.7c0.1-0.1,0.3-0.4,0.1-0.2
			c0.1-0.1,0.2-0.2,0.3-0.4c0.3-0.5,0.7-0.9,1.1-1.3c3-3.6,6.2-7,9.6-10.2c3.4-3.2,6.8-6.4,10.2-9.6c3.4-3.2,6.7-6.6,9.8-10.1
			c0.4-0.4,0.7-0.9,1.1-1.3c0.5-0.6,0.7-1.6,0-2.2C159.9-45.3,158.9-45.5,158.3-44.8L158.3-44.8z"/>
	</g>
</g>
<g>
	<g>
		<path class="st0" d="M105.4-36.7c4.2,2.8,8.4,5.5,12.6,8.3c4.2,2.7,8.3,5.5,12.5,8.4c2,1.4,4.1,2.9,6.1,4.4c0.5,0.4,1,0.7,1.5,1.1
			c0.2,0.2,0.5,0.3,0.7,0.5c0.1,0.1,0.3,0.2,0.4,0.3c0,0,0.2,0.2,0.1,0.1c-0.1-0.1,0.1,0.1,0.1,0.1c1,0.8,2,1.6,3,2.3
			c3.5,2.9,7,5.8,10.1,9.2c0.7,0.8,1.5,1.7,2.2,2.5c0.1,0.1,0.2,0.2,0.2,0.3c0.1,0.1,0-0.1-0.1-0.1c0,0.1,0.1,0.1,0.1,0.2
			c0.2,0.2,0.3,0.5,0.5,0.7c0.3,0.4,0.6,0.9,0.9,1.3c0.6,0.9,1.1,1.8,1.6,2.8c0.2,0.5,0.5,1,0.7,1.5c0.1,0.1,0.1,0.3,0.2,0.4
			c0,0.1,0.1,0.1,0.1,0.2c0,0-0.1-0.2,0-0.1c0.1,0.2,0.2,0.5,0.3,0.7c0.2,0.5,0.4,1,0.5,1.6c0.2,0.8,1.1,1.3,1.9,1.1
			c0.8-0.2,1.3-1.1,1.1-1.9c-1.4-4.4-3.8-8.4-6.8-11.9c-2.9-3.5-6.3-6.5-9.8-9.4c-4-3.3-8.1-6.4-12.3-9.4c-4.1-2.9-8.3-5.7-12.5-8.6
			c-4.2-2.8-8.5-5.5-12.7-8.3c-0.5-0.3-1.1-0.7-1.6-1.1c-0.7-0.5-1.7-0.2-2.1,0.6C104.4-38,104.6-37.2,105.4-36.7L105.4-36.7z"/>
	</g>
</g>
<g>
	<g>
		<path class="st0" d="M136.7,21.2c0-10.1,0-20.3,0-30.4s0-20.3,0-30.4c0-5.7,0-11.3,0-17c0-0.8-0.7-1.6-1.6-1.6
			c-0.8,0-1.6,0.7-1.6,1.6c0,10.1,0,20.3,0,30.4s0,20.3,0,30.4c0,5.7,0,11.3,0,17c0,0.8,0.7,1.6,1.6,1.6
			C136,22.7,136.7,22.1,136.7,21.2L136.7,21.2z"/>
	</g>
</g>
<g>
	<g>
		<path class="st0" d="M95.1-14.3c5.4-0.2,10.8-0.5,16.2-1s10.8-1.1,16.1-1.7c5.4-0.7,10.8-1.3,16.1-1.9c5.4-0.6,10.8-1.2,16.1-1.6
			c5.4-0.4,10.8-0.7,16.2-0.8c0.7,0,1.3,0,2,0c0.8,0,1.6-0.7,1.6-1.6c0-0.8-0.7-1.6-1.6-1.6c-5.4,0-10.8,0.2-16.2,0.7
			c-5.4,0.4-10.8,0.9-16.1,1.6c-5.4,0.6-10.8,1.3-16.1,1.9c-5.4,0.7-10.8,1.3-16.1,1.8s-10.8,0.9-16.2,1.2c-0.7,0-1.3,0.1-2,0.1
			c-0.8,0-1.6,0.7-1.6,1.6C93.6-15,94.3-14.3,95.1-14.3L95.1-14.3z"/>
	</g>
</g>
</svg>
