<?xml version="1.0" encoding="utf-8"?>
<svg version="1.1" id="Layer_1" xmlns="http://www.w3.org/2000/svg" xmlns:xlink="http://www.w3.org/1999/xlink" x="0px" y="0px"
	 viewBox="0 0 300 300" style="enable-background:new 0 0 300 300;" xml:space="preserve">
<style type="text/css">
	.st0{fill:#1D1D1B;}
</style>
<g>
	<g>
		<path class="st0" d="M127.9-19.8C115.6,3,95.6,20.1,74.2,34.2c-10.8,7.1-22,13.5-33.2,19.7C27.7,61.3,14.3,68.7,0,74
			c-15.9,5.9-33.3,9.2-50.2,6.2c-1.9-0.3-2.7,2.6-0.8,2.9c31.4,5.4,61.2-8.9,88-23.6c23.2-12.8,46.7-25.9,66.4-43.9
			c10.8-9.8,20.2-21.1,27.2-33.9C131.4-20,128.8-21.5,127.9-19.8L127.9-19.8z"/>
	</g>
</g>
<g>
	<g>
		<path class="st0" d="M-29.6,121.5c11.2-0.2,22.1-4.3,32.6-8.1c10.4-3.7,20.6-8,30.6-12.5c20.3-9.1,39.9-19.6,59.2-30.5
			c19.4-10.8,38.7-21.8,57.9-32.9c18.8-10.8,37.4-22.3,54.1-36.3c17-14.2,31.5-31.2,45.6-48.3c1.8-2.2,3.6-4.3,5.3-6.5
			c1.2-1.5-0.9-3.6-2.1-2.1c-13.9,17-27.9,34.2-44.3,49C193.3,8,175,19.8,156.4,30.8c-18.8,11.1-38,21.8-57,32.5
			c-19.3,10.9-38.7,21.6-58.7,31c-10,4.7-20.1,9.1-30.4,13.1c-5.1,2-10.3,3.9-15.5,5.6c-5.3,1.8-10.6,3.5-16.1,4.6
			c-2.7,0.5-5.5,0.8-8.3,0.9C-31.5,118.6-31.5,121.6-29.6,121.5L-29.6,121.5z"/>
	</g>
</g>
<g>
	<g>
		<path class="st0" d="M-26.4,35.2c10.8,0.5,21.6-1.6,31.9-4.9c9.2-3,18.1-6.8,26.7-11.1c16.6-8.4,32-19.2,45.5-31.9
			c7.7-7.2,14.7-15,21.1-23.3c0.5-0.6,0.1-1.7-0.5-2.1c-0.8-0.5-1.6-0.1-2.1,0.5C85.1-23.1,71.8-10.2,57,0.5
			C42.2,11.2,25.9,19.9,8.7,26c-11.3,4-23.1,6.8-35.1,6.2C-28.3,32.1-28.3,35.1-26.4,35.2L-26.4,35.2z"/>
	</g>
</g>
<g>
	<g>
		<path class="st0" d="M-21.2,184.5c47-6.7,92.5-20.9,135.9-39.8c43.8-19.1,85.4-43,125.2-69.4c41.4-27.4,80.9-57.5,119.9-88.1
			c40.3-31.6,80.2-63.7,121.5-94c20.6-15.1,41.5-29.9,62.9-43.8c20-13,41.3-25.8,65.1-30.3c6.1-1.2,12.3-1.7,18.5-1.6
			c1.9,0,1.9-3,0-3c-23.7-0.4-46,9-66.2,20.6c-21.7,12.5-42.4,27.1-62.8,41.7c-41.4,29.6-81.2,61.2-121.2,92.6
			c-39.9,31.4-80,62.8-121.9,91.6c-39.5,27.2-80.7,52.2-124.2,72.7c-43.2,20.5-88.8,36.4-135.9,45c-5.9,1.1-11.9,2-17.8,2.9
			C-23.9,181.9-23.1,184.8-21.2,184.5L-21.2,184.5z"/>
	</g>
</g>
<g>
	<g>
		<path class="st0" d="M-6.4,214.9c25.8-1.5,51.6-3.9,77.1-7.8c25.5-3.9,50.8-9.3,75.5-16.9c24.5-7.5,48.4-17.2,70.9-29.4
			c22.9-12.4,44.2-27.4,64.5-43.6c10.3-8.2,20.3-16.8,30.2-25.5c4.9-4.3,9.7-8.6,14.5-13c4.2-3.8,9.6-7.6,11.8-13
			c1-2.4,1-4.9-0.3-7.1c-1-1.7-3.6-0.1-2.6,1.5c3.1,5.1-4.9,10.8-8.1,13.7c-4.7,4.3-9.4,8.6-14.2,12.8c-9.5,8.5-19.2,16.8-29.1,24.9
			c-19.8,16.1-40.6,31.1-62.8,43.7c-21.9,12.4-45.2,22.3-69.2,30.1c-24,7.8-48.6,13.4-73.4,17.6c-24.9,4.2-50.1,6.8-75.3,8.5
			c-3.1,0.2-6.3,0.4-9.4,0.6C-8.3,212-8.3,215-6.4,214.9L-6.4,214.9z"/>
	</g>
</g>
<g>
	<g>
		<path class="st0" d="M-37.3,255.9c30.2-0.5,60.4-0.1,90.6-0.6c29-0.5,58.1-2,86.8-6.1c27.6-4,55-10.5,80.9-20.8
			c22.7-9.1,44.2-21.1,63.3-36.5c18.4-14.8,34.5-32.8,46.4-53.3c1.4-2.5,2.8-5.1,4.1-7.6c0.9-1.7-1.7-3.2-2.6-1.5
			c-10.7,21-25.8,39.5-43.6,54.9c-18,15.7-38.7,28.3-60.6,37.9c-25.3,11-52.1,18.1-79.3,22.6c-28.3,4.7-56.9,6.5-85.5,7.3
			c-29.8,0.8-59.6,0.3-89.4,0.7c-3.7,0-7.4,0.1-11,0.2C-39.3,252.9-39.3,255.9-37.3,255.9L-37.3,255.9z"/>
	</g>
</g>
<g>
	<g>
		<path class="st0" d="M321.5,205.4c-8.3,21.2-25.5,37.6-44.9,48.8c-22.7,13.1-48.6,19.2-74.1,24.4c-27.7,5.6-55.5,10.3-83.4,14.2
			c-28,3.9-56.1,7-84.3,9.2c-28.2,2.2-56.5,3.6-84.7,4.1c-3.5,0.1-7,0.1-10.5,0.2c-1.9,0-1.9,3,0,3c28.8-0.3,57.6-1.5,86.3-3.6
			c28.6-2.1,57.1-5,85.5-8.8c28.3-3.8,56.5-8.4,84.5-13.9c26.3-5.2,53.1-10.9,77.1-23.3c19.9-10.3,38.1-25.8,48.3-46.1
			c1.2-2.4,2.3-4.9,3.3-7.4C325.1,204.4,322.2,203.6,321.5,205.4L321.5,205.4z"/>
	</g>
</g>
<g>
	<g>
		<path class="st0" d="M-40.8,146.9c35.3-0.6,69.9-9.4,102.5-22.5c33.3-13.4,64.5-31.2,95.2-49.6c32.2-19.3,64.1-39,96.2-58.5
			c16.1-9.8,32.3-19.6,48.4-29.5c13.3-8.1,26.5-16.1,39.4-24.9c24.3-16.6,47.6-36,63.1-61.4c2-3.2,3.8-6.5,5.4-9.8
			c0.9-1.7-1.7-3.2-2.6-1.5C393.3-84,371.1-63.3,347-46c-12.2,8.8-24.9,16.8-37.7,24.6C293.7-11.9,278.2-2.5,262.6,7
			c-31.9,19.4-63.7,38.8-95.6,58.2c-30.3,18.4-61,36.6-93.5,51C41.4,130.4,7.2,140.9-28,143.4c-4.3,0.3-8.6,0.5-12.9,0.6
			C-42.7,144-42.8,147-40.8,146.9L-40.8,146.9z"/>
	</g>
</g>
</svg>
