<?xml version="1.0" encoding="utf-8"?>
<!-- Generator: Adobe Illustrator 27.1.0, SVG Export Plug-In . SVG Version: 6.00 Build 0)  -->
<svg version="1.1" id="Layer_1" xmlns="http://www.w3.org/2000/svg" xmlns:xlink="http://www.w3.org/1999/xlink" x="0px" y="0px"
	 viewBox="0 0 300 300" style="enable-background:new 0 0 300 300;" xml:space="preserve">
<style type="text/css">
	.st0{fill:#1D1D1B;}
</style>
<g>
	<g>
		<path class="st0" d="M15.7,23.6c2.1,0.1,4.2-0.4,6-1.4c1.9-0.6,3.6-1.7,5-3.3c1.5-1.4,2.6-3.1,3.3-5c1-1.9,1.4-3.9,1.4-6
			c-0.2-1.4-0.4-2.8-0.6-4.1c-0.8-2.6-2.1-5-4-6.9C23.7-5.9,20-7.7,15.7-7.7c-2.1-0.1-4.2,0.4-6,1.4C7.7-5.7,6-4.6,4.6-3
			C3.1-1.6,2,0.1,1.4,2C0.4,3.9-0.1,5.9,0,8c0.2,1.4,0.4,2.8,0.6,4.1c0.8,2.6,2.1,5,4,6.9C7.7,21.8,11.4,23.6,15.7,23.6L15.7,23.6z"
			/>
	</g>
</g>
<g>
	<g>
		<path class="st0" d="M259.9,315.6c2.1,0.1,4.2-0.4,6-1.4c1.9-0.6,3.6-1.7,5-3.3c1.5-1.4,2.6-3.1,3.3-5c1-1.9,1.4-3.9,1.4-6
			c-0.2-1.4-0.4-2.8-0.6-4.1c-0.8-2.6-2.1-5-4-6.9c-3.1-2.8-6.8-4.6-11.1-4.6c-2.1-0.1-4.2,0.4-6,1.4c-1.9,0.6-3.6,1.7-5,3.3
			c-1.5,1.4-2.6,3.1-3.3,5c-1,1.9-1.4,3.9-1.4,6c0.2,1.4,0.4,2.8,0.6,4.1c0.8,2.6,2.1,5,4,6.9C251.9,313.8,255.6,315.6,259.9,315.6
			L259.9,315.6z"/>
	</g>
</g>
<g>
	<g>
		<path class="st0" d="M39.4,145.4c2.1,0.1,4.2-0.4,6-1.4c1.9-0.6,3.6-1.7,5-3.3c1.5-1.4,2.6-3.1,3.3-5c1-1.9,1.4-3.9,1.4-6
			c-0.2-1.4-0.4-2.8-0.6-4.1c-0.8-2.6-2.1-5-4-6.9c-3.1-2.8-6.8-4.6-11.1-4.6c-2.1-0.1-4.2,0.4-6,1.4c-1.9,0.6-3.6,1.7-5,3.3
			c-1.5,1.4-2.6,3.1-3.3,5c-1,1.9-1.4,3.9-1.4,6c0.2,1.4,0.4,2.8,0.6,4.1c0.8,2.6,2.1,5,4,6.9C31.3,143.7,35.1,145.4,39.4,145.4
			L39.4,145.4z"/>
	</g>
</g>
<g>
	<g>
		<path class="st0" d="M113.6,114.1c2.1,0.1,4.2-0.4,6-1.4c1.9-0.6,3.6-1.7,5-3.3c1.5-1.4,2.6-3.1,3.3-5c1-1.9,1.4-3.9,1.4-6
			c-0.2-1.4-0.4-2.8-0.6-4.1c-0.8-2.6-2.1-5-4-6.9c-3.1-2.8-6.8-4.6-11.1-4.6c-2.1-0.1-4.2,0.4-6,1.4c-1.9,0.6-3.6,1.7-5,3.3
			c-1.5,1.4-2.6,3.1-3.3,5c-1,1.9-1.4,3.9-1.4,6c0.2,1.4,0.4,2.8,0.6,4.1c0.8,2.6,2.1,5,4,6.9C105.6,112.4,109.4,114.1,113.6,114.1
			L113.6,114.1z"/>
	</g>
</g>
<g>
	<g>
		<path class="st0" d="M218.3,254.6c2.1,0.1,4.2-0.4,6-1.4c1.9-0.6,3.6-1.7,5-3.3c1.5-1.4,2.6-3.1,3.3-5c1-1.9,1.4-3.9,1.4-6
			c-0.2-1.4-0.4-2.8-0.6-4.1c-0.8-2.6-2.1-5-4-6.9c-3.1-2.8-6.8-4.6-11.1-4.6c-2.1-0.1-4.2,0.4-6,1.4c-1.9,0.6-3.6,1.7-5,3.3
			c-1.5,1.4-2.6,3.1-3.3,5c-1,1.9-1.4,3.9-1.4,6c0.2,1.4,0.4,2.8,0.6,4.1c0.8,2.6,2.1,5,4,6.9C210.3,252.9,214.1,254.6,218.3,254.6
			L218.3,254.6z"/>
	</g>
</g>
<g>
	<g>
		<path class="st0" d="M145,23.6c2.1,0.1,4.2-0.4,6-1.4c1.9-0.6,3.6-1.7,5-3.3c1.5-1.4,2.6-3.1,3.3-5c1-1.9,1.4-3.9,1.4-6
			c-0.2-1.4-0.4-2.8-0.6-4.1c-0.8-2.6-2.1-5-4-6.9c-3.1-2.8-6.8-4.6-11.1-4.6c-2.1-0.1-4.2,0.4-6,1.4c-1.9,0.6-3.6,1.7-5,3.3
			c-1.5,1.4-2.6,3.1-3.3,5c-1,1.9-1.4,3.9-1.4,6c0.2,1.4,0.4,2.8,0.6,4.1c0.8,2.6,2.1,5,4,6.9C137,21.8,140.7,23.6,145,23.6
			L145,23.6z"/>
	</g>
</g>
<g>
	<g>
		<path class="st0" d="M270.4,39.3c2.1,0.1,4.2-0.4,6-1.4c1.9-0.6,3.6-1.7,5-3.3c1.5-1.4,2.6-3.1,3.3-5c1-1.9,1.4-3.9,1.4-6
			c-0.2-1.4-0.4-2.8-0.6-4.1c-0.8-2.6-2.1-5-4-6.9c-3.1-2.8-6.8-4.6-11.1-4.6c-2.1-0.1-4.2,0.4-6,1.4c-1.9,0.6-3.6,1.7-5,3.3
			c-1.5,1.4-2.6,3.1-3.3,5c-1,1.9-1.4,3.9-1.4,6c0.2,1.4,0.4,2.8,0.6,4.1c0.8,2.6,2.1,5,4,6.9C262.4,37.5,266.2,39.3,270.4,39.3
			L270.4,39.3z"/>
	</g>
</g>
<g>
	<g>
		<path class="st0" d="M190.9,86.1c2.1,0.1,4.2-0.4,6-1.4c1.9-0.6,3.6-1.7,5-3.3c1.5-1.4,2.6-3.1,3.3-5c1-1.9,1.4-3.9,1.4-6
			c-0.2-1.4-0.4-2.8-0.6-4.1c-0.8-2.6-2.1-5-4-6.9c-3.1-2.8-6.8-4.6-11.1-4.6c-2.1-0.1-4.2,0.4-6,1.4c-1.9,0.6-3.6,1.7-5,3.3
			c-1.5,1.4-2.6,3.1-3.3,5c-1,1.9-1.4,3.9-1.4,6c0.2,1.4,0.4,2.8,0.6,4.1c0.8,2.6,2.1,5,4,6.9C182.9,84.4,186.6,86.1,190.9,86.1
			L190.9,86.1z"/>
	</g>
</g>
<g>
	<g>
		<path class="st0" d="M300,211.5c2.1,0.1,4.2-0.4,6-1.4c1.9-0.6,3.6-1.7,5-3.3c1.5-1.4,2.6-3.1,3.3-5c1-1.9,1.4-3.9,1.4-6
			c-0.2-1.4-0.4-2.8-0.6-4.1c-0.8-2.6-2.1-5-4-6.9c-3.1-2.8-6.8-4.6-11.1-4.6c-2.1-0.1-4.2,0.4-6,1.4c-1.9,0.6-3.6,1.7-5,3.3
			c-1.5,1.4-2.6,3.1-3.3,5c-1,1.9-1.4,3.9-1.4,6c0.2,1.4,0.4,2.8,0.6,4.1c0.8,2.6,2.1,5,4,6.9C292,209.7,295.7,211.5,300,211.5
			L300,211.5z"/>
	</g>
</g>
<g>
	<g>
		<path class="st0" d="M165.7,181.3c2.1,0.1,4.2-0.4,6-1.4c1.9-0.6,3.6-1.7,5-3.3c1.5-1.4,2.6-3.1,3.3-5c1-1.9,1.4-3.9,1.4-6
			c-0.2-1.4-0.4-2.8-0.6-4.1c-0.8-2.6-2.1-5-4-6.9c-3.1-2.8-6.8-4.6-11.1-4.6c-2.1-0.1-4.2,0.4-6,1.4c-1.9,0.6-3.6,1.7-5,3.3
			c-1.5,1.4-2.6,3.1-3.3,5c-1,1.9-1.4,3.9-1.4,6c0.2,1.4,0.4,2.8,0.6,4.1c0.8,2.6,2.1,5,4,6.9C157.7,179.5,161.4,181.3,165.7,181.3
			L165.7,181.3z"/>
	</g>
</g>
<g>
	<g>
		<path class="st0" d="M106.1,239c2.1,0.1,4.2-0.4,6-1.4c1.9-0.6,3.6-1.7,5-3.3c1.5-1.4,2.6-3.1,3.3-5c1-1.9,1.4-3.9,1.4-6
			c-0.2-1.4-0.4-2.8-0.6-4.1c-0.8-2.6-2.1-5-4-6.9c-3.1-2.8-6.8-4.6-11.1-4.6c-2.1-0.1-4.2,0.4-6,1.4c-1.9,0.6-3.6,1.7-5,3.3
			c-1.5,1.4-2.6,3.1-3.3,5c-1,1.9-1.4,3.9-1.4,6c0.2,1.4,0.4,2.8,0.6,4.1c0.8,2.6,2.1,5,4,6.9C98.1,237.2,101.8,239,106.1,239
			L106.1,239z"/>
	</g>
</g>
<g>
	<g>
		<path class="st0" d="M145,306.4c2.1,0.1,4.2-0.4,6-1.4c1.9-0.6,3.6-1.7,5-3.3c1.5-1.4,2.6-3.1,3.3-5c1-1.9,1.4-3.9,1.4-6
			c-0.2-1.4-0.4-2.8-0.6-4.1c-0.8-2.6-2.1-5-4-6.9c-3.1-2.8-6.8-4.6-11.1-4.6c-2.1-0.1-4.2,0.4-6,1.4c-1.9,0.6-3.6,1.7-5,3.3
			c-1.5,1.4-2.6,3.1-3.3,5c-1,1.9-1.4,3.9-1.4,6c0.2,1.4,0.4,2.8,0.6,4.1c0.8,2.6,2.1,5,4,6.9C137,304.6,140.7,306.4,145,306.4
			L145,306.4z"/>
	</g>
</g>
<g>
	<g>
		<path class="st0" d="M45.1,306.4c2.1,0.1,4.2-0.4,6-1.4c1.9-0.6,3.6-1.7,5-3.3c1.5-1.4,2.6-3.1,3.3-5c1-1.9,1.4-3.9,1.4-6
			c-0.2-1.4-0.4-2.8-0.6-4.1c-0.8-2.6-2.1-5-4-6.9c-3.1-2.8-6.8-4.6-11.1-4.6c-2.1-0.1-4.2,0.4-6,1.4c-1.9,0.6-3.6,1.7-5,3.3
			c-1.5,1.4-2.6,3.1-3.3,5c-1,1.9-1.4,3.9-1.4,6c0.2,1.4,0.4,2.8,0.6,4.1c0.8,2.6,2.1,5,4,6.9C37.1,304.6,40.8,306.4,45.1,306.4
			L45.1,306.4z"/>
	</g>
</g>
<g>
	<g>
		<path class="st0" d="M0.3,219.7c2.1,0.1,4.2-0.4,6-1.4c1.9-0.6,3.6-1.7,5-3.3c1.5-1.4,2.6-3.1,3.3-5c1-1.9,1.4-3.9,1.4-6
			c-0.2-1.4-0.4-2.8-0.6-4.1c-0.8-2.6-2.1-5-4-6.9c-3.1-2.8-6.8-4.6-11.1-4.6c-2.1-0.1-4.2,0.4-6,1.4c-1.9,0.6-3.6,1.7-5,3.3
			c-1.5,1.4-2.6,3.1-3.3,5c-1,1.9-1.4,3.9-1.4,6c0.2,1.4,0.4,2.8,0.6,4.1c0.8,2.6,2.1,5,4,6.9C-7.8,217.9-4,219.7,0.3,219.7
			L0.3,219.7z"/>
	</g>
</g>
<g>
	<g>
		<path class="st0" d="M249.6,150.8c2.1,0.1,4.2-0.4,6-1.4c1.9-0.6,3.6-1.7,5-3.3c1.5-1.4,2.6-3.1,3.3-5c1-1.9,1.4-3.9,1.4-6
			c-0.2-1.4-0.4-2.8-0.6-4.1c-0.8-2.6-2.1-5-4-6.9c-3.1-2.8-6.8-4.6-11.1-4.6c-2.1-0.1-4.2,0.4-6,1.4c-1.9,0.6-3.6,1.7-5,3.3
			c-1.5,1.4-2.6,3.1-3.3,5c-1,1.9-1.4,3.9-1.4,6c0.2,1.4,0.4,2.8,0.6,4.1c0.8,2.6,2.1,5,4,6.9C241.6,149,245.4,150.8,249.6,150.8
			L249.6,150.8z"/>
	</g>
</g>
<g>
	<g>
		<path class="st0" d="M60.8,54.9c2.1,0.1,4.2-0.4,6-1.4c1.9-0.6,3.6-1.7,5-3.3c1.5-1.4,2.6-3.1,3.3-5c1-1.9,1.4-3.9,1.4-6
			c-0.2-1.4-0.4-2.8-0.6-4.1c-0.8-2.6-2.1-5-4-6.9c-3.1-2.8-6.8-4.6-11.1-4.6c-2.1-0.1-4.2,0.4-6,1.4c-1.9,0.6-3.6,1.7-5,3.3
			c-1.5,1.4-2.6,3.1-3.3,5c-1,1.9-1.4,3.9-1.4,6c0.2,1.4,0.4,2.8,0.6,4.1c0.8,2.6,2.1,5,4,6.9C52.8,53.2,56.5,54.9,60.8,54.9
			L60.8,54.9z"/>
	</g>
</g>
</svg>
