<?xml version="1.0" encoding="utf-8"?>
<!-- Generator: Adobe Illustrator 27.1.0, SVG Export Plug-In . SVG Version: 6.00 Build 0)  -->
<svg version="1.1" id="Layer_1" xmlns="http://www.w3.org/2000/svg" xmlns:xlink="http://www.w3.org/1999/xlink" x="0px" y="0px"
	 viewBox="0 0 300 300" style="enable-background:new 0 0 300 300;" xml:space="preserve">
<style type="text/css">
	.st0{stroke:#000000;stroke-width:3;stroke-miterlimit:10;}
</style>
<g>
	<g>
		<path class="st0" d="M111.5,150.6c8.4-13.9,16.3-28.4,27.1-40.6c3.1-3.5,6.4-6.7,10-9.7c1.5-1.2-0.6-3.4-2.1-2.1
			c-12.4,10.4-21.3,24-29.6,37.7c-2.7,4.4-5.3,8.8-8,13.2C107.9,150.8,110.5,152.3,111.5,150.6L111.5,150.6z"/>
	</g>
</g>
<g>
	<g>
		<path class="st0" d="M145.8,100.7c6.5,6.4,13,12.8,19.4,19.4c2.9,3,5.7,6.2,8.2,9.6c2.4,3.2,4.6,6.4,6.9,9.6
			c2.7,3.7,5.6,7.2,8.9,10.4c1.4,1.3,3.5-0.8,2.1-2.1c-5.9-5.6-10.2-12.4-15-18.9c-5.1-6.9-11.2-12.9-17.3-19
			c-3.7-3.7-7.4-7.4-11.1-11.1C146.6,97.2,144.5,99.3,145.8,100.7L145.8,100.7z"/>
	</g>
</g>
<g>
	<g>
		<path class="st0" d="M108.3,151.7c6.7,6.6,13.4,13.1,20.2,19.7c6.5,6.4,13.1,12.7,20.2,18.4c4,3.2,8.1,6.3,12.2,9.5
			c1.5,1.2,3-1.4,1.5-2.6c-7.2-5.5-14.3-10.9-20.9-17c-6.7-6.1-13.2-12.6-19.7-19c-3.8-3.7-7.5-7.4-11.3-11
			C109,148.2,106.9,150.3,108.3,151.7L108.3,151.7z"/>
	</g>
</g>
<g>
	<g>
		<path class="st0" d="M189.4,147.8c-11,15.8-20.6,32.5-28.8,50c-0.8,1.7,1.8,3.3,2.6,1.5c8.1-17.5,17.8-34.2,28.8-50
			C193.1,147.8,190.5,146.3,189.4,147.8L189.4,147.8z"/>
	</g>
</g>
<g>
	<g>
		<path class="st0" d="M194.1,150.6c8.4-13.9,16.3-28.4,27.1-40.6c3.1-3.5,6.4-6.7,10-9.7c1.5-1.2-0.6-3.4-2.1-2.1
			c-12.4,10.4-21.3,24-29.6,37.7c-2.7,4.4-5.3,8.8-8,13.2C190.5,150.8,193.1,152.3,194.1,150.6L194.1,150.6z"/>
	</g>
</g>
<g>
	<g>
		<path class="st0" d="M228.5,100.7c6.5,6.4,13,12.8,19.4,19.4c2.9,3,5.7,6.2,8.2,9.6c2.4,3.2,4.6,6.4,6.9,9.6
			c2.7,3.7,5.6,7.2,8.9,10.4c1.4,1.3,3.5-0.8,2.1-2.1c-5.9-5.6-10.2-12.4-15-18.9c-5.1-6.9-11.2-12.9-17.3-19
			c-3.7-3.7-7.4-7.4-11.1-11.1C229.3,97.2,227.1,99.3,228.5,100.7L228.5,100.7z"/>
	</g>
</g>
<g>
	<g>
		<path class="st0" d="M191,151.7c6.7,6.6,13.4,13.1,20.2,19.7c6.5,6.4,13.1,12.7,20.2,18.4c4,3.2,8.1,6.3,12.2,9.5
			c1.5,1.2,3-1.4,1.5-2.6c-7.2-5.5-14.3-10.9-20.9-17c-6.7-6.1-13.2-12.6-19.7-19c-3.8-3.7-7.5-7.4-11.3-11
			C191.7,148.2,189.6,150.3,191,151.7L191,151.7z"/>
	</g>
</g>
<g>
	<g>
		<path class="st0" d="M272,147.8c-11,15.8-20.6,32.5-28.8,50c-0.8,1.7,1.8,3.3,2.6,1.5c8.1-17.5,17.8-34.2,28.8-50
			C275.7,147.8,273.1,146.3,272,147.8L272,147.8z"/>
	</g>
</g>
<g>
	<g>
		<path class="st0" d="M27.8,152.2c8.4-13.9,16.3-28.4,27.1-40.6c3.1-3.5,6.4-6.7,10-9.7c1.5-1.2-0.6-3.4-2.1-2.1
			c-12.4,10.4-21.3,24-29.6,37.7c-2.7,4.4-5.3,8.8-8,13.2C24.2,152.4,26.8,153.9,27.8,152.2L27.8,152.2z"/>
	</g>
</g>
<g>
	<g>
		<path class="st0" d="M62.1,102.3c6.5,6.4,13,12.8,19.4,19.4c2.9,3,5.7,6.2,8.2,9.6c2.4,3.2,4.6,6.4,6.9,9.6
			c2.7,3.7,5.6,7.2,8.9,10.4c1.4,1.3,3.5-0.8,2.1-2.1c-5.9-5.6-10.2-12.4-15-18.9c-5.1-6.9-11.2-12.9-17.3-19
			c-3.7-3.7-7.4-7.4-11.1-11.1C62.9,98.8,60.8,100.9,62.1,102.3L62.1,102.3z"/>
	</g>
</g>
<g>
	<g>
		<path class="st0" d="M24.6,153.3c6.7,6.6,13.4,13.1,20.2,19.7c6.5,6.4,13.1,12.7,20.2,18.4c4,3.2,8.1,6.3,12.2,9.5
			c1.5,1.2,3-1.4,1.5-2.6c-7.2-5.5-14.3-10.9-20.9-17c-6.7-6.1-13.2-12.6-19.7-19c-3.8-3.7-7.5-7.4-11.3-11
			C25.3,149.8,23.2,151.9,24.6,153.3L24.6,153.3z"/>
	</g>
</g>
<g>
	<g>
		<path class="st0" d="M105.7,149.4c-11,15.8-20.6,32.5-28.8,50c-0.8,1.7,1.8,3.3,2.6,1.5c8.1-17.5,17.8-34.2,28.8-50
			C109.4,149.4,106.8,147.9,105.7,149.4L105.7,149.4z"/>
	</g>
</g>
<g>
	<g>
		<path class="st0" d="M97,50.9c8.4-13.9,16.3-28.4,27.1-40.6c3.1-3.5,6.4-6.7,10-9.7c1.5-1.2-0.6-3.4-2.1-2.1
			c-12.4,10.4-21.3,24-29.6,37.7c-2.7,4.4-5.3,8.8-8,13.2C93.4,51,96,52.5,97,50.9L97,50.9z"/>
	</g>
</g>
<g>
	<g>
		<path class="st0" d="M131.4,0.9c6.5,6.4,13,12.8,19.4,19.4c2.9,3,5.7,6.2,8.2,9.6c2.4,3.2,4.6,6.4,6.9,9.6
			c2.7,3.7,5.6,7.2,8.9,10.4c1.4,1.3,3.5-0.8,2.1-2.1c-5.9-5.6-10.2-12.4-15-18.9c-5.1-6.9-11.2-12.9-17.3-19
			c-3.7-3.7-7.4-7.4-11.1-11.1C132.1-2.5,130-0.4,131.4,0.9L131.4,0.9z"/>
	</g>
</g>
<g>
	<g>
		<path class="st0" d="M93.8,51.9c6.7,6.6,13.4,13.1,20.2,19.7c6.5,6.4,13.1,12.7,20.2,18.4c4,3.2,8.1,6.3,12.2,9.5
			c1.5,1.2,3-1.4,1.5-2.6c-7.2-5.5-14.3-10.9-20.9-17c-6.7-6.1-13.2-12.6-19.7-19c-3.8-3.7-7.5-7.4-11.3-11
			C94.6,48.5,92.5,50.6,93.8,51.9L93.8,51.9z"/>
	</g>
</g>
<g>
	<g>
		<path class="st0" d="M174.9,48.1c-11,15.8-20.6,32.5-28.8,50c-0.8,1.7,1.8,3.3,2.6,1.5c8.1-17.5,17.8-34.2,28.8-50
			C178.6,48,176,46.5,174.9,48.1L174.9,48.1z"/>
	</g>
</g>
<g>
	<g>
		<path class="st0" d="M127,250.4c8.4-13.9,16.3-28.4,27.1-40.6c3.1-3.5,6.4-6.7,10-9.7c1.5-1.2-0.6-3.4-2.1-2.1
			c-12.4,10.4-21.3,24-29.6,37.7c-2.7,4.4-5.3,8.8-8,13.2C123.4,250.5,126,252,127,250.4L127,250.4z"/>
	</g>
</g>
<g>
	<g>
		<path class="st0" d="M161.3,200.4c6.5,6.4,13,12.8,19.4,19.4c2.9,3,5.7,6.2,8.2,9.6c2.4,3.2,4.6,6.4,6.9,9.6
			c2.7,3.7,5.6,7.2,8.9,10.4c1.4,1.3,3.5-0.8,2.1-2.1c-5.9-5.6-10.2-12.4-15-18.9c-5.1-6.9-11.2-12.9-17.3-19
			c-3.7-3.7-7.4-7.4-11.1-11.1C162.1,196.9,160,199.1,161.3,200.4L161.3,200.4z"/>
	</g>
</g>
<g>
	<g>
		<path class="st0" d="M123.8,251.4c6.7,6.6,13.4,13.1,20.2,19.7c6.5,6.4,13.1,12.7,20.2,18.4c4,3.2,8.1,6.3,12.2,9.5
			c1.5,1.2,3-1.4,1.5-2.6c-7.2-5.5-14.3-10.9-20.9-17c-6.7-6.1-13.2-12.6-19.7-19c-3.8-3.7-7.5-7.4-11.3-11
			C124.5,247.9,122.4,250,123.8,251.4L123.8,251.4z"/>
	</g>
</g>
<g>
	<g>
		<path class="st0" d="M204.9,247.6c-11,15.8-20.6,32.5-28.8,50c-0.8,1.7,1.8,3.3,2.6,1.5c8.1-17.5,17.8-34.2,28.8-50
			C208.6,247.5,206,246,204.9,247.6L204.9,247.6z"/>
	</g>
</g>
<g>
	<g>
		<path class="st0" d="M359.1,150.6c8.4-13.9,16.3-28.4,27.1-40.6c3.1-3.5,6.4-6.7,10-9.7c1.5-1.2-0.6-3.4-2.1-2.1
			c-12.4,10.4-21.3,24-29.6,37.7c-2.7,4.4-5.3,8.8-8,13.2C355.5,150.8,358.1,152.3,359.1,150.6L359.1,150.6z"/>
	</g>
</g>
<g>
	<g>
		<path class="st0" d="M393.5,100.7c6.5,6.4,13,12.8,19.4,19.4c2.9,3,5.7,6.2,8.2,9.6c2.4,3.2,4.6,6.4,6.9,9.6
			c2.7,3.7,5.6,7.2,8.9,10.4c1.4,1.3,3.5-0.8,2.1-2.1c-5.9-5.6-10.2-12.4-15-18.9c-5.1-6.9-11.2-12.9-17.3-19
			c-3.7-3.7-7.4-7.4-11.1-11.1C394.3,97.2,392.1,99.3,393.5,100.7L393.5,100.7z"/>
	</g>
</g>
<g>
	<g>
		<path class="st0" d="M356,151.7c6.7,6.6,13.4,13.1,20.2,19.7c6.5,6.4,13.1,12.7,20.2,18.4c4,3.2,8.1,6.3,12.2,9.5
			c1.5,1.2,3-1.4,1.5-2.6c-7.2-5.5-14.3-10.9-20.9-17c-6.7-6.1-13.2-12.6-19.7-19c-3.8-3.7-7.5-7.4-11.3-11
			C356.7,148.2,354.6,150.3,356,151.7L356,151.7z"/>
	</g>
</g>
<g>
	<g>
		<path class="st0" d="M437,147.8c-11,15.8-20.6,32.5-28.8,50c-0.8,1.7,1.8,3.3,2.6,1.5c8.1-17.5,17.8-34.2,28.8-50
			C440.7,147.8,438.1,146.3,437,147.8L437,147.8z"/>
	</g>
</g>
<g>
	<g>
		<path class="st0" d="M441.8,150.6c8.4-13.9,16.3-28.4,27.1-40.6c3.1-3.5,6.4-6.7,10-9.7c1.5-1.2-0.6-3.4-2.1-2.1
			c-12.4,10.4-21.3,24-29.6,37.7c-2.7,4.4-5.3,8.8-8,13.2C438.2,150.8,440.8,152.3,441.8,150.6L441.8,150.6z"/>
	</g>
</g>
<g>
	<g>
		<path class="st0" d="M476.2,100.7c6.5,6.4,13,12.8,19.4,19.4c2.9,3,5.7,6.2,8.2,9.6c2.4,3.2,4.6,6.4,6.9,9.6
			c2.7,3.7,5.6,7.2,8.9,10.4c1.4,1.3,3.5-0.8,2.1-2.1c-5.9-5.6-10.2-12.4-15-18.9c-5.1-6.9-11.2-12.9-17.3-19
			c-3.7-3.7-7.4-7.4-11.1-11.1C476.9,97.2,474.8,99.3,476.2,100.7L476.2,100.7z"/>
	</g>
</g>
<g>
	<g>
		<path class="st0" d="M438.6,151.7c6.7,6.6,13.4,13.1,20.2,19.7c6.5,6.4,13.1,12.7,20.2,18.4c4,3.2,8.1,6.3,12.2,9.5
			c1.5,1.2,3-1.4,1.5-2.6c-7.2-5.5-14.3-10.9-20.9-17c-6.7-6.1-13.2-12.6-19.7-19c-3.8-3.7-7.5-7.4-11.3-11
			C439.4,148.2,437.3,150.3,438.6,151.7L438.6,151.7z"/>
	</g>
</g>
<g>
	<g>
		<path class="st0" d="M519.7,147.8c-11,15.8-20.6,32.5-28.8,50c-0.8,1.7,1.8,3.3,2.6,1.5c8.1-17.5,17.8-34.2,28.8-50
			C523.4,147.8,520.8,146.3,519.7,147.8L519.7,147.8z"/>
	</g>
</g>
<g>
	<g>
		<path class="st0" d="M275.4,152.2c8.4-13.9,16.3-28.4,27.1-40.6c3.1-3.5,6.4-6.7,10-9.7c1.5-1.2-0.6-3.4-2.1-2.1
			c-12.4,10.4-21.3,24-29.6,37.7c-2.7,4.4-5.3,8.8-8,13.2C271.8,152.4,274.4,153.9,275.4,152.2L275.4,152.2z"/>
	</g>
</g>
<g>
	<g>
		<path class="st0" d="M309.8,102.3c6.5,6.4,13,12.8,19.4,19.4c2.9,3,5.7,6.2,8.2,9.6c2.4,3.2,4.6,6.4,6.9,9.6
			c2.7,3.7,5.6,7.2,8.9,10.4c1.4,1.3,3.5-0.8,2.1-2.1c-5.9-5.6-10.2-12.4-15-18.9c-5.1-6.9-11.2-12.9-17.3-19
			c-3.7-3.7-7.4-7.4-11.1-11.1C310.6,98.8,308.4,100.9,309.8,102.3L309.8,102.3z"/>
	</g>
</g>
<g>
	<g>
		<path class="st0" d="M272.3,153.3c6.7,6.6,13.4,13.1,20.2,19.7c6.5,6.4,13.1,12.7,20.2,18.4c4,3.2,8.1,6.3,12.2,9.5
			c1.5,1.2,3-1.4,1.5-2.6c-7.2-5.5-14.3-10.9-20.9-17c-6.7-6.1-13.2-12.6-19.7-19c-3.8-3.7-7.5-7.4-11.3-11
			C273,149.8,270.9,151.9,272.3,153.3L272.3,153.3z"/>
	</g>
</g>
<g>
	<g>
		<path class="st0" d="M353.3,149.4c-11,15.8-20.6,32.5-28.8,50c-0.8,1.7,1.8,3.3,2.6,1.5c8.1-17.5,17.8-34.2,28.8-50
			C357,149.4,354.4,147.9,353.3,149.4L353.3,149.4z"/>
	</g>
</g>
<g>
	<g>
		<path class="st0" d="M344.7,50.9c8.4-13.9,16.3-28.4,27.1-40.6c3.1-3.5,6.4-6.7,10-9.7c1.5-1.2-0.6-3.4-2.1-2.1
			c-12.4,10.4-21.3,24-29.6,37.7c-2.7,4.4-5.3,8.8-8,13.2C341.1,51,343.7,52.5,344.7,50.9L344.7,50.9z"/>
	</g>
</g>
<g>
	<g>
		<path class="st0" d="M379,0.9c6.5,6.4,13,12.8,19.4,19.4c2.9,3,5.7,6.2,8.2,9.6c2.4,3.2,4.6,6.4,6.9,9.6c2.7,3.7,5.6,7.2,8.9,10.4
			c1.4,1.3,3.5-0.8,2.1-2.1c-5.9-5.6-10.2-12.4-15-18.9c-5.1-6.9-11.2-12.9-17.3-19c-3.7-3.7-7.4-7.4-11.1-11.1
			C379.8-2.5,377.7-0.4,379,0.9L379,0.9z"/>
	</g>
</g>
<g>
	<g>
		<path class="st0" d="M341.5,51.9c6.7,6.6,13.4,13.1,20.2,19.7c6.5,6.4,13.1,12.7,20.2,18.4c4,3.2,8.1,6.3,12.2,9.5
			c1.5,1.2,3-1.4,1.5-2.6c-7.2-5.5-14.3-10.9-20.9-17c-6.7-6.1-13.2-12.6-19.7-19c-3.8-3.7-7.5-7.4-11.3-11
			C342.2,48.5,340.1,50.6,341.5,51.9L341.5,51.9z"/>
	</g>
</g>
<g>
	<g>
		<path class="st0" d="M422.6,48.1c-11,15.8-20.6,32.5-28.8,50c-0.8,1.7,1.8,3.3,2.6,1.5c8.1-17.5,17.8-34.2,28.8-50
			C426.3,48,423.7,46.5,422.6,48.1L422.6,48.1z"/>
	</g>
</g>
<g>
	<g>
		<path class="st0" d="M374.6,250.4c8.4-13.9,16.3-28.4,27.1-40.6c3.1-3.5,6.4-6.7,10-9.7c1.5-1.2-0.6-3.4-2.1-2.1
			c-12.4,10.4-21.3,24-29.6,37.7c-2.7,4.4-5.3,8.8-8,13.2C371,250.5,373.6,252,374.6,250.4L374.6,250.4z"/>
	</g>
</g>
<g>
	<g>
		<path class="st0" d="M409,200.4c6.5,6.4,13,12.8,19.4,19.4c2.9,3,5.7,6.2,8.2,9.6c2.4,3.2,4.6,6.4,6.9,9.6
			c2.7,3.7,5.6,7.2,8.9,10.4c1.4,1.3,3.5-0.8,2.1-2.1c-5.9-5.6-10.2-12.4-15-18.9c-5.1-6.9-11.2-12.9-17.3-19
			c-3.7-3.7-7.4-7.4-11.1-11.1C409.8,196.9,407.6,199.1,409,200.4L409,200.4z"/>
	</g>
</g>
<g>
	<g>
		<path class="st0" d="M371.5,251.4c6.7,6.6,13.4,13.1,20.2,19.7c6.5,6.4,13.1,12.7,20.2,18.4c4,3.2,8.1,6.3,12.2,9.5
			c1.5,1.2,3-1.4,1.5-2.6c-7.2-5.5-14.3-10.9-20.9-17c-6.7-6.1-13.2-12.6-19.7-19c-3.8-3.7-7.5-7.4-11.3-11
			C372.2,247.9,370.1,250,371.5,251.4L371.5,251.4z"/>
	</g>
</g>
<g>
	<g>
		<path class="st0" d="M452.5,247.6c-11,15.8-20.6,32.5-28.8,50c-0.8,1.7,1.8,3.3,2.6,1.5c8.1-17.5,17.8-34.2,28.8-50
			C456.2,247.5,453.6,246,452.5,247.6L452.5,247.6z"/>
	</g>
</g>
<g>
	<g>
		<path class="st0" d="M-136.2,153.9c8.4-13.9,16.3-28.4,27.1-40.6c3.1-3.5,6.4-6.7,10-9.7c1.5-1.2-0.6-3.4-2.1-2.1
			c-12.4,10.4-21.3,24-29.6,37.7c-2.7,4.4-5.3,8.8-8,13.2C-139.8,154.1-137.2,155.6-136.2,153.9L-136.2,153.9z"/>
	</g>
</g>
<g>
	<g>
		<path class="st0" d="M-101.8,104c6.5,6.4,13,12.8,19.4,19.4c2.9,3,5.7,6.2,8.2,9.6c2.4,3.2,4.6,6.4,6.9,9.6
			c2.7,3.7,5.6,7.2,8.9,10.4c1.4,1.3,3.5-0.8,2.1-2.1c-5.9-5.6-10.2-12.4-15-18.9c-5.1-6.9-11.2-12.9-17.3-19
			c-3.7-3.7-7.4-7.4-11.1-11.1C-101.1,100.5-103.2,102.6-101.8,104L-101.8,104z"/>
	</g>
</g>
<g>
	<g>
		<path class="st0" d="M-139.4,155c6.7,6.6,13.4,13.1,20.2,19.7c6.5,6.4,13.1,12.7,20.2,18.4c4,3.2,8.1,6.3,12.2,9.5
			c1.5,1.2,3-1.4,1.5-2.6c-7.2-5.5-14.3-10.9-20.9-17c-6.7-6.1-13.2-12.6-19.7-19c-3.8-3.7-7.5-7.4-11.3-11
			C-138.6,151.5-140.7,153.6-139.4,155L-139.4,155z"/>
	</g>
</g>
<g>
	<g>
		<path class="st0" d="M-58.3,151.2c-11,15.8-20.6,32.5-28.8,50c-0.8,1.7,1.8,3.3,2.6,1.5c8.1-17.5,17.8-34.2,28.8-50
			C-54.6,151.1-57.2,149.6-58.3,151.2L-58.3,151.2z"/>
	</g>
</g>
<g>
	<g>
		<path class="st0" d="M-53.5,153.9c8.4-13.9,16.3-28.4,27.1-40.6c3.1-3.5,6.4-6.7,10-9.7c1.5-1.2-0.6-3.4-2.1-2.1
			c-12.4,10.4-21.3,24-29.6,37.7c-2.7,4.4-5.3,8.8-8,13.2C-57.1,154.1-54.5,155.6-53.5,153.9L-53.5,153.9z"/>
	</g>
</g>
<g>
	<g>
		<path class="st0" d="M-19.2,104c6.5,6.4,13,12.8,19.4,19.4c2.9,3,5.7,6.2,8.2,9.6c2.4,3.2,4.6,6.4,6.9,9.6
			c2.7,3.7,5.6,7.2,8.9,10.4c1.4,1.3,3.5-0.8,2.1-2.1c-5.9-5.6-10.2-12.4-15-18.9c-5-7-11.1-13-17.2-19c-3.7-3.7-7.4-7.4-11.1-11.1
			C-18.4,100.5-20.5,102.6-19.2,104L-19.2,104z"/>
	</g>
</g>
<g>
	<g>
		<path class="st0" d="M-56.7,155c6.7,6.6,13.4,13.1,20.2,19.7c6.5,6.4,13.1,12.7,20.2,18.4c4,3.2,8.1,6.3,12.2,9.5
			c1.5,1.2,3-1.4,1.5-2.6c-7.2-5.5-14.3-10.9-20.9-17c-6.7-6.1-13.2-12.6-19.7-19c-3.8-3.7-7.5-7.4-11.3-11
			C-56,151.5-58.1,153.6-56.7,155L-56.7,155z"/>
	</g>
</g>
<g>
	<g>
		<path class="st0" d="M24.4,151.2c-11,15.8-20.6,32.5-28.8,50c-0.8,1.7,1.8,3.3,2.6,1.5c8.1-17.5,17.8-34.2,28.8-50
			C28.1,151.1,25.5,149.6,24.4,151.2L24.4,151.2z"/>
	</g>
</g>
<g>
	<g>
		<path class="st0" d="M-219.9,155.5c8.4-13.9,16.3-28.4,27.1-40.6c3.1-3.5,6.4-6.7,10-9.7c1.5-1.2-0.6-3.4-2.1-2.1
			c-12.4,10.4-21.3,24-29.6,37.7c-2.7,4.4-5.3,8.8-8,13.2C-223.5,155.7-220.9,157.2-219.9,155.5L-219.9,155.5z"/>
	</g>
</g>
<g>
	<g>
		<path class="st0" d="M-185.5,105.6c6.5,6.4,13,12.8,19.4,19.4c2.9,3,5.7,6.2,8.2,9.6c2.4,3.2,4.6,6.4,6.9,9.6
			c2.7,3.7,5.6,7.2,8.9,10.4c1.4,1.3,3.5-0.8,2.1-2.1c-5.9-5.6-10.2-12.4-15-18.9c-5.1-6.9-11.2-12.9-17.3-19
			c-3.7-3.7-7.4-7.4-11.1-11.1C-184.8,102.1-186.9,104.2-185.5,105.6L-185.5,105.6z"/>
	</g>
</g>
<g>
	<g>
		<path class="st0" d="M-223.1,156.6c6.7,6.6,13.4,13.1,20.2,19.7c6.5,6.4,13.1,12.7,20.2,18.4c4,3.2,8.1,6.3,12.2,9.5
			c1.5,1.2,3-1.4,1.5-2.6c-7.2-5.5-14.3-10.9-20.9-17c-6.7-6.1-13.2-12.6-19.7-19c-3.8-3.7-7.5-7.4-11.3-11
			C-222.3,153.1-224.4,155.2-223.1,156.6L-223.1,156.6z"/>
	</g>
</g>
<g>
	<g>
		<path class="st0" d="M-142,152.7c-11,15.8-20.6,32.5-28.8,50c-0.8,1.7,1.8,3.3,2.6,1.5c8.1-17.5,17.8-34.2,28.8-50
			C-138.3,152.7-140.9,151.2-142,152.7L-142,152.7z"/>
	</g>
</g>
<g>
	<g>
		<path class="st0" d="M-150.7,54.2c8.4-13.9,16.3-28.4,27.1-40.6c3.1-3.5,6.4-6.7,10-9.7c1.5-1.2-0.6-3.4-2.1-2.1
			c-12.4,10.4-21.3,24-29.6,37.7c-2.7,4.4-5.3,8.8-8,13.2C-154.3,54.3-151.7,55.9-150.7,54.2L-150.7,54.2z"/>
	</g>
</g>
<g>
	<g>
		<path class="st0" d="M-116.3,4.3c6.5,6.4,13,12.8,19.4,19.4c2.9,3,5.7,6.2,8.2,9.6c2.4,3.2,4.6,6.4,6.9,9.6
			c2.7,3.7,5.6,7.2,8.9,10.4c1.4,1.3,3.5-0.8,2.1-2.1c-5.9-5.6-10.2-12.4-15-18.9c-5.1-6.9-11.2-12.9-17.3-19
			c-3.7-3.7-7.4-7.4-11.1-11.1C-115.5,0.8-117.7,2.9-116.3,4.3L-116.3,4.3z"/>
	</g>
</g>
<g>
	<g>
		<path class="st0" d="M-153.8,55.2c6.7,6.6,13.4,13.1,20.2,19.7c6.5,6.4,13.1,12.7,20.2,18.4c4,3.2,8.1,6.3,12.2,9.5
			c1.5,1.2,3-1.4,1.5-2.6c-7.2-5.5-14.3-10.9-20.9-17c-6.7-6.1-13.2-12.6-19.7-19c-3.8-3.7-7.5-7.4-11.3-11
			C-153.1,51.8-155.2,53.9-153.8,55.2L-153.8,55.2z"/>
	</g>
</g>
<g>
	<g>
		<path class="st0" d="M-72.8,51.4c-11,15.8-20.6,32.5-28.8,50c-0.8,1.7,1.8,3.3,2.6,1.5c8.1-17.5,17.8-34.2,28.8-50
			C-69.1,51.3-71.7,49.8-72.8,51.4L-72.8,51.4z"/>
	</g>
</g>
<g>
	<g>
		<path class="st0" d="M-120.7,253.7c8.4-13.9,16.3-28.4,27.1-40.6c3.1-3.5,6.4-6.7,10-9.7c1.5-1.2-0.6-3.4-2.1-2.1
			c-12.4,10.4-21.3,24-29.6,37.7c-2.7,4.4-5.3,8.8-8,13.2C-124.3,253.8-121.7,255.3-120.7,253.7L-120.7,253.7z"/>
	</g>
</g>
<g>
	<g>
		<path class="st0" d="M-86.3,203.7c6.5,6.4,13,12.8,19.4,19.4c2.9,3,5.7,6.2,8.2,9.6c2.4,3.2,4.6,6.4,6.9,9.6
			c2.7,3.7,5.6,7.2,8.9,10.4c1.4,1.3,3.5-0.8,2.1-2.1c-5.9-5.6-10.2-12.4-15-18.9c-5.1-6.9-11.2-12.9-17.3-19
			c-3.7-3.7-7.4-7.4-11.1-11.1C-85.6,200.3-87.7,202.4-86.3,203.7L-86.3,203.7z"/>
	</g>
</g>
<g>
	<g>
		<path class="st0" d="M-123.9,254.7c6.7,6.6,13.4,13.1,20.2,19.7c6.5,6.4,13.1,12.7,20.2,18.4c4,3.2,8.1,6.3,12.2,9.5
			c1.5,1.2,3-1.4,1.5-2.6c-7.2-5.5-14.3-10.9-20.9-17c-6.7-6.1-13.2-12.6-19.7-19c-3.8-3.7-7.5-7.4-11.3-11
			C-123.1,251.2-125.2,253.4-123.9,254.7L-123.9,254.7z"/>
	</g>
</g>
<g>
	<g>
		<path class="st0" d="M-42.8,250.9c-11,15.8-20.6,32.5-28.8,50c-0.8,1.7,1.8,3.3,2.6,1.5c8.1-17.5,17.8-34.2,28.8-50
			C-39.1,250.8-41.7,249.3-42.8,250.9L-42.8,250.9z"/>
	</g>
</g>
<g>
	<g>
		<path class="st0" d="M255.9,48.9c3.9,0,7.7-3.4,7.5-7.5s-3.3-7.5-7.5-7.5c-3.9,0-7.7,3.4-7.5,7.5
			C248.6,45.5,251.7,48.9,255.9,48.9L255.9,48.9z"/>
	</g>
</g>
<g>
	<g>
		<path class="st0" d="M39.4,47c3.9,0,7.7-3.4,7.5-7.5S43.6,32,39.4,32c-3.9,0-7.7,3.4-7.5,7.5C32.1,43.6,35.2,47,39.4,47L39.4,47z"
			/>
	</g>
</g>
<g>
	<g>
		<path class="st0" d="M53.5,265.5c3.9,0,7.7-3.4,7.5-7.5s-3.3-7.5-7.5-7.5c-3.9,0-7.7,3.4-7.5,7.5C46.2,262,49.3,265.5,53.5,265.5
			L53.5,265.5z"/>
	</g>
</g>
<g>
	<g>
		<path class="st0" d="M264.9,270c3.9,0,7.7-3.4,7.5-7.5s-3.3-7.5-7.5-7.5c-3.9,0-7.7,3.4-7.5,7.5C257.6,266.5,260.7,270,264.9,270
			L264.9,270z"/>
	</g>
</g>
</svg>
